u2194_noise 500 - 60.ufo
<glyph name="exclam" format="1">
  <advance width="622"/>
  <unicode hex="0021"/>
  <outline>
    <contour>
      <point x="417" y="168" type="curve" smooth="yes"/>
      <point x="435" y="195"/>
      <point x="427" y="234"/>
      <point x="400" y="251" type="curve" smooth="yes"/>
      <point x="251" y="348" type="line"/>
      <point x="204" y="394" type="line"/>
      <point x="286" y="452" type="line" smooth="yes"/>
      <point x="302" y="464"/>
      <point x="313" y="489"/>
      <point x="311" y="508" type="curve" smooth="yes"/>
      <point x="303" y="569" type="line"/>
      <point x="439" y="649" type="line" smooth="yes"/>
      <point x="443" y="651"/>
      <point x="448" y="655"/>
      <point x="451" y="658" type="curve" smooth="yes"/>
      <point x="554" y="758" type="line" smooth="yes"/>
      <point x="577" y="781"/>
      <point x="578" y="820"/>
      <point x="555" y="843" type="curve" smooth="yes"/>
      <point x="532" y="866"/>
      <point x="493" y="867"/>
      <point x="470" y="844" type="curve" smooth="yes"/>
      <point x="372" y="749" type="line"/>
      <point x="209" y="653" type="line" smooth="yes"/>
      <point x="190" y="642"/>
      <point x="177" y="615"/>
      <point x="179" y="594" type="curve" smooth="yes"/>
      <point x="187" y="529" type="line"/>
      <point x="76" y="450" type="line" smooth="yes"/>
      <point x="44" y="427"/>
      <point x="41" y="385"/>
      <point x="69" y="358" type="curve" smooth="yes"/>
      <point x="171" y="258" type="line" smooth="yes"/>
      <point x="173" y="256"/>
      <point x="178" y="252"/>
      <point x="180" y="251" type="curve" smooth="yes"/>
      <point x="334" y="151" type="line" smooth="yes"/>
      <point x="361" y="133"/>
      <point x="400" y="141"/>
    </contour>
    <contour>
      <point x="110" y="22" type="curve" smooth="yes"/>
      <point x="108" y="-10"/>
      <point x="134" y="-40"/>
      <point x="166" y="-42" type="curve" smooth="yes"/>
      <point x="425" y="-59" type="line" smooth="yes"/>
      <point x="457" y="-61"/>
      <point x="487" y="-35"/>
      <point x="489" y="-3" type="curve" smooth="yes"/>
      <point x="491" y="29"/>
      <point x="465" y="59"/>
      <point x="433" y="61" type="curve" smooth="yes"/>
      <point x="174" y="78" type="line" smooth="yes"/>
      <point x="142" y="80"/>
      <point x="112" y="54"/>
    </contour>
  </outline>
</glyph>
<glyph name="numbersign" format="1">
  <advance width="995"/>
  <unicode hex="0023"/>
  <outline>
    <contour>
      <point x="556" y="662" type="line" smooth="yes"/>
      <point x="567" y="675"/>
      <point x="571" y="693"/>
      <point x="568" y="710" type="curve"/>
      <point x="710" y="659" type="line"/>
      <point x="554" y="659" type="line"/>
    </contour>
    <contour>
      <point x="646" y="402" type="curve" smooth="yes"/>
      <point x="641" y="502" type="line" smooth="yes"/>
      <point x="640" y="514"/>
      <point x="634" y="528"/>
      <point x="625" y="539" type="curve"/>
      <point x="815" y="539" type="line"/>
      <point x="821" y="510" type="line"/>
      <point x="782" y="447" type="line"/>
      <point x="644" y="386" type="line"/>
      <point x="646" y="392"/>
      <point x="646" y="397"/>
    </contour>
    <contour>
      <point x="317" y="-57" type="curve" smooth="yes"/>
      <point x="504" y="12" type="line"/>
      <point x="499" y="-11"/>
      <point x="508" y="-37"/>
      <point x="529" y="-51" type="curve" smooth="yes"/>
      <point x="556" y="-69"/>
      <point x="594" y="-61"/>
      <point x="612" y="-34" type="curve" smooth="yes"/>
      <point x="678" y="66" type="line" smooth="yes"/>
      <point x="700" y="100"/>
      <point x="687" y="141"/>
      <point x="649" y="155" type="curve" smooth="yes"/>
      <point x="587" y="178" type="line"/>
      <point x="590" y="185"/>
      <point x="591" y="192"/>
      <point x="591" y="199" type="curve" smooth="yes"/>
      <point x="591" y="210"/>
      <point x="588" y="220"/>
      <point x="583" y="229" type="curve"/>
      <point x="618" y="244" type="line"/>
      <point x="847" y="344" type="line" smooth="yes"/>
      <point x="856" y="348"/>
      <point x="869" y="359"/>
      <point x="874" y="367" type="curve" smooth="yes"/>
      <point x="936" y="467" type="line" smooth="yes"/>
      <point x="943" y="479"/>
      <point x="946" y="498"/>
      <point x="944" y="511" type="curve" smooth="yes"/>
      <point x="923" y="611" type="line" smooth="yes"/>
      <point x="921" y="620"/>
      <point x="915" y="632"/>
      <point x="909" y="639" type="curve" smooth="yes"/>
      <point x="821" y="739" type="line" smooth="yes"/>
      <point x="815" y="745"/>
      <point x="804" y="753"/>
      <point x="796" y="755" type="curve" smooth="yes"/>
      <point x="517" y="855" type="line" smooth="yes"/>
      <point x="493" y="864"/>
      <point x="465" y="855"/>
      <point x="449" y="835" type="curve"/>
      <point x="441" y="843" type="line" smooth="yes"/>
      <point x="417" y="865"/>
      <point x="378" y="863"/>
      <point x="356" y="840" type="curve" smooth="yes"/>
      <point x="334" y="816"/>
      <point x="336" y="777"/>
      <point x="359" y="755" type="curve" smooth="yes"/>
      <point x="427" y="693" type="line"/>
      <point x="400" y="659" type="line"/>
      <point x="110" y="659" type="line" smooth="yes"/>
      <point x="78" y="659"/>
      <point x="50" y="631"/>
      <point x="50" y="599" type="curve" smooth="yes"/>
      <point x="50" y="567"/>
      <point x="78" y="539"/>
      <point x="110" y="539" type="curve" smooth="yes"/>
      <point x="411" y="539" type="line"/>
      <point x="523" y="466" type="line"/>
      <point x="524" y="441" type="line"/>
      <point x="280" y="356" type="line" smooth="yes"/>
      <point x="275" y="354"/>
      <point x="267" y="350"/>
      <point x="263" y="346" type="curve" smooth="yes"/>
      <point x="149" y="258" type="line"/>
      <point x="123" y="252"/>
      <point x="102" y="227"/>
      <point x="102" y="199" type="curve" smooth="yes"/>
      <point x="102" y="167"/>
      <point x="130" y="139"/>
      <point x="162" y="139" type="curve" smooth="yes"/>
      <point x="165" y="139" type="line"/>
      <point x="364" y="88" type="line"/>
      <point x="275" y="55" type="line" smooth="yes"/>
      <point x="245" y="44"/>
      <point x="228" y="9"/>
      <point x="240" y="-22" type="curve" smooth="yes"/>
      <point x="251" y="-52"/>
      <point x="286" y="-69"/>
    </contour>
  </outline>
</glyph>
<glyph name="dollar" format="1">
  <advance width="1204"/>
  <unicode hex="0024"/>
  <outline>
    <contour>
      <point x="571" y="705" type="line" smooth="yes"/>
      <point x="565" y="719"/>
      <point x="549" y="734"/>
      <point x="533" y="739" type="curve"/>
      <point x="725" y="739" type="line"/>
      <point x="589" y="661" type="line"/>
    </contour>
    <contour>
      <point x="836" y="685" type="line"/>
      <point x="838" y="690" type="line"/>
      <point x="847" y="687" type="line"/>
    </contour>
    <contour>
      <point x="730" y="-61" type="line" smooth="yes"/>
      <point x="747" y="-61"/>
      <point x="760" y="-56"/>
      <point x="770" y="-47" type="curve"/>
      <point x="913" y="-23" type="line" smooth="yes"/>
      <point x="963" y="-15"/>
      <point x="982" y="37"/>
      <point x="948" y="75" type="curve" smooth="yes"/>
      <point x="878" y="157" type="line" smooth="yes"/>
      <point x="877" y="158"/>
      <point x="875" y="159"/>
      <point x="874" y="160" type="curve" smooth="yes"/>
      <point x="840" y="194" type="line"/>
      <point x="975" y="294" type="line" smooth="yes"/>
      <point x="1016" y="325"/>
      <point x="1008" y="381"/>
      <point x="959" y="399" type="curve" smooth="yes"/>
      <point x="821" y="449" type="line" smooth="yes"/>
      <point x="816" y="451"/>
      <point x="808" y="452"/>
      <point x="803" y="453" type="curve" smooth="yes"/>
      <point x="705" y="457" type="line"/>
      <point x="563" y="510" type="line"/>
      <point x="632" y="547" type="line"/>
      <point x="678" y="573" type="line"/>
      <point x="690" y="549"/>
      <point x="718" y="534"/>
      <point x="746" y="541" type="curve" smooth="yes"/>
      <point x="1104" y="624" type="line" smooth="yes"/>
      <point x="1169" y="639"/>
      <point x="1171" y="723"/>
      <point x="1106" y="740" type="curve" smooth="yes"/>
      <point x="883" y="802" type="line"/>
      <point x="881" y="824"/>
      <point x="869" y="844"/>
      <point x="849" y="853" type="curve" smooth="yes"/>
      <point x="839" y="858"/>
      <point x="829" y="859"/>
      <point x="819" y="859" type="curve"/>
      <point x="817" y="859"/>
      <point x="815" y="859"/>
      <point x="812" y="859" type="curve" smooth="yes"/>
      <point x="382" y="859" type="line"/>
      <point x="382" y="846" type="line"/>
      <point x="125" y="822" type="line" smooth="yes"/>
      <point x="53" y="816"/>
      <point x="48" y="719"/>
      <point x="118" y="704" type="curve" smooth="yes"/>
      <point x="365" y="652" type="line"/>
      <point x="362" y="650" type="line" smooth="yes"/>
      <point x="86" y="509" type="line" smooth="yes"/>
      <point x="31" y="481"/>
      <point x="41" y="408"/>
      <point x="102" y="397" type="curve" smooth="yes"/>
      <point x="365" y="346" type="line" smooth="yes"/>
      <point x="368" y="346"/>
      <point x="371" y="345"/>
      <point x="373" y="345" type="curve" smooth="yes"/>
      <point x="413" y="343" type="line"/>
      <point x="378" y="314"/>
      <point x="386" y="260"/>
      <point x="435" y="242" type="curve" smooth="yes"/>
      <point x="449" y="237" type="line"/>
      <point x="433" y="218"/>
      <point x="430" y="188"/>
      <point x="445" y="166" type="curve" smooth="yes"/>
      <point x="527" y="42" type="line"/>
      <point x="510" y="26"/>
      <point x="503" y="-1"/>
      <point x="513" y="-24" type="curve" smooth="yes"/>
      <point x="525" y="-54"/>
      <point x="561" y="-69"/>
      <point x="591" y="-56" type="curve" smooth="yes"/>
      <point x="596" y="-54" type="line"/>
      <point x="658" y="-57" type="line"/>
      <point x="664" y="-60"/>
      <point x="672" y="-61"/>
      <point x="680" y="-61" type="curve" smooth="yes"/>
    </contour>
    <contour>
      <point x="362" y="469" type="curve"/>
      <point x="296" y="482" type="line"/>
      <point x="356" y="512" type="line"/>
      <point x="352" y="498"/>
      <point x="354" y="482"/>
    </contour>
    <contour>
      <point x="734" y="265" type="line"/>
      <point x="621" y="304" type="line"/>
      <point x="699" y="338" type="line"/>
      <point x="788" y="333" type="line"/>
      <point x="813" y="324" type="line"/>
    </contour>
    <contour>
      <point x="637" y="93" type="line"/>
      <point x="569" y="195" type="line"/>
      <point x="702" y="149" type="line"/>
      <point x="717" y="126" type="line"/>
    </contour>
  </outline>
</glyph>
<glyph name="percent" format="1">
  <advance width="1180"/>
  <unicode hex="0025"/>
  <outline>
    <contour>
      <point x="786" y="-15" type="curve" smooth="yes"/>
      <point x="794" y="16"/>
      <point x="774" y="49"/>
      <point x="742" y="57" type="curve" smooth="yes"/>
      <point x="717" y="63" type="line"/>
      <point x="1080" y="140" type="line" smooth="yes"/>
      <point x="1153" y="156"/>
      <point x="1142" y="259"/>
      <point x="1068" y="259" type="curve" smooth="yes"/>
      <point x="717" y="259" type="line"/>
      <point x="710" y="276"/>
      <point x="695" y="291"/>
      <point x="672" y="297" type="curve" smooth="yes"/>
      <point x="422" y="360" type="line"/>
      <point x="769" y="420" type="line" smooth="yes"/>
      <point x="830" y="430"/>
      <point x="842" y="503"/>
      <point x="787" y="532" type="curve" smooth="yes"/>
      <point x="710" y="573" type="line"/>
      <point x="721" y="585" type="line"/>
      <point x="1037" y="661" type="line" smooth="yes"/>
      <point x="1102" y="676"/>
      <point x="1103" y="759"/>
      <point x="1039" y="777" type="curve" smooth="yes"/>
      <point x="751" y="857" type="line" smooth="yes"/>
      <point x="720" y="865"/>
      <point x="686" y="846"/>
      <point x="677" y="815" type="curve" smooth="yes"/>
      <point x="669" y="784"/>
      <point x="688" y="750"/>
      <point x="719" y="741" type="curve" smooth="yes"/>
      <point x="784" y="723" type="line"/>
      <point x="677" y="697" type="line" smooth="yes"/>
      <point x="668" y="695"/>
      <point x="656" y="688"/>
      <point x="649" y="682" type="curve" smooth="yes"/>
      <point x="567" y="602" type="line" smooth="yes"/>
      <point x="537" y="573"/>
      <point x="542" y="530"/>
      <point x="577" y="509" type="curve"/>
      <point x="283" y="458" type="line" smooth="yes"/>
      <point x="238" y="450"/>
      <point x="218" y="407"/>
      <point x="242" y="368" type="curve" smooth="yes"/>
      <point x="290" y="288" type="line" smooth="yes"/>
      <point x="297" y="276"/>
      <point x="313" y="264"/>
      <point x="326" y="261" type="curve" smooth="yes"/>
      <point x="428" y="235" type="line"/>
      <point x="365" y="217" type="line" smooth="yes"/>
      <point x="359" y="215"/>
      <point x="350" y="210"/>
      <point x="345" y="206" type="curve" smooth="yes"/>
      <point x="244" y="126" type="line" smooth="yes"/>
      <point x="205" y="95"/>
      <point x="212" y="42"/>
      <point x="259" y="23" type="curve" smooth="yes"/>
      <point x="458" y="-57" type="line" smooth="yes"/>
      <point x="488" y="-69"/>
      <point x="524" y="-53"/>
      <point x="536" y="-23" type="curve" smooth="yes"/>
      <point x="537" y="-19"/>
      <point x="539" y="-14"/>
      <point x="539" y="-10" type="curve"/>
      <point x="547" y="-16"/>
      <point x="556" y="-20"/>
      <point x="566" y="-23" type="curve" smooth="yes"/>
      <point x="714" y="-59" type="line" smooth="yes"/>
      <point x="745" y="-67"/>
      <point x="778" y="-47"/>
    </contour>
    <contour>
      <point x="110" y="539" type="curve" smooth="yes"/>
      <point x="439" y="539" type="line" smooth="yes"/>
      <point x="497" y="539"/>
      <point x="523" y="600"/>
      <point x="482" y="641" type="curve" smooth="yes"/>
      <point x="384" y="740" type="line"/>
      <point x="385" y="741" type="line" smooth="yes"/>
      <point x="416" y="748"/>
      <point x="437" y="781"/>
      <point x="429" y="813" type="curve" smooth="yes"/>
      <point x="422" y="844"/>
      <point x="389" y="865"/>
      <point x="357" y="857" type="curve" smooth="yes"/>
      <point x="201" y="821" type="line" smooth="yes"/>
      <point x="192" y="819"/>
      <point x="180" y="813"/>
      <point x="173" y="806" type="curve" smooth="yes"/>
      <point x="87" y="726" type="line" smooth="yes"/>
      <point x="80" y="719"/>
      <point x="72" y="705"/>
      <point x="70" y="695" type="curve" smooth="yes"/>
      <point x="51" y="612" type="line" smooth="yes"/>
      <point x="43" y="573"/>
      <point x="70" y="539"/>
    </contour>
    <contour>
      <point x="295" y="659" type="curve"/>
      <point x="192" y="659" type="line"/>
      <point x="243" y="708" type="line"/>
      <point x="283" y="717" type="line"/>
      <point x="277" y="697"/>
      <point x="281" y="675"/>
    </contour>
    <contour>
      <point x="502" y="55" type="curve" smooth="yes"/>
      <point x="399" y="96" type="line"/>
      <point x="410" y="105" type="line"/>
      <point x="554" y="147" type="line"/>
      <point x="580" y="113" type="line"/>
      <point x="542" y="81" type="line" smooth="yes"/>
      <point x="529" y="70"/>
      <point x="522" y="57"/>
      <point x="519" y="44" type="curve"/>
      <point x="514" y="49"/>
      <point x="509" y="52"/>
    </contour>
  </outline>
</glyph>
<glyph name="ampersand" format="1">
  <advance width="1099"/>
  <unicode hex="0026"/>
  <outline>
    <contour>
      <point x="769" y="-36" type="curve" smooth="yes"/>
      <point x="789" y="-11"/>
      <point x="785" y="28"/>
      <point x="759" y="48" type="curve" smooth="yes"/>
      <point x="745" y="59" type="line"/>
      <point x="879" y="104" type="line" smooth="yes"/>
      <point x="916" y="117"/>
      <point x="932" y="156"/>
      <point x="912" y="190" type="curve" smooth="yes"/>
      <point x="884" y="240" type="line"/>
      <point x="1003" y="276" type="line" smooth="yes"/>
      <point x="1060" y="293"/>
      <point x="1065" y="361"/>
      <point x="1013" y="387" type="curve" smooth="yes"/>
      <point x="880" y="454" type="line" smooth="yes"/>
      <point x="851" y="468"/>
      <point x="814" y="456"/>
      <point x="799" y="427" type="curve" smooth="yes"/>
      <point x="796" y="420"/>
      <point x="794" y="413"/>
      <point x="793" y="405" type="curve"/>
      <point x="728" y="442" type="line"/>
      <point x="730" y="446"/>
      <point x="731" y="450"/>
      <point x="731" y="454" type="curve" smooth="yes"/>
      <point x="745" y="565" type="line"/>
      <point x="900" y="649" type="line" smooth="yes"/>
      <point x="909" y="654"/>
      <point x="920" y="666"/>
      <point x="925" y="675" type="curve" smooth="yes"/>
      <point x="974" y="774" type="line" smooth="yes"/>
      <point x="995" y="817"/>
      <point x="968" y="861"/>
      <point x="920" y="861" type="curve" smooth="yes"/>
      <point x="456" y="861" type="line" smooth="yes"/>
      <point x="443" y="861"/>
      <point x="425" y="854"/>
      <point x="415" y="845" type="curve" smooth="yes"/>
      <point x="350" y="785" type="line" smooth="yes"/>
      <point x="329" y="765"/>
      <point x="325" y="730"/>
      <point x="342" y="706" type="curve" smooth="yes"/>
      <point x="415" y="604" type="line"/>
      <point x="355" y="541" type="line" smooth="yes"/>
      <point x="349" y="534"/>
      <point x="342" y="521"/>
      <point x="340" y="511" type="curve" smooth="yes"/>
      <point x="330" y="459" type="line"/>
      <point x="212" y="453" type="line" smooth="yes"/>
      <point x="138" y="450"/>
      <point x="131" y="349"/>
      <point x="203" y="335" type="curve" smooth="yes"/>
      <point x="262" y="323" type="line"/>
      <point x="91" y="255" type="line" smooth="yes"/>
      <point x="38" y="234"/>
      <point x="36" y="171"/>
      <point x="86" y="145" type="curve" smooth="yes"/>
      <point x="177" y="99" type="line"/>
      <point x="156" y="79" type="line" smooth="yes"/>
      <point x="122" y="44"/>
      <point x="135" y="-7"/>
      <point x="181" y="-21" type="curve" smooth="yes"/>
      <point x="296" y="-56" type="line" smooth="yes"/>
      <point x="309" y="-60"/>
      <point x="328" y="-59"/>
      <point x="340" y="-53" type="curve" smooth="yes"/>
      <point x="472" y="10" type="line"/>
      <point x="583" y="34" type="line"/>
      <point x="685" y="-46" type="line" smooth="yes"/>
      <point x="710" y="-66"/>
      <point x="749" y="-62"/>
    </contour>
    <contour>
      <point x="536" y="558" type="line" smooth="yes"/>
      <point x="554" y="578"/>
      <point x="557" y="612"/>
      <point x="541" y="634" type="curve" smooth="yes"/>
      <point x="471" y="733" type="line"/>
      <point x="479" y="741" type="line"/>
      <point x="817" y="741" type="line"/>
      <point x="660" y="656" type="line" smooth="yes"/>
      <point x="645" y="648"/>
      <point x="631" y="627"/>
      <point x="629" y="610" type="curve" smooth="yes"/>
      <point x="615" y="490" type="line"/>
      <point x="584" y="461" type="line"/>
      <point x="453" y="461" type="line"/>
      <point x="455" y="472" type="line"/>
    </contour>
    <contour>
      <point x="320" y="73" type="line" smooth="yes"/>
      <point x="351" y="104"/>
      <point x="343" y="150"/>
      <point x="305" y="169" type="curve" smooth="yes"/>
      <point x="259" y="192" type="line"/>
      <point x="493" y="285" type="line" smooth="yes"/>
      <point x="520" y="296"/>
      <point x="534" y="318"/>
      <point x="534" y="341" type="curve"/>
      <point x="607" y="341" type="line" smooth="yes"/>
      <point x="618" y="341"/>
      <point x="632" y="346"/>
      <point x="642" y="353" type="curve"/>
      <point x="712" y="313" type="line"/>
      <point x="522" y="258" type="line" smooth="yes"/>
      <point x="460" y="240"/>
      <point x="460" y="162"/>
      <point x="521" y="143" type="curve"/>
      <point x="440" y="126" type="line" smooth="yes"/>
      <point x="436" y="125"/>
      <point x="430" y="123"/>
      <point x="426" y="122" type="curve" smooth="yes"/>
      <point x="315" y="68" type="line"/>
    </contour>
    <contour>
      <point x="771" y="196" type="line"/>
      <point x="755" y="201" type="line"/>
      <point x="767" y="204" type="line"/>
    </contour>
  </outline>
</glyph>
<glyph name="asterisk" format="1">
  <advance width="924"/>
  <unicode hex="002A"/>
  <outline>
    <contour>
      <point x="873" y="290" type="curve" smooth="yes"/>
      <point x="879" y="322"/>
      <point x="858" y="354"/>
      <point x="826" y="361" type="curve" smooth="yes"/>
      <point x="568" y="414" type="line"/>
      <point x="686" y="442" type="line"/>
      <point x="804" y="442" type="line" smooth="yes"/>
      <point x="836" y="442"/>
      <point x="864" y="470"/>
      <point x="864" y="502" type="curve" smooth="yes"/>
      <point x="864" y="534"/>
      <point x="836" y="562"/>
      <point x="804" y="562" type="curve" smooth="yes"/>
      <point x="529" y="562" type="line"/>
      <point x="529" y="528" type="line"/>
      <point x="457" y="511" type="line"/>
      <point x="454" y="526"/>
      <point x="445" y="540"/>
      <point x="430" y="551" type="curve" smooth="yes"/>
      <point x="349" y="609" type="line"/>
      <point x="400" y="659" type="line" smooth="yes"/>
      <point x="423" y="682"/>
      <point x="424" y="721"/>
      <point x="401" y="744" type="curve" smooth="yes"/>
      <point x="378" y="767"/>
      <point x="339" y="768"/>
      <point x="316" y="745" type="curve" smooth="yes"/>
      <point x="214" y="645" type="line" smooth="yes"/>
      <point x="190" y="621"/>
      <point x="189" y="585"/>
      <point x="211" y="562" type="curve"/>
      <point x="110" y="562" type="line" smooth="yes"/>
      <point x="78" y="562"/>
      <point x="50" y="534"/>
      <point x="50" y="502" type="curve" smooth="yes"/>
      <point x="50" y="470"/>
      <point x="78" y="442"/>
      <point x="110" y="442" type="curve" smooth="yes"/>
      <point x="209" y="442" type="line"/>
      <point x="185" y="418"/>
      <point x="187" y="377"/>
      <point x="221" y="353" type="curve" smooth="yes"/>
      <point x="363" y="253" type="line" smooth="yes"/>
      <point x="390" y="234"/>
      <point x="428" y="241"/>
      <point x="447" y="267" type="curve" smooth="yes"/>
      <point x="459" y="284"/>
      <point x="460" y="305"/>
      <point x="454" y="323" type="curve"/>
      <point x="461" y="317"/>
      <point x="472" y="312"/>
      <point x="480" y="310" type="curve" smooth="yes"/>
      <point x="802" y="243" type="line" smooth="yes"/>
      <point x="834" y="237"/>
      <point x="866" y="258"/>
    </contour>
    <contour>
      <point x="410" y="367" type="line"/>
      <point x="400" y="374" type="line"/>
      <point x="402" y="375" type="line"/>
    </contour>
  </outline>
</glyph>
<glyph name="plus" format="1">
  <advance width="781"/>
  <unicode hex="002B"/>
  <outline>
    <contour>
      <point x="199" y="116" type="curve" smooth="yes"/>
      <point x="209" y="216" type="line" smooth="yes"/>
      <point x="209" y="224"/>
      <point x="208" y="236"/>
      <point x="205" y="244" type="curve" smooth="yes"/>
      <point x="198" y="262" type="line"/>
      <point x="671" y="262" type="line" smooth="yes"/>
      <point x="703" y="262"/>
      <point x="731" y="290"/>
      <point x="731" y="322" type="curve" smooth="yes"/>
      <point x="731" y="354"/>
      <point x="703" y="382"/>
      <point x="671" y="382" type="curve" smooth="yes"/>
      <point x="604" y="382" type="line"/>
      <point x="627" y="405"/>
      <point x="626" y="444"/>
      <point x="594" y="469" type="curve" smooth="yes"/>
      <point x="469" y="569" type="line" smooth="yes"/>
      <point x="444" y="589"/>
      <point x="405" y="585"/>
      <point x="385" y="559" type="curve" smooth="yes"/>
      <point x="365" y="534"/>
      <point x="369" y="495"/>
      <point x="395" y="475" type="curve" smooth="yes"/>
      <point x="422" y="453" type="line"/>
      <point x="97" y="381" type="line" smooth="yes"/>
      <point x="60" y="372"/>
      <point x="40" y="336"/>
      <point x="54" y="300" type="curve" smooth="yes"/>
      <point x="88" y="214" type="line"/>
      <point x="79" y="128" type="line" smooth="yes"/>
      <point x="76" y="96"/>
      <point x="101" y="66"/>
      <point x="133" y="62" type="curve" smooth="yes"/>
      <point x="165" y="59"/>
      <point x="195" y="84"/>
    </contour>
  </outline>
</glyph>
<glyph name="comma" format="1">
  <advance width="532"/>
  <unicode hex="002C"/>
  <outline>
    <contour>
      <point x="110" y="-118" type="curve" smooth="yes"/>
      <point x="272" y="-118" type="line" smooth="yes"/>
      <point x="302" y="-118"/>
      <point x="329" y="-94"/>
      <point x="332" y="-64" type="curve" smooth="yes"/>
      <point x="339" y="9" type="line"/>
      <point x="457" y="93" type="line" smooth="yes"/>
      <point x="483" y="112"/>
      <point x="490" y="151"/>
      <point x="471" y="177" type="curve" smooth="yes"/>
      <point x="452" y="203"/>
      <point x="413" y="210"/>
      <point x="387" y="191" type="curve" smooth="yes"/>
      <point x="247" y="91" type="line" smooth="yes"/>
      <point x="235" y="82"/>
      <point x="224" y="63"/>
      <point x="222" y="48" type="curve" smooth="yes"/>
      <point x="218" y="2" type="line"/>
      <point x="110" y="2" type="line" smooth="yes"/>
      <point x="78" y="2"/>
      <point x="50" y="-26"/>
      <point x="50" y="-58" type="curve" smooth="yes"/>
      <point x="50" y="-90"/>
      <point x="78" y="-118"/>
    </contour>
  </outline>
</glyph>
<glyph name="period" format="1">
  <advance width="435"/>
  <unicode hex="002E"/>
  <outline>
    <contour>
      <point x="50" y="13" type="curve" smooth="yes"/>
      <point x="49" y="-20"/>
      <point x="75" y="-48"/>
      <point x="107" y="-50" type="curve" smooth="yes"/>
      <point x="322" y="-60" type="line" smooth="yes"/>
      <point x="355" y="-61"/>
      <point x="383" y="-35"/>
      <point x="385" y="-3" type="curve" smooth="yes"/>
      <point x="386" y="30"/>
      <point x="360" y="58"/>
      <point x="328" y="60" type="curve" smooth="yes"/>
      <point x="113" y="70" type="line" smooth="yes"/>
      <point x="80" y="71"/>
      <point x="52" y="45"/>
    </contour>
  </outline>
</glyph>
<glyph name="slash" format="1">
  <advance width="1007"/>
  <unicode hex="002F"/>
  <outline>
    <contour>
      <point x="548" y="-10" type="curve" smooth="yes"/>
      <point x="554" y="21"/>
      <point x="533" y="54"/>
      <point x="501" y="61" type="curve" smooth="yes"/>
      <point x="441" y="74" type="line"/>
      <point x="624" y="103" type="line" smooth="yes"/>
      <point x="689" y="113"/>
      <point x="698" y="194"/>
      <point x="637" y="218" type="curve" smooth="yes"/>
      <point x="527" y="261" type="line"/>
      <point x="537" y="269" type="line"/>
      <point x="744" y="346" type="line" smooth="yes"/>
      <point x="749" y="348"/>
      <point x="756" y="352"/>
      <point x="760" y="355" type="curve" smooth="yes"/>
      <point x="860" y="435" type="line" smooth="yes"/>
      <point x="903" y="469"/>
      <point x="890" y="528"/>
      <point x="837" y="540" type="curve" smooth="yes"/>
      <point x="726" y="567" type="line"/>
      <point x="786" y="584" type="line" smooth="yes"/>
      <point x="791" y="586"/>
      <point x="798" y="589"/>
      <point x="803" y="592" type="curve" smooth="yes"/>
      <point x="927" y="672" type="line" smooth="yes"/>
      <point x="972" y="701"/>
      <point x="965" y="761"/>
      <point x="914" y="779" type="curve" smooth="yes"/>
      <point x="685" y="859" type="line" smooth="yes"/>
      <point x="654" y="869"/>
      <point x="619" y="852"/>
      <point x="608" y="822" type="curve" smooth="yes"/>
      <point x="598" y="791"/>
      <point x="615" y="756"/>
      <point x="645" y="745" type="curve" smooth="yes"/>
      <point x="758" y="706" type="line"/>
      <point x="745" y="697" type="line"/>
      <point x="473" y="620" type="line" smooth="yes"/>
      <point x="409" y="602"/>
      <point x="411" y="519"/>
      <point x="475" y="504" type="curve" smooth="yes"/>
      <point x="687" y="453" type="line"/>
      <point x="486" y="378" type="line" smooth="yes"/>
      <point x="481" y="376"/>
      <point x="473" y="372"/>
      <point x="469" y="368" type="curve" smooth="yes"/>
      <point x="371" y="288" type="line" smooth="yes"/>
      <point x="333" y="257"/>
      <point x="341" y="205"/>
      <point x="387" y="186" type="curve"/>
      <point x="104" y="141" type="line" smooth="yes"/>
      <point x="34" y="130"/>
      <point x="32" y="38"/>
      <point x="101" y="23" type="curve" smooth="yes"/>
      <point x="477" y="-57" type="line" smooth="yes"/>
      <point x="508" y="-63"/>
      <point x="541" y="-42"/>
    </contour>
  </outline>
</glyph>
<glyph name="zero" format="1">
  <advance width="1212"/>
  <unicode hex="0030"/>
  <outline>
    <contour>
      <point x="544" y="-58" type="curve" smooth="yes"/>
      <point x="583" y="-58" type="line"/>
      <point x="1093" y="-22" type="line" smooth="yes"/>
      <point x="1157" y="-17"/>
      <point x="1174" y="59"/>
      <point x="1118" y="90" type="curve" smooth="yes"/>
      <point x="1070" y="117" type="line"/>
      <point x="1129" y="149" type="line" smooth="yes"/>
      <point x="1159" y="165"/>
      <point x="1170" y="201"/>
      <point x="1154" y="231" type="curve" smooth="yes"/>
      <point x="1100" y="331" type="line" smooth="yes"/>
      <point x="1093" y="343"/>
      <point x="1077" y="356"/>
      <point x="1064" y="360" type="curve" smooth="yes"/>
      <point x="843" y="424" type="line"/>
      <point x="884" y="453" type="line" smooth="yes"/>
      <point x="908" y="470"/>
      <point x="916" y="505"/>
      <point x="901" y="531" type="curve"/>
      <point x="920" y="540"/>
      <point x="932" y="558"/>
      <point x="934" y="578" type="curve"/>
      <point x="999" y="596" type="line" smooth="yes"/>
      <point x="1007" y="598"/>
      <point x="1018" y="604"/>
      <point x="1024" y="609" type="curve" smooth="yes"/>
      <point x="1130" y="706" type="line" smooth="yes"/>
      <point x="1169" y="741"/>
      <point x="1155" y="796"/>
      <point x="1104" y="808" type="curve" smooth="yes"/>
      <point x="888" y="860" type="line" smooth="yes"/>
      <point x="884" y="861"/>
      <point x="878" y="862"/>
      <point x="874" y="862" type="curve" smooth="yes"/>
      <point x="596" y="862" type="line"/>
      <point x="596" y="855" type="line"/>
      <point x="181" y="826" type="line" smooth="yes"/>
      <point x="141" y="823"/>
      <point x="117" y="787"/>
      <point x="128" y="749" type="curve" smooth="yes"/>
      <point x="152" y="668" type="line" smooth="yes"/>
      <point x="154" y="659"/>
      <point x="162" y="647"/>
      <point x="168" y="641" type="curve" smooth="yes"/>
      <point x="198" y="614" type="line"/>
      <point x="94" y="554" type="line" smooth="yes"/>
      <point x="43" y="525"/>
      <point x="53" y="457"/>
      <point x="110" y="444" type="curve" smooth="yes"/>
      <point x="326" y="392" type="line"/>
      <point x="226" y="359" type="line" smooth="yes"/>
      <point x="221" y="357"/>
      <point x="213" y="353"/>
      <point x="209" y="350" type="curve" smooth="yes"/>
      <point x="75" y="250" type="line" smooth="yes"/>
      <point x="41" y="224"/>
      <point x="41" y="179"/>
      <point x="76" y="154" type="curve" smooth="yes"/>
      <point x="171" y="84" type="line"/>
      <point x="163" y="68"/>
      <point x="162" y="47"/>
      <point x="170" y="30" type="curve" smooth="yes"/>
      <point x="181" y="8"/>
      <point x="205" y="-5"/>
      <point x="228" y="-4" type="curve"/>
      <point x="237" y="-12"/>
      <point x="250" y="-19"/>
      <point x="260" y="-21" type="curve" smooth="yes"/>
      <point x="457" y="-57" type="line" smooth="yes"/>
      <point x="475" y="-60"/>
      <point x="493" y="-55"/>
      <point x="506" y="-44" type="curve"/>
      <point x="516" y="-53"/>
      <point x="530" y="-58"/>
    </contour>
    <contour>
      <point x="823" y="704" type="line"/>
      <point x="778" y="742" type="line"/>
      <point x="867" y="742" type="line"/>
      <point x="965" y="718" type="line"/>
      <point x="954" y="708" type="line"/>
      <point x="851" y="680" type="line"/>
    </contour>
    <contour>
      <point x="328" y="550" type="line" smooth="yes"/>
      <point x="365" y="571"/>
      <point x="370" y="617"/>
      <point x="339" y="646" type="curve" smooth="yes"/>
      <point x="269" y="711" type="line"/>
      <point x="636" y="737" type="line"/>
      <point x="634" y="720"/>
      <point x="641" y="701"/>
      <point x="656" y="688" type="curve" smooth="yes"/>
      <point x="733" y="623" type="line"/>
      <point x="729" y="611"/>
      <point x="729" y="597"/>
      <point x="734" y="583" type="curve"/>
      <point x="690" y="562" type="line"/>
      <point x="520" y="488" type="line" smooth="yes"/>
      <point x="513" y="484"/>
      <point x="506" y="480"/>
      <point x="500" y="474" type="curve"/>
      <point x="285" y="525" type="line"/>
    </contour>
    <contour>
      <point x="479" y="61" type="curve" smooth="yes"/>
      <point x="402" y="75" type="line"/>
      <point x="404" y="76" type="line"/>
      <point x="615" y="150" type="line" smooth="yes"/>
      <point x="659" y="166"/>
      <point x="671" y="214"/>
      <point x="639" y="248" type="curve" smooth="yes"/>
      <point x="612" y="277" type="line"/>
      <point x="653" y="311" type="line" smooth="yes"/>
      <point x="665" y="322"/>
      <point x="673" y="336"/>
      <point x="674" y="351" type="curve"/>
      <point x="679" y="348"/>
      <point x="684" y="346"/>
      <point x="690" y="344" type="curve" smooth="yes"/>
      <point x="1006" y="251" type="line"/>
      <point x="1020" y="226" type="line"/>
      <point x="917" y="171" type="line" smooth="yes"/>
      <point x="881" y="152"/>
      <point x="873" y="112"/>
      <point x="895" y="84" type="curve"/>
      <point x="583" y="62" type="line"/>
      <point x="544" y="62" type="line" smooth="yes"/>
      <point x="530" y="62"/>
      <point x="516" y="57"/>
      <point x="506" y="48" type="curve"/>
      <point x="498" y="55"/>
      <point x="489" y="59"/>
    </contour>
    <contour>
      <point x="261" y="167" type="curve" smooth="yes"/>
      <point x="212" y="203" type="line"/>
      <point x="273" y="248" type="line"/>
      <point x="474" y="315" type="line"/>
      <point x="459" y="293"/>
      <point x="461" y="262"/>
      <point x="481" y="241" type="curve" smooth="yes"/>
      <point x="488" y="233" type="line"/>
      <point x="361" y="188" type="line" smooth="yes"/>
      <point x="359" y="187"/>
      <point x="357" y="186"/>
      <point x="355" y="185" type="curve" smooth="yes"/>
      <point x="278" y="148" type="line"/>
      <point x="274" y="154"/>
      <point x="267" y="163"/>
    </contour>
  </outline>
</glyph>
<glyph name="one" format="1">
  <advance width="1021"/>
  <unicode hex="0031"/>
  <outline>
    <contour>
      <point x="110" y="-59" type="line" smooth="yes"/>
      <point x="971" y="-59" type="line"/>
      <point x="971" y="61" type="line"/>
      <point x="594" y="61" type="line"/>
      <point x="738" y="150" type="line" smooth="yes"/>
      <point x="778" y="175"/>
      <point x="778" y="225"/>
      <point x="739" y="251" type="curve" smooth="yes"/>
      <point x="594" y="346" type="line"/>
      <point x="539" y="412" type="line"/>
      <point x="565" y="480" type="line" smooth="yes"/>
      <point x="575" y="507"/>
      <point x="563" y="540"/>
      <point x="537" y="554" type="curve" smooth="yes"/>
      <point x="498" y="575" type="line"/>
      <point x="619" y="601" type="line" smooth="yes"/>
      <point x="627" y="602"/>
      <point x="638" y="607"/>
      <point x="644" y="612" type="curve" smooth="yes"/>
      <point x="697" y="654" type="line" smooth="yes"/>
      <point x="752" y="697"/>
      <point x="710" y="778"/>
      <point x="643" y="759" type="curve" smooth="yes"/>
      <point x="316" y="662" type="line"/>
      <point x="304" y="661" type="line"/>
      <point x="132" y="661" type="line" smooth="yes"/>
      <point x="100" y="661"/>
      <point x="72" y="633"/>
      <point x="72" y="601" type="curve" smooth="yes"/>
      <point x="72" y="569"/>
      <point x="100" y="541"/>
      <point x="132" y="541" type="curve" smooth="yes"/>
      <point x="305" y="541" type="line"/>
      <point x="434" y="473" type="line"/>
      <point x="415" y="422" type="line" smooth="yes"/>
      <point x="408" y="404"/>
      <point x="412" y="378"/>
      <point x="425" y="363" type="curve" smooth="yes"/>
      <point x="507" y="263" type="line" smooth="yes"/>
      <point x="510" y="259"/>
      <point x="516" y="254"/>
      <point x="520" y="251" type="curve" smooth="yes"/>
      <point x="594" y="202" type="line"/>
      <point x="445" y="109" type="line"/>
      <point x="382" y="68" type="line"/>
      <point x="109" y="61" type="line" smooth="yes"/>
      <point x="107" y="61" type="line"/>
      <point x="109" y="61"/>
      <point x="107" y="61"/>
      <point x="106" y="61" type="curve"/>
      <point x="106" y="61"/>
      <point x="104" y="61"/>
      <point x="102" y="60" type="curve"/>
      <point x="102" y="60"/>
      <point x="101" y="60"/>
      <point x="100" y="60" type="curve"/>
      <point x="99" y="60"/>
      <point x="98" y="60"/>
      <point x="97" y="59" type="curve"/>
      <point x="96" y="59"/>
      <point x="96" y="59"/>
      <point x="95" y="59" type="curve"/>
      <point x="94" y="59"/>
      <point x="93" y="58"/>
      <point x="92" y="58" type="curve"/>
      <point x="91" y="58"/>
      <point x="91" y="58"/>
      <point x="90" y="57" type="curve"/>
      <point x="89" y="57"/>
      <point x="88" y="57"/>
      <point x="87" y="56" type="curve"/>
      <point x="86" y="56"/>
      <point x="86" y="56"/>
      <point x="85" y="55" type="curve"/>
      <point x="84" y="55"/>
      <point x="83" y="54"/>
      <point x="82" y="54" type="curve"/>
      <point x="81" y="53"/>
      <point x="81" y="53"/>
      <point x="81" y="53" type="curve"/>
      <point x="80" y="52"/>
      <point x="79" y="52"/>
      <point x="78" y="51" type="curve"/>
      <point x="77" y="51"/>
      <point x="77" y="50"/>
      <point x="76" y="50" type="curve"/>
      <point x="75" y="49"/>
      <point x="74" y="49"/>
      <point x="73" y="48" type="curve"/>
      <point x="73" y="48"/>
      <point x="72" y="47"/>
      <point x="72" y="47" type="curve"/>
      <point x="71" y="46"/>
      <point x="70" y="46"/>
      <point x="70" y="45" type="curve"/>
      <point x="69" y="44"/>
      <point x="68" y="44"/>
      <point x="68" y="43" type="curve"/>
      <point x="67" y="43"/>
      <point x="67" y="42"/>
      <point x="66" y="41" type="curve"/>
      <point x="66" y="41"/>
      <point x="65" y="40"/>
      <point x="64" y="39" type="curve"/>
      <point x="64" y="39"/>
      <point x="63" y="38"/>
      <point x="63" y="38" type="curve"/>
      <point x="62" y="37"/>
      <point x="62" y="36"/>
      <point x="61" y="35" type="curve"/>
      <point x="61" y="35"/>
      <point x="60" y="34"/>
      <point x="60" y="33" type="curve"/>
      <point x="59" y="33"/>
      <point x="59" y="32"/>
      <point x="58" y="31" type="curve"/>
      <point x="58" y="30"/>
      <point x="58" y="30"/>
      <point x="57" y="29" type="curve"/>
      <point x="57" y="28"/>
      <point x="56" y="27"/>
      <point x="56" y="26" type="curve"/>
      <point x="55" y="25"/>
      <point x="55" y="25"/>
      <point x="55" y="24" type="curve"/>
      <point x="55" y="23"/>
      <point x="54" y="22"/>
      <point x="54" y="21" type="curve"/>
      <point x="53" y="21"/>
      <point x="53" y="20"/>
      <point x="53" y="19" type="curve"/>
      <point x="53" y="19"/>
      <point x="52" y="17"/>
      <point x="52" y="16" type="curve"/>
      <point x="52" y="16"/>
      <point x="52" y="15"/>
      <point x="52" y="14" type="curve"/>
      <point x="51" y="13"/>
      <point x="51" y="12"/>
      <point x="51" y="11" type="curve"/>
      <point x="51" y="10"/>
      <point x="51" y="10"/>
      <point x="51" y="9" type="curve"/>
      <point x="50" y="3"/>
      <point x="50" y="4"/>
      <point x="50" y="6" type="curve"/>
      <point x="50" y="1"/>
      <point x="50" y="3"/>
      <point x="50" y="3" type="curve"/>
      <point x="50" y="1" type="line" smooth="yes"/>
      <point x="50" y="0" type="line"/>
      <point x="50" y="0" type="line" smooth="yes"/>
      <point x="50" y="-2" type="line"/>
      <point x="50" y="-1"/>
      <point x="50" y="-2"/>
      <point x="50" y="-3" type="curve"/>
      <point x="50" y="-3"/>
      <point x="50" y="-5"/>
      <point x="51" y="-7" type="curve"/>
      <point x="51" y="-8"/>
      <point x="51" y="-8"/>
      <point x="51" y="-9" type="curve"/>
      <point x="51" y="-10"/>
      <point x="51" y="-11"/>
      <point x="52" y="-12" type="curve"/>
      <point x="52" y="-13"/>
      <point x="52" y="-13"/>
      <point x="52" y="-14" type="curve"/>
      <point x="52" y="-15"/>
      <point x="53" y="-16"/>
      <point x="53" y="-17" type="curve"/>
      <point x="53" y="-18"/>
      <point x="53" y="-18"/>
      <point x="54" y="-19" type="curve"/>
      <point x="54" y="-20"/>
      <point x="54" y="-21"/>
      <point x="55" y="-22" type="curve"/>
      <point x="55" y="-23"/>
      <point x="55" y="-23"/>
      <point x="56" y="-24" type="curve"/>
      <point x="56" y="-25"/>
      <point x="57" y="-26"/>
      <point x="57" y="-27" type="curve"/>
      <point x="58" y="-28"/>
      <point x="58" y="-28"/>
      <point x="58" y="-28" type="curve"/>
      <point x="59" y="-30"/>
      <point x="59" y="-31"/>
      <point x="60" y="-31" type="curve"/>
      <point x="60" y="-32"/>
      <point x="61" y="-32"/>
      <point x="61" y="-33" type="curve"/>
      <point x="62" y="-34"/>
      <point x="62" y="-35"/>
      <point x="63" y="-36" type="curve"/>
      <point x="63" y="-36"/>
      <point x="64" y="-37"/>
      <point x="64" y="-37" type="curve"/>
      <point x="65" y="-38"/>
      <point x="65" y="-39"/>
      <point x="66" y="-39" type="curve"/>
      <point x="67" y="-40"/>
      <point x="67" y="-41"/>
      <point x="68" y="-41" type="curve"/>
      <point x="68" y="-42"/>
      <point x="69" y="-42"/>
      <point x="70" y="-43" type="curve"/>
      <point x="70" y="-44"/>
      <point x="71" y="-44"/>
      <point x="72" y="-45" type="curve"/>
      <point x="72" y="-45"/>
      <point x="73" y="-46"/>
      <point x="73" y="-46" type="curve"/>
      <point x="74" y="-47"/>
      <point x="75" y="-47"/>
      <point x="76" y="-48" type="curve"/>
      <point x="76" y="-48"/>
      <point x="77" y="-49"/>
      <point x="78" y="-49" type="curve"/>
      <point x="78" y="-50"/>
      <point x="79" y="-50"/>
      <point x="80" y="-51" type="curve"/>
      <point x="81" y="-51"/>
      <point x="81" y="-51"/>
      <point x="82" y="-52" type="curve"/>
      <point x="83" y="-52"/>
      <point x="84" y="-53"/>
      <point x="85" y="-53" type="curve"/>
      <point x="86" y="-54"/>
      <point x="86" y="-54"/>
      <point x="87" y="-54" type="curve"/>
      <point x="88" y="-55"/>
      <point x="89" y="-55"/>
      <point x="90" y="-55" type="curve"/>
      <point x="90" y="-56"/>
      <point x="91" y="-56"/>
      <point x="92" y="-56" type="curve"/>
      <point x="93" y="-56"/>
      <point x="94" y="-57"/>
      <point x="95" y="-57" type="curve"/>
      <point x="96" y="-57"/>
      <point x="96" y="-57"/>
      <point x="97" y="-57" type="curve"/>
      <point x="98" y="-58"/>
      <point x="99" y="-58"/>
      <point x="100" y="-58" type="curve"/>
      <point x="101" y="-58"/>
      <point x="102" y="-58"/>
      <point x="102" y="-58" type="curve"/>
      <point x="108" y="-59"/>
      <point x="107" y="-59"/>
      <point x="105" y="-59" type="curve"/>
      <point x="110" y="-59"/>
      <point x="109" y="-59"/>
      <point x="108" y="-59" type="curve"/>
    </contour>
  </outline>
</glyph>
<glyph name="two" format="1">
  <advance width="1128"/>
  <unicode hex="0032"/>
  <outline>
    <contour>
      <point x="954" y="-60" type="line" smooth="yes"/>
      <point x="986" y="-60"/>
      <point x="1014" y="-32"/>
      <point x="1014" y="0" type="curve" smooth="yes"/>
      <point x="1014" y="32"/>
      <point x="986" y="60"/>
      <point x="954" y="60" type="curve" smooth="yes"/>
      <point x="451" y="60" type="line"/>
      <point x="457" y="67"/>
      <point x="463" y="76"/>
      <point x="465" y="84" type="curve" smooth="yes"/>
      <point x="492" y="184" type="line" smooth="yes"/>
      <point x="496" y="200"/>
      <point x="491" y="224"/>
      <point x="481" y="237" type="curve" smooth="yes"/>
      <point x="432" y="300" type="line"/>
      <point x="629" y="334" type="line"/>
      <point x="699" y="348" type="line"/>
      <point x="922" y="400" type="line" smooth="yes"/>
      <point x="963" y="410"/>
      <point x="981" y="451"/>
      <point x="960" y="488" type="curve" smooth="yes"/>
      <point x="878" y="630" type="line" smooth="yes"/>
      <point x="876" y="634"/>
      <point x="872" y="639"/>
      <point x="868" y="643" type="curve"/>
      <point x="1032" y="691" type="line" smooth="yes"/>
      <point x="1090" y="708"/>
      <point x="1094" y="779"/>
      <point x="1038" y="803" type="curve" smooth="yes"/>
      <point x="919" y="855" type="line" smooth="yes"/>
      <point x="913" y="858"/>
      <point x="902" y="860"/>
      <point x="895" y="860" type="curve" smooth="yes"/>
      <point x="415" y="860" type="line" smooth="yes"/>
      <point x="394" y="860"/>
      <point x="378" y="852"/>
      <point x="368" y="839" type="curve"/>
      <point x="121" y="801" type="line" smooth="yes"/>
      <point x="57" y="791"/>
      <point x="47" y="712"/>
      <point x="107" y="686" type="curve" smooth="yes"/>
      <point x="442" y="545" type="line" smooth="yes"/>
      <point x="471" y="532"/>
      <point x="508" y="547"/>
      <point x="520" y="577" type="curve" smooth="yes"/>
      <point x="533" y="606"/>
      <point x="518" y="643"/>
      <point x="488" y="655" type="curve" smooth="yes"/>
      <point x="348" y="715" type="line"/>
      <point x="469" y="734" type="line" smooth="yes"/>
      <point x="476" y="735"/>
      <point x="483" y="737"/>
      <point x="489" y="740" type="curve"/>
      <point x="773" y="740" type="line"/>
      <point x="669" y="709" type="line" smooth="yes"/>
      <point x="609" y="692"/>
      <point x="607" y="617"/>
      <point x="665" y="596" type="curve" smooth="yes"/>
      <point x="785" y="551" type="line"/>
      <point x="815" y="498" type="line"/>
      <point x="676" y="466" type="line"/>
      <point x="608" y="452" type="line"/>
      <point x="313" y="401" type="line" smooth="yes"/>
      <point x="264" y="392"/>
      <point x="246" y="343"/>
      <point x="276" y="305" type="curve" smooth="yes"/>
      <point x="368" y="187" type="line"/>
      <point x="357" y="147" type="line"/>
      <point x="93" y="57" type="line" smooth="yes"/>
      <point x="25" y="34"/>
      <point x="41" y="-60"/>
      <point x="112" y="-60" type="curve" smooth="yes"/>
    </contour>
  </outline>
</glyph>
<glyph name="three" format="1">
  <advance width="1090"/>
  <unicode hex="0033"/>
  <outline>
    <contour>
      <point x="444" y="-59" type="curve" smooth="yes"/>
      <point x="815" y="-59" type="line" smooth="yes"/>
      <point x="845" y="-59"/>
      <point x="864" y="-42"/>
      <point x="872" y="-20" type="curve"/>
      <point x="990" y="0" type="line" smooth="yes"/>
      <point x="1027" y="7"/>
      <point x="1048" y="41"/>
      <point x="1037" y="76" type="curve" smooth="yes"/>
      <point x="996" y="218" type="line" smooth="yes"/>
      <point x="991" y="235"/>
      <point x="973" y="253"/>
      <point x="957" y="258" type="curve" smooth="yes"/>
      <point x="777" y="316" type="line"/>
      <point x="787" y="330" type="line" smooth="yes"/>
      <point x="789" y="334"/>
      <point x="791" y="337"/>
      <point x="793" y="341" type="curve"/>
      <point x="806" y="341" type="line" smooth="yes"/>
      <point x="813" y="341"/>
      <point x="824" y="343"/>
      <point x="831" y="346" type="curve" smooth="yes"/>
      <point x="910" y="382" type="line" smooth="yes"/>
      <point x="947" y="399"/>
      <point x="958" y="441"/>
      <point x="934" y="473" type="curve" smooth="yes"/>
      <point x="886" y="537" type="line"/>
      <point x="886" y="606" type="line"/>
      <point x="874" y="748" type="line" smooth="yes"/>
      <point x="872" y="769"/>
      <point x="854" y="792"/>
      <point x="834" y="799" type="curve" smooth="yes"/>
      <point x="686" y="851" type="line" smooth="yes"/>
      <point x="685" y="851"/>
      <point x="683" y="852"/>
      <point x="682" y="852" type="curve" smooth="yes"/>
      <point x="655" y="859" type="line" smooth="yes"/>
      <point x="651" y="860"/>
      <point x="644" y="861"/>
      <point x="640" y="861" type="curve" smooth="yes"/>
      <point x="530" y="861" type="line" smooth="yes"/>
      <point x="528" y="861"/>
      <point x="524" y="861"/>
      <point x="522" y="860" type="curve" smooth="yes"/>
      <point x="261" y="824" type="line" smooth="yes"/>
      <point x="207" y="817"/>
      <point x="189" y="760"/>
      <point x="227" y="722" type="curve" smooth="yes"/>
      <point x="310" y="641" type="line"/>
      <point x="397" y="558" type="line" smooth="yes"/>
      <point x="421" y="535"/>
      <point x="460" y="536"/>
      <point x="482" y="559" type="curve" smooth="yes"/>
      <point x="505" y="583"/>
      <point x="504" y="622"/>
      <point x="481" y="644" type="curve" smooth="yes"/>
      <point x="399" y="722" type="line"/>
      <point x="534" y="741" type="line"/>
      <point x="632" y="741" type="line"/>
      <point x="649" y="737" type="line"/>
      <point x="757" y="699" type="line"/>
      <point x="766" y="596" type="line"/>
      <point x="766" y="518" type="line"/>
      <point x="766" y="507"/>
      <point x="771" y="491"/>
      <point x="778" y="482" type="curve" smooth="yes"/>
      <point x="793" y="461" type="line"/>
      <point x="793" y="461" type="line"/>
      <point x="399" y="461" type="line"/>
      <point x="399" y="341" type="line"/>
      <point x="479" y="341" type="line"/>
      <point x="632" y="319" type="line"/>
      <point x="632" y="319" type="line" smooth="yes"/>
      <point x="607" y="284"/>
      <point x="622" y="241"/>
      <point x="663" y="227" type="curve" smooth="yes"/>
      <point x="889" y="154" type="line"/>
      <point x="903" y="107" type="line"/>
      <point x="675" y="67" type="line" smooth="yes"/>
      <point x="668" y="66"/>
      <point x="662" y="64"/>
      <point x="656" y="61" type="curve"/>
      <point x="456" y="61" type="line"/>
      <point x="380" y="92" type="line"/>
      <point x="200" y="165" type="line"/>
      <point x="162" y="231" type="line" smooth="yes"/>
      <point x="146" y="259"/>
      <point x="108" y="269"/>
      <point x="80" y="253" type="curve" smooth="yes"/>
      <point x="52" y="237"/>
      <point x="42" y="199"/>
      <point x="58" y="171" type="curve" smooth="yes"/>
      <point x="106" y="88" type="line" smooth="yes"/>
      <point x="112" y="78"/>
      <point x="125" y="66"/>
      <point x="135" y="62" type="curve" smooth="yes"/>
      <point x="334" y="-18" type="line"/>
      <point x="421" y="-54" type="line" smooth="yes"/>
      <point x="427" y="-57"/>
      <point x="437" y="-59"/>
    </contour>
  </outline>
</glyph>
<glyph name="four" format="1">
  <advance width="1189"/>
  <unicode hex="0034"/>
  <outline>
    <contour>
      <point x="850" y="-32" type="curve" smooth="yes"/>
      <point x="904" y="50" type="line"/>
      <point x="922" y="38"/>
      <point x="948" y="37"/>
      <point x="968" y="48" type="curve" smooth="yes"/>
      <point x="1109" y="132" type="line" smooth="yes"/>
      <point x="1144" y="153"/>
      <point x="1150" y="197"/>
      <point x="1120" y="226" type="curve" smooth="yes"/>
      <point x="1039" y="307" type="line" smooth="yes"/>
      <point x="1030" y="315"/>
      <point x="1013" y="323"/>
      <point x="1001" y="324" type="curve" smooth="yes"/>
      <point x="971" y="326" type="line"/>
      <point x="1036" y="342" type="line" smooth="yes"/>
      <point x="1070" y="350"/>
      <point x="1089" y="384"/>
      <point x="1080" y="417" type="curve" smooth="yes"/>
      <point x="1051" y="517" type="line" smooth="yes"/>
      <point x="1050" y="519"/>
      <point x="1049" y="521"/>
      <point x="1049" y="523" type="curve" smooth="yes"/>
      <point x="1008" y="623" type="line" smooth="yes"/>
      <point x="995" y="653"/>
      <point x="959" y="668"/>
      <point x="929" y="656" type="curve" smooth="yes"/>
      <point x="899" y="643"/>
      <point x="884" y="607"/>
      <point x="896" y="577" type="curve" smooth="yes"/>
      <point x="936" y="480" type="line"/>
      <point x="947" y="444" type="line"/>
      <point x="604" y="360" type="line"/>
      <point x="279" y="360" type="line"/>
      <point x="487" y="408" type="line" smooth="yes"/>
      <point x="501" y="411"/>
      <point x="518" y="424"/>
      <point x="525" y="436" type="curve" smooth="yes"/>
      <point x="567" y="505" type="line"/>
      <point x="710" y="580" type="line" smooth="yes"/>
      <point x="718" y="585"/>
      <point x="729" y="595"/>
      <point x="734" y="603" type="curve" smooth="yes"/>
      <point x="782" y="687" type="line" smooth="yes"/>
      <point x="799" y="716"/>
      <point x="788" y="753"/>
      <point x="759" y="769" type="curve" smooth="yes"/>
      <point x="606" y="853" type="line" smooth="yes"/>
      <point x="577" y="868"/>
      <point x="540" y="857"/>
      <point x="524" y="829" type="curve" smooth="yes"/>
      <point x="509" y="800"/>
      <point x="520" y="763"/>
      <point x="548" y="747" type="curve" smooth="yes"/>
      <point x="647" y="693" type="line"/>
      <point x="639" y="678" type="line"/>
      <point x="496" y="603" type="line" smooth="yes"/>
      <point x="488" y="599"/>
      <point x="477" y="589"/>
      <point x="473" y="581" type="curve" smooth="yes"/>
      <point x="436" y="519" type="line"/>
      <point x="100" y="442" type="line" smooth="yes"/>
      <point x="43" y="429"/>
      <point x="32" y="364"/>
      <point x="81" y="333" type="curve" smooth="yes"/>
      <point x="211" y="249" type="line" smooth="yes"/>
      <point x="219" y="244"/>
      <point x="233" y="240"/>
      <point x="243" y="240" type="curve" smooth="yes"/>
      <point x="544" y="240" type="line"/>
      <point x="635" y="233" type="line"/>
      <point x="861" y="174" type="line"/>
      <point x="828" y="148" type="line" smooth="yes"/>
      <point x="824" y="145"/>
      <point x="818" y="138"/>
      <point x="815" y="134" type="curve" smooth="yes"/>
      <point x="750" y="34" type="line" smooth="yes"/>
      <point x="732" y="7"/>
      <point x="740" y="-32"/>
      <point x="767" y="-49" type="curve" smooth="yes"/>
      <point x="794" y="-67"/>
      <point x="833" y="-59"/>
    </contour>
  </outline>
</glyph>
<glyph name="five" format="1">
  <advance width="1102"/>
  <unicode hex="0035"/>
  <outline>
    <contour>
      <point x="675" y="-59" type="line"/>
      <point x="675" y="-56" type="line"/>
      <point x="977" y="-52" type="line" smooth="yes"/>
      <point x="1053" y="-51"/>
      <point x="1060" y="56"/>
      <point x="986" y="67" type="curve" smooth="yes"/>
      <point x="832" y="91" type="line"/>
      <point x="937" y="148" type="line" smooth="yes"/>
      <point x="966" y="164"/>
      <point x="976" y="200"/>
      <point x="961" y="229" type="curve" smooth="yes"/>
      <point x="942" y="264" type="line"/>
      <point x="1021" y="314" type="line" smooth="yes"/>
      <point x="1073" y="348"/>
      <point x="1056" y="419"/>
      <point x="994" y="425" type="curve" smooth="yes"/>
      <point x="636" y="458" type="line"/>
      <point x="636" y="461" type="line"/>
      <point x="393" y="461" type="line"/>
      <point x="218" y="547" type="line"/>
      <point x="172" y="619" type="line"/>
      <point x="171" y="639" type="line"/>
      <point x="419" y="707" type="line" smooth="yes"/>
      <point x="422" y="708"/>
      <point x="425" y="709"/>
      <point x="428" y="710" type="curve" smooth="yes"/>
      <point x="498" y="741" type="line"/>
      <point x="882" y="741" type="line" smooth="yes"/>
      <point x="914" y="741"/>
      <point x="942" y="769"/>
      <point x="942" y="801" type="curve" smooth="yes"/>
      <point x="942" y="833"/>
      <point x="914" y="861"/>
      <point x="882" y="861" type="curve" smooth="yes"/>
      <point x="485" y="861" type="line" smooth="yes"/>
      <point x="478" y="861"/>
      <point x="467" y="859"/>
      <point x="461" y="856" type="curve" smooth="yes"/>
      <point x="383" y="822" type="line"/>
      <point x="94" y="742" type="line" smooth="yes"/>
      <point x="69" y="735"/>
      <point x="49" y="709"/>
      <point x="50" y="683" type="curve" smooth="yes"/>
      <point x="52" y="600" type="line" smooth="yes"/>
      <point x="52" y="590"/>
      <point x="56" y="576"/>
      <point x="61" y="569" type="curve" smooth="yes"/>
      <point x="125" y="469" type="line" smooth="yes"/>
      <point x="130" y="461"/>
      <point x="141" y="451"/>
      <point x="149" y="447" type="curve" smooth="yes"/>
      <point x="279" y="383" type="line"/>
      <point x="279" y="341" type="line"/>
      <point x="600" y="341" type="line"/>
      <point x="816" y="321" type="line"/>
      <point x="802" y="303"/>
      <point x="799" y="277"/>
      <point x="810" y="256" type="curve" smooth="yes"/>
      <point x="827" y="225" type="line"/>
      <point x="620" y="112" type="line" smooth="yes"/>
      <point x="599" y="100"/>
      <point x="588" y="82"/>
      <point x="586" y="63" type="curve"/>
      <point x="438" y="61" type="line"/>
      <point x="361" y="61" type="line"/>
      <point x="355" y="74"/>
      <point x="345" y="85"/>
      <point x="331" y="92" type="curve" smooth="yes"/>
      <point x="312" y="100" type="line"/>
      <point x="485" y="143" type="line" smooth="yes"/>
      <point x="517" y="150"/>
      <point x="537" y="184"/>
      <point x="529" y="215" type="curve" smooth="yes"/>
      <point x="522" y="247"/>
      <point x="488" y="267"/>
      <point x="457" y="259" type="curve" smooth="yes"/>
      <point x="117" y="176" type="line" smooth="yes"/>
      <point x="57" y="161"/>
      <point x="50" y="89"/>
      <point x="106" y="63" type="curve" smooth="yes"/>
      <point x="233" y="5" type="line"/>
      <point x="229" y="-30"/>
      <point x="254" y="-59"/>
      <point x="293" y="-59" type="curve" smooth="yes"/>
    </contour>
  </outline>
</glyph>
<glyph name="six" format="1">
  <advance width="1093"/>
  <unicode hex="0036"/>
  <outline>
    <contour>
      <point x="674" y="-48" type="curve" smooth="yes"/>
      <point x="755" y="11" type="line" smooth="yes"/>
      <point x="764" y="17"/>
      <point x="774" y="31"/>
      <point x="777" y="42" type="curve" smooth="yes"/>
      <point x="819" y="184" type="line"/>
      <point x="837" y="241" type="line"/>
      <point x="996" y="310" type="line" smooth="yes"/>
      <point x="1050" y="334"/>
      <point x="1047" y="402"/>
      <point x="991" y="422" type="curve" smooth="yes"/>
      <point x="885" y="458" type="line" smooth="yes"/>
      <point x="880" y="460"/>
      <point x="872" y="461"/>
      <point x="866" y="461" type="curve" smooth="yes"/>
      <point x="502" y="461" type="line"/>
      <point x="452" y="498" type="line"/>
      <point x="531" y="551" type="line" smooth="yes"/>
      <point x="570" y="578"/>
      <point x="568" y="628"/>
      <point x="528" y="652" type="curve" smooth="yes"/>
      <point x="392" y="734" type="line"/>
      <point x="429" y="741" type="line"/>
      <point x="637" y="741" type="line"/>
      <point x="737" y="734" type="line"/>
      <point x="800" y="721" type="line"/>
      <point x="667" y="655" type="line" smooth="yes"/>
      <point x="638" y="640"/>
      <point x="626" y="603"/>
      <point x="640" y="574" type="curve" smooth="yes"/>
      <point x="655" y="545"/>
      <point x="692" y="533"/>
      <point x="721" y="547" type="curve" smooth="yes"/>
      <point x="1006" y="689" type="line" smooth="yes"/>
      <point x="1061" y="716"/>
      <point x="1052" y="788"/>
      <point x="992" y="801" type="curve" smooth="yes"/>
      <point x="758" y="853" type="line" smooth="yes"/>
      <point x="756" y="853"/>
      <point x="752" y="854"/>
      <point x="749" y="854" type="curve" smooth="yes"/>
      <point x="643" y="861" type="line" smooth="yes"/>
      <point x="642" y="861"/>
      <point x="640" y="861"/>
      <point x="639" y="861" type="curve" smooth="yes"/>
      <point x="424" y="861" type="line" smooth="yes"/>
      <point x="421" y="861"/>
      <point x="416" y="861"/>
      <point x="413" y="860" type="curve" smooth="yes"/>
      <point x="216" y="824" type="line" smooth="yes"/>
      <point x="157" y="813"/>
      <point x="144" y="745"/>
      <point x="195" y="714" type="curve" smooth="yes"/>
      <point x="289" y="656" type="line"/>
      <point x="275" y="650"/>
      <point x="263" y="639"/>
      <point x="257" y="625" type="curve" smooth="yes"/>
      <point x="221" y="541" type="line" smooth="yes"/>
      <point x="219" y="537"/>
      <point x="217" y="528"/>
      <point x="216" y="523" type="curve" smooth="yes"/>
      <point x="209" y="443" type="line" smooth="yes"/>
      <point x="207" y="426"/>
      <point x="215" y="407"/>
      <point x="227" y="394" type="curve"/>
      <point x="97" y="359" type="line" smooth="yes"/>
      <point x="40" y="343"/>
      <point x="33" y="276"/>
      <point x="85" y="248" type="curve" smooth="yes"/>
      <point x="202" y="185" type="line"/>
      <point x="177" y="159" type="line" smooth="yes"/>
      <point x="145" y="124"/>
      <point x="157" y="76"/>
      <point x="202" y="61" type="curve" smooth="yes"/>
      <point x="440" y="-20" type="line" smooth="yes"/>
      <point x="442" y="-20"/>
      <point x="445" y="-21"/>
      <point x="448" y="-22" type="curve" smooth="yes"/>
      <point x="627" y="-58" type="line" smooth="yes"/>
      <point x="641" y="-61"/>
      <point x="662" y="-56"/>
    </contour>
    <contour>
      <point x="370" y="588" type="line"/>
      <point x="372" y="594"/>
      <point x="372" y="600"/>
      <point x="371" y="606" type="curve"/>
      <point x="385" y="598" type="line"/>
    </contour>
    <contour>
      <point x="343" y="160" type="line" smooth="yes"/>
      <point x="371" y="190"/>
      <point x="364" y="234"/>
      <point x="327" y="254" type="curve" smooth="yes"/>
      <point x="274" y="282" type="line"/>
      <point x="490" y="341" type="line"/>
      <point x="767" y="341" type="line"/>
      <point x="763" y="339" type="line" smooth="yes"/>
      <point x="749" y="333"/>
      <point x="734" y="316"/>
      <point x="730" y="302" type="curve" smooth="yes"/>
      <point x="705" y="218" type="line"/>
      <point x="668" y="96" type="line"/>
      <point x="625" y="65" type="line"/>
      <point x="475" y="95" type="line"/>
      <point x="328" y="145" type="line"/>
    </contour>
  </outline>
</glyph>
<glyph name="seven" format="1">
  <advance width="957"/>
  <unicode hex="0037"/>
  <outline>
    <contour>
      <point x="131" y="-62" type="curve" smooth="yes"/>
      <point x="163" y="-57"/>
      <point x="186" y="-26"/>
      <point x="181" y="6" type="curve" smooth="yes"/>
      <point x="174" y="54" type="line"/>
      <point x="260" y="113" type="line"/>
      <point x="608" y="196" type="line" smooth="yes"/>
      <point x="670" y="211"/>
      <point x="675" y="288"/>
      <point x="615" y="310" type="curve" smooth="yes"/>
      <point x="450" y="373" type="line"/>
      <point x="450" y="374" type="line"/>
      <point x="787" y="453" type="line" smooth="yes"/>
      <point x="797" y="455"/>
      <point x="812" y="464"/>
      <point x="819" y="473" type="curve" smooth="yes"/>
      <point x="891" y="558" type="line" smooth="yes"/>
      <point x="922" y="596"/>
      <point x="905" y="645"/>
      <point x="858" y="656" type="curve" smooth="yes"/>
      <point x="530" y="725" type="line"/>
      <point x="565" y="744" type="line" smooth="yes"/>
      <point x="623" y="776"/>
      <point x="603" y="857"/>
      <point x="536" y="857" type="curve" smooth="yes"/>
      <point x="80" y="857" type="line"/>
      <point x="80" y="737" type="line"/>
      <point x="404" y="737" type="line"/>
      <point x="395" y="692" type="line" smooth="yes"/>
      <point x="389" y="660"/>
      <point x="410" y="629"/>
      <point x="442" y="622" type="curve" smooth="yes"/>
      <point x="724" y="561" type="line"/>
      <point x="395" y="484" type="line" smooth="yes"/>
      <point x="380" y="480"/>
      <point x="362" y="466"/>
      <point x="355" y="452" type="curve" smooth="yes"/>
      <point x="312" y="367" type="line" smooth="yes"/>
      <point x="296" y="334"/>
      <point x="311" y="297"/>
      <point x="345" y="284" type="curve" smooth="yes"/>
      <point x="389" y="267" type="line"/>
      <point x="221" y="227" type="line" smooth="yes"/>
      <point x="215" y="225"/>
      <point x="206" y="221"/>
      <point x="201" y="218" type="curve" smooth="yes"/>
      <point x="75" y="132" type="line" smooth="yes"/>
      <point x="58" y="121"/>
      <point x="47" y="94"/>
      <point x="50" y="74" type="curve" smooth="yes"/>
      <point x="63" y="-12" type="line" smooth="yes"/>
      <point x="68" y="-44"/>
      <point x="99" y="-67"/>
    </contour>
  </outline>
</glyph>
<glyph name="eight" format="1">
  <advance width="1158"/>
  <unicode hex="0038"/>
  <outline>
    <contour>
      <point x="329" y="-60" type="curve" smooth="yes"/>
      <point x="834" y="-60" type="line" smooth="yes"/>
      <point x="877" y="-60"/>
      <point x="904" y="-23"/>
      <point x="891" y="18" type="curve" smooth="yes"/>
      <point x="873" y="76" type="line" smooth="yes"/>
      <point x="870" y="86"/>
      <point x="862" y="98"/>
      <point x="854" y="105" type="curve" smooth="yes"/>
      <point x="737" y="200" type="line"/>
      <point x="782" y="237" type="line" smooth="yes"/>
      <point x="818" y="267"/>
      <point x="813" y="316"/>
      <point x="771" y="337" type="curve" smooth="yes"/>
      <point x="761" y="342" type="line"/>
      <point x="778" y="347"/>
      <point x="792" y="359"/>
      <point x="799" y="375" type="curve"/>
      <point x="1003" y="399" type="line" smooth="yes"/>
      <point x="1023" y="401"/>
      <point x="1045" y="419"/>
      <point x="1052" y="438" type="curve" smooth="yes"/>
      <point x="1104" y="579" type="line" smooth="yes"/>
      <point x="1117" y="615"/>
      <point x="1098" y="650"/>
      <point x="1061" y="659" type="curve" smooth="yes"/>
      <point x="698" y="739" type="line"/>
      <point x="596" y="813" type="line" smooth="yes"/>
      <point x="594" y="814"/>
      <point x="591" y="816"/>
      <point x="590" y="817" type="curve" smooth="yes"/>
      <point x="524" y="853" type="line" smooth="yes"/>
      <point x="515" y="857"/>
      <point x="499" y="861"/>
      <point x="489" y="860" type="curve" smooth="yes"/>
      <point x="416" y="853" type="line" smooth="yes"/>
      <point x="409" y="852"/>
      <point x="398" y="849"/>
      <point x="392" y="845" type="curve" smooth="yes"/>
      <point x="301" y="794" type="line" smooth="yes"/>
      <point x="275" y="779"/>
      <point x="263" y="745"/>
      <point x="275" y="718" type="curve" smooth="yes"/>
      <point x="336" y="576" type="line" smooth="yes"/>
      <point x="337" y="574"/>
      <point x="339" y="570"/>
      <point x="340" y="568" type="curve" smooth="yes"/>
      <point x="348" y="555" type="line"/>
      <point x="99" y="494" type="line" smooth="yes"/>
      <point x="39" y="480"/>
      <point x="32" y="408"/>
      <point x="88" y="382" type="curve" smooth="yes"/>
      <point x="164" y="346" type="line" smooth="yes"/>
      <point x="171" y="343"/>
      <point x="183" y="340"/>
      <point x="190" y="340" type="curve" smooth="yes"/>
      <point x="262" y="340" type="line"/>
      <point x="247" y="215" type="line"/>
      <point x="221" y="150" type="line"/>
      <point x="153" y="77" type="line" smooth="yes"/>
      <point x="119" y="41"/>
      <point x="133" y="-9"/>
      <point x="181" y="-22" type="curve" smooth="yes"/>
      <point x="313" y="-58" type="line" smooth="yes"/>
      <point x="318" y="-59"/>
      <point x="325" y="-60"/>
    </contour>
    <contour>
      <point x="495" y="549" type="curve" smooth="yes"/>
      <point x="444" y="628" type="line"/>
      <point x="407" y="716" type="line"/>
      <point x="440" y="735" type="line"/>
      <point x="482" y="739" type="line"/>
      <point x="529" y="713" type="line"/>
      <point x="638" y="635" type="line" smooth="yes"/>
      <point x="644" y="631"/>
      <point x="653" y="626"/>
      <point x="660" y="625" type="curve" smooth="yes"/>
      <point x="968" y="556" type="line"/>
      <point x="952" y="514" type="line"/>
      <point x="545" y="467" type="line" smooth="yes"/>
      <point x="536" y="466"/>
      <point x="528" y="463"/>
      <point x="522" y="460" type="curve"/>
      <point x="464" y="460" type="line"/>
      <point x="502" y="473"/>
      <point x="517" y="513"/>
    </contour>
    <contour>
      <point x="316" y="76" type="line" smooth="yes"/>
      <point x="320" y="80"/>
      <point x="325" y="88"/>
      <point x="328" y="94" type="curve" smooth="yes"/>
      <point x="362" y="177" type="line" smooth="yes"/>
      <point x="363" y="182"/>
      <point x="365" y="189"/>
      <point x="366" y="193" type="curve" smooth="yes"/>
      <point x="381" y="326" type="line"/>
      <point x="384" y="334" type="line"/>
      <point x="527" y="337" type="line"/>
      <point x="533" y="326"/>
      <point x="543" y="317"/>
      <point x="556" y="310" type="curve" smooth="yes"/>
      <point x="635" y="271" type="line"/>
      <point x="605" y="246" type="line" smooth="yes"/>
      <point x="574" y="221"/>
      <point x="574" y="179"/>
      <point x="605" y="154" type="curve" smooth="yes"/>
      <point x="719" y="60" type="line"/>
      <point x="337" y="60" type="line"/>
      <point x="308" y="68" type="line"/>
    </contour>
  </outline>
</glyph>
<glyph name="nine" format="1">
  <advance width="1236"/>
  <unicode hex="0039"/>
  <outline>
    <contour>
      <point x="687" y="456" type="line" smooth="yes"/>
      <point x="681" y="458"/>
      <point x="671" y="460"/>
      <point x="665" y="460" type="curve" smooth="yes"/>
      <point x="620" y="460" type="line"/>
      <point x="605" y="529" type="line" smooth="yes"/>
      <point x="600" y="551"/>
      <point x="579" y="571"/>
      <point x="557" y="576" type="curve" smooth="yes"/>
      <point x="246" y="635" type="line"/>
      <point x="314" y="693" type="line"/>
      <point x="376" y="734" type="line"/>
      <point x="528" y="740" type="line"/>
      <point x="568" y="740" type="line"/>
      <point x="741" y="740" type="line"/>
      <point x="746" y="730"/>
      <point x="754" y="721"/>
      <point x="764" y="714" type="curve" smooth="yes"/>
      <point x="883" y="634" type="line"/>
      <point x="998" y="562" type="line"/>
      <point x="1018" y="485" type="line" smooth="yes"/>
      <point x="1019" y="481"/>
      <point x="1021" y="476"/>
      <point x="1023" y="473" type="curve" smooth="yes"/>
      <point x="1061" y="397" type="line"/>
      <point x="1044" y="355" type="line"/>
      <point x="775" y="421" type="line"/>
    </contour>
    <contour>
      <point x="420" y="-60" type="curve" smooth="yes"/>
      <point x="610" y="-60" type="line" smooth="yes"/>
      <point x="613" y="-60"/>
      <point x="617" y="-60"/>
      <point x="620" y="-59" type="curve" smooth="yes"/>
      <point x="839" y="-23" type="line" smooth="yes"/>
      <point x="898" y="-13"/>
      <point x="912" y="55"/>
      <point x="862" y="87" type="curve" smooth="yes"/>
      <point x="855" y="91" type="line"/>
      <point x="1068" y="142" type="line" smooth="yes"/>
      <point x="1073" y="143"/>
      <point x="1079" y="145"/>
      <point x="1084" y="149" type="curve"/>
      <point x="1099" y="140"/>
      <point x="1117" y="137"/>
      <point x="1134" y="144" type="curve" smooth="yes"/>
      <point x="1165" y="154"/>
      <point x="1181" y="190"/>
      <point x="1170" y="220" type="curve" smooth="yes"/>
      <point x="1146" y="287" type="line"/>
      <point x="1183" y="378" type="line" smooth="yes"/>
      <point x="1188" y="392"/>
      <point x="1187" y="414"/>
      <point x="1180" y="427" type="curve" smooth="yes"/>
      <point x="1132" y="521" type="line"/>
      <point x="1108" y="615" type="line" smooth="yes"/>
      <point x="1105" y="628"/>
      <point x="1093" y="644"/>
      <point x="1082" y="651" type="curve" smooth="yes"/>
      <point x="951" y="733" type="line"/>
      <point x="900" y="768" type="line"/>
      <point x="927" y="806"/>
      <point x="903" y="860"/>
      <point x="848" y="860" type="curve" smooth="yes"/>
      <point x="568" y="860" type="line"/>
      <point x="524" y="860" type="line"/>
      <point x="355" y="853" type="line" smooth="yes"/>
      <point x="346" y="853"/>
      <point x="333" y="848"/>
      <point x="325" y="843" type="curve" smooth="yes"/>
      <point x="245" y="792" type="line" smooth="yes"/>
      <point x="244" y="791"/>
      <point x="241" y="789"/>
      <point x="239" y="787" type="curve" smooth="yes"/>
      <point x="74" y="646" type="line" smooth="yes"/>
      <point x="32" y="610"/>
      <point x="48" y="551"/>
      <point x="102" y="541" type="curve" smooth="yes"/>
      <point x="429" y="478" type="line"/>
      <point x="294" y="459" type="line" smooth="yes"/>
      <point x="218" y="449"/>
      <point x="226" y="340"/>
      <point x="302" y="340" type="curve" smooth="yes"/>
      <point x="654" y="340" type="line"/>
      <point x="735" y="308" type="line" smooth="yes"/>
      <point x="737" y="307"/>
      <point x="740" y="306"/>
      <point x="742" y="306" type="curve" smooth="yes"/>
      <point x="986" y="246" type="line"/>
      <point x="689" y="175" type="line" smooth="yes"/>
      <point x="635" y="162"/>
      <point x="623" y="102"/>
      <point x="665" y="70" type="curve"/>
      <point x="605" y="60" type="line"/>
      <point x="492" y="60" type="line"/>
      <point x="489" y="62"/>
      <point x="485" y="63"/>
      <point x="480" y="65" type="curve" smooth="yes"/>
      <point x="322" y="111" type="line"/>
      <point x="213" y="239" type="line" smooth="yes"/>
      <point x="192" y="264"/>
      <point x="153" y="267"/>
      <point x="128" y="246" type="curve" smooth="yes"/>
      <point x="103" y="225"/>
      <point x="100" y="186"/>
      <point x="121" y="161" type="curve" smooth="yes"/>
      <point x="242" y="19" type="line" smooth="yes"/>
      <point x="249" y="12"/>
      <point x="262" y="4"/>
      <point x="271" y="1" type="curve" smooth="yes"/>
      <point x="365" y="-27" type="line"/>
      <point x="373" y="-46"/>
      <point x="392" y="-60"/>
    </contour>
  </outline>
</glyph>
<glyph name="colon" format="1">
  <advance width="618"/>
  <unicode hex="003A"/>
  <outline>
    <contour>
      <point x="568" y="582" type="curve" smooth="yes"/>
      <point x="569" y="614"/>
      <point x="542" y="642"/>
      <point x="509" y="643" type="curve" smooth="yes"/>
      <point x="111" y="652" type="line" smooth="yes"/>
      <point x="79" y="653"/>
      <point x="51" y="626"/>
      <point x="50" y="593" type="curve" smooth="yes"/>
      <point x="49" y="561"/>
      <point x="76" y="533"/>
      <point x="109" y="532" type="curve" smooth="yes"/>
      <point x="507" y="523" type="line" smooth="yes"/>
      <point x="539" y="522"/>
      <point x="567" y="549"/>
    </contour>
    <contour>
      <point x="368" y="0" type="curve" smooth="yes"/>
      <point x="369" y="32"/>
      <point x="342" y="60"/>
      <point x="309" y="61" type="curve" smooth="yes"/>
      <point x="148" y="65" type="line" smooth="yes"/>
      <point x="116" y="66"/>
      <point x="88" y="39"/>
      <point x="87" y="6" type="curve" smooth="yes"/>
      <point x="86" y="-26"/>
      <point x="113" y="-54"/>
      <point x="146" y="-55" type="curve" smooth="yes"/>
      <point x="307" y="-59" type="line" smooth="yes"/>
      <point x="339" y="-60"/>
      <point x="367" y="-33"/>
    </contour>
  </outline>
</glyph>
<glyph name="semicolon" format="1">
  <advance width="500"/>
  <unicode hex="003B"/>
  <outline>
    <contour>
      <point x="286" y="578" type="curve" smooth="yes"/>
      <point x="288" y="611"/>
      <point x="263" y="640"/>
      <point x="231" y="643" type="curve" smooth="yes"/>
      <point x="115" y="652" type="line" smooth="yes"/>
      <point x="82" y="654"/>
      <point x="53" y="629"/>
      <point x="50" y="597" type="curve" smooth="yes"/>
      <point x="48" y="564"/>
      <point x="73" y="535"/>
      <point x="105" y="532" type="curve" smooth="yes"/>
      <point x="221" y="523" type="line" smooth="yes"/>
      <point x="254" y="521"/>
      <point x="283" y="546"/>
    </contour>
    <contour>
      <point x="205" y="-68" type="curve" smooth="yes"/>
      <point x="303" y="-68" type="line" smooth="yes"/>
      <point x="366" y="-68"/>
      <point x="389" y="5"/>
      <point x="337" y="41" type="curve" smooth="yes"/>
      <point x="282" y="80" type="line"/>
      <point x="414" y="137" type="line" smooth="yes"/>
      <point x="444" y="150"/>
      <point x="458" y="186"/>
      <point x="445" y="216" type="curve" smooth="yes"/>
      <point x="432" y="246"/>
      <point x="396" y="260"/>
      <point x="366" y="247" type="curve" smooth="yes"/>
      <point x="136" y="147" type="line" smooth="yes"/>
      <point x="89" y="127"/>
      <point x="84" y="72"/>
      <point x="126" y="43" type="curve" smooth="yes"/>
      <point x="154" y="23" type="line"/>
      <point x="148" y="14"/>
      <point x="145" y="3"/>
      <point x="145" y="-8" type="curve" smooth="yes"/>
      <point x="145" y="-40"/>
      <point x="173" y="-68"/>
    </contour>
  </outline>
</glyph>
<glyph name="less" format="1">
  <advance width="859"/>
  <unicode hex="003C"/>
  <outline>
    <contour>
      <point x="420" y="44" type="curve" smooth="yes"/>
      <point x="697" y="94" type="line" smooth="yes"/>
      <point x="768" y="107"/>
      <point x="764" y="206"/>
      <point x="692" y="213" type="curve" smooth="yes"/>
      <point x="279" y="251" type="line"/>
      <point x="288" y="261" type="line" smooth="yes"/>
      <point x="307" y="279"/>
      <point x="312" y="302"/>
      <point x="305" y="322" type="curve"/>
      <point x="444" y="344" type="line"/>
      <point x="742" y="394" type="line" smooth="yes"/>
      <point x="761" y="397"/>
      <point x="782" y="415"/>
      <point x="789" y="434" type="curve" smooth="yes"/>
      <point x="806" y="484" type="line" smooth="yes"/>
      <point x="816" y="514"/>
      <point x="799" y="549"/>
      <point x="768" y="560" type="curve" smooth="yes"/>
      <point x="738" y="570"/>
      <point x="703" y="553"/>
      <point x="692" y="522" type="curve" smooth="yes"/>
      <point x="687" y="506" type="line"/>
      <point x="424" y="462" type="line"/>
      <point x="104" y="412" type="line" smooth="yes"/>
      <point x="38" y="402"/>
      <point x="30" y="320"/>
      <point x="92" y="297" type="curve" smooth="yes"/>
      <point x="137" y="280" type="line"/>
      <point x="102" y="246" type="line" smooth="yes"/>
      <point x="62" y="207"/>
      <point x="83" y="148"/>
      <point x="138" y="143" type="curve" smooth="yes"/>
      <point x="353" y="123" type="line"/>
      <point x="349" y="114"/>
      <point x="348" y="103"/>
      <point x="350" y="92" type="curve" smooth="yes"/>
      <point x="356" y="60"/>
      <point x="388" y="38"/>
    </contour>
  </outline>
</glyph>
<glyph name="equal" format="1">
  <advance width="996"/>
  <unicode hex="003D"/>
  <outline>
    <contour>
      <point x="946" y="378" type="line"/>
      <point x="946" y="498" type="line"/>
      <point x="110" y="498" type="line" smooth="yes"/>
      <point x="78" y="498"/>
      <point x="50" y="470"/>
      <point x="50" y="438" type="curve" smooth="yes"/>
      <point x="50" y="406"/>
      <point x="78" y="378"/>
      <point x="110" y="378" type="curve" smooth="yes"/>
    </contour>
    <contour>
      <point x="755" y="78" type="line" smooth="yes"/>
      <point x="787" y="78"/>
      <point x="815" y="106"/>
      <point x="815" y="138" type="curve" smooth="yes"/>
      <point x="815" y="170"/>
      <point x="787" y="198"/>
      <point x="755" y="198" type="curve" smooth="yes"/>
      <point x="177" y="198" type="line" smooth="yes"/>
      <point x="145" y="198"/>
      <point x="117" y="170"/>
      <point x="117" y="138" type="curve" smooth="yes"/>
      <point x="117" y="106"/>
      <point x="145" y="78"/>
      <point x="177" y="78" type="curve" smooth="yes"/>
    </contour>
  </outline>
</glyph>
<glyph name="greater" format="1">
  <advance width="809"/>
  <unicode hex="003E"/>
  <outline>
    <contour>
      <point x="285" y="86" type="curve" smooth="yes"/>
      <point x="292" y="97"/>
      <point x="295" y="110"/>
      <point x="295" y="122" type="curve"/>
      <point x="702" y="160" type="line" smooth="yes"/>
      <point x="773" y="167"/>
      <point x="779" y="264"/>
      <point x="708" y="279" type="curve" smooth="yes"/>
      <point x="596" y="303" type="line"/>
      <point x="597" y="304" type="line" smooth="yes"/>
      <point x="611" y="354" type="line" smooth="yes"/>
      <point x="621" y="389"/>
      <point x="599" y="423"/>
      <point x="563" y="429" type="curve" smooth="yes"/>
      <point x="427" y="451" type="line"/>
      <point x="496" y="461" type="line" smooth="yes"/>
      <point x="528" y="465"/>
      <point x="552" y="496"/>
      <point x="547" y="528" type="curve" smooth="yes"/>
      <point x="543" y="560"/>
      <point x="512" y="584"/>
      <point x="480" y="579" type="curve" smooth="yes"/>
      <point x="105" y="529" type="line" smooth="yes"/>
      <point x="39" y="521"/>
      <point x="29" y="437"/>
      <point x="92" y="414" type="curve" smooth="yes"/>
      <point x="225" y="364" type="line" smooth="yes"/>
      <point x="228" y="363"/>
      <point x="233" y="361"/>
      <point x="236" y="361" type="curve" smooth="yes"/>
      <point x="440" y="328" type="line"/>
      <point x="429" y="321" type="line" smooth="yes"/>
      <point x="402" y="303"/>
      <point x="393" y="276"/>
      <point x="400" y="253" type="curve"/>
      <point x="156" y="230" type="line" smooth="yes"/>
      <point x="96" y="224"/>
      <point x="78" y="155"/>
      <point x="128" y="120" type="curve" smooth="yes"/>
      <point x="201" y="70" type="line" smooth="yes"/>
      <point x="228" y="52"/>
      <point x="266" y="59"/>
    </contour>
  </outline>
</glyph>
<glyph name="question" format="1">
  <advance width="1037"/>
  <unicode hex="003F"/>
  <outline>
    <contour>
      <point x="389" y="173" type="curve" smooth="yes"/>
      <point x="403" y="202"/>
      <point x="391" y="239"/>
      <point x="362" y="254" type="curve" smooth="yes"/>
      <point x="272" y="298" type="line"/>
      <point x="363" y="341" type="line"/>
      <point x="736" y="346" type="line" smooth="yes"/>
      <point x="812" y="347"/>
      <point x="819" y="454"/>
      <point x="744" y="466" type="curve" smooth="yes"/>
      <point x="688" y="474" type="line"/>
      <point x="940" y="542" type="line" smooth="yes"/>
      <point x="1002" y="559"/>
      <point x="1004" y="639"/>
      <point x="941" y="657" type="curve" smooth="yes"/>
      <point x="709" y="728" type="line"/>
      <point x="709" y="764" type="line" smooth="yes"/>
      <point x="709" y="784"/>
      <point x="695" y="808"/>
      <point x="677" y="817" type="curve" smooth="yes"/>
      <point x="608" y="853" type="line" smooth="yes"/>
      <point x="601" y="857"/>
      <point x="588" y="860"/>
      <point x="580" y="860" type="curve" smooth="yes"/>
      <point x="374" y="860" type="line" smooth="yes"/>
      <point x="357" y="860"/>
      <point x="335" y="849"/>
      <point x="325" y="835" type="curve" smooth="yes"/>
      <point x="290" y="786" type="line"/>
      <point x="78" y="650" type="line" smooth="yes"/>
      <point x="50" y="632"/>
      <point x="42" y="594"/>
      <point x="59" y="567" type="curve" smooth="yes"/>
      <point x="77" y="539"/>
      <point x="115" y="531"/>
      <point x="142" y="548" type="curve" smooth="yes"/>
      <point x="365" y="691" type="line" smooth="yes"/>
      <point x="370" y="694"/>
      <point x="378" y="701"/>
      <point x="381" y="707" type="curve" smooth="yes"/>
      <point x="405" y="740" type="line"/>
      <point x="565" y="740" type="line"/>
      <point x="589" y="727" type="line"/>
      <point x="590" y="683" type="line" smooth="yes"/>
      <point x="590" y="659"/>
      <point x="609" y="633"/>
      <point x="632" y="626" type="curve" smooth="yes"/>
      <point x="706" y="603" type="line"/>
      <point x="381" y="516" type="line" smooth="yes"/>
      <point x="351" y="508"/>
      <point x="335" y="484"/>
      <point x="334" y="461" type="curve"/>
      <point x="228" y="459" type="line" smooth="yes"/>
      <point x="182" y="458"/>
      <point x="163" y="417"/>
      <point x="171" y="383" type="curve"/>
      <point x="109" y="354" type="line" smooth="yes"/>
      <point x="59" y="331"/>
      <point x="58" y="270"/>
      <point x="107" y="246" type="curve" smooth="yes"/>
      <point x="308" y="146" type="line" smooth="yes"/>
      <point x="337" y="132"/>
      <point x="374" y="144"/>
    </contour>
    <contour>
      <point x="486" y="-3" type="curve" smooth="yes"/>
      <point x="488" y="29"/>
      <point x="462" y="58"/>
      <point x="429" y="60" type="curve" smooth="yes"/>
      <point x="224" y="71" type="line" smooth="yes"/>
      <point x="192" y="73"/>
      <point x="163" y="47"/>
      <point x="161" y="14" type="curve" smooth="yes"/>
      <point x="159" y="-18"/>
      <point x="185" y="-47"/>
      <point x="218" y="-49" type="curve" smooth="yes"/>
      <point x="423" y="-60" type="line" smooth="yes"/>
      <point x="455" y="-62"/>
      <point x="484" y="-36"/>
    </contour>
  </outline>
</glyph>
<glyph name="at" format="1">
  <advance width="1249"/>
  <unicode hex="0040"/>
  <outline>
    <contour>
      <point x="523" y="-102" type="curve" smooth="yes"/>
      <point x="879" y="-102" type="line" smooth="yes"/>
      <point x="911" y="-102"/>
      <point x="939" y="-74"/>
      <point x="939" y="-42" type="curve" smooth="yes"/>
      <point x="939" y="-10"/>
      <point x="911" y="18"/>
      <point x="879" y="18" type="curve" smooth="yes"/>
      <point x="543" y="18" type="line"/>
      <point x="511" y="42" type="line" smooth="yes"/>
      <point x="508" y="45"/>
      <point x="502" y="48"/>
      <point x="498" y="49" type="curve" smooth="yes"/>
      <point x="310" y="129" type="line"/>
      <point x="226" y="175" type="line"/>
      <point x="266" y="219" type="line"/>
      <point x="356" y="320" type="line" smooth="yes"/>
      <point x="383" y="351"/>
      <point x="375" y="395"/>
      <point x="338" y="413" type="curve" smooth="yes"/>
      <point x="240" y="463" type="line"/>
      <point x="323" y="510" type="line" smooth="yes"/>
      <point x="370" y="536"/>
      <point x="368" y="594"/>
      <point x="319" y="616" type="curve" smooth="yes"/>
      <point x="291" y="629" type="line"/>
      <point x="418" y="665" type="line" smooth="yes"/>
      <point x="423" y="666"/>
      <point x="430" y="669"/>
      <point x="434" y="671" type="curve" smooth="yes"/>
      <point x="477" y="698" type="line"/>
      <point x="756" y="698" type="line"/>
      <point x="779" y="628" type="line"/>
      <point x="786" y="579" type="line"/>
      <point x="781" y="588" type="line" smooth="yes"/>
      <point x="764" y="616"/>
      <point x="727" y="626"/>
      <point x="699" y="610" type="curve" smooth="yes"/>
      <point x="671" y="593"/>
      <point x="661" y="556"/>
      <point x="677" y="528" type="curve" smooth="yes"/>
      <point x="679" y="524" type="line"/>
      <point x="459" y="411" type="line" smooth="yes"/>
      <point x="407" y="385"/>
      <point x="412" y="320"/>
      <point x="464" y="302" type="curve"/>
      <point x="349" y="267" type="line" smooth="yes"/>
      <point x="285" y="248"/>
      <point x="289" y="165"/>
      <point x="354" y="151" type="curve" smooth="yes"/>
      <point x="603" y="99" type="line" smooth="yes"/>
      <point x="611" y="97"/>
      <point x="619" y="97"/>
      <point x="626" y="98" type="curve"/>
      <point x="637" y="98"/>
      <point x="648" y="100"/>
      <point x="658" y="105" type="curve" smooth="yes"/>
      <point x="675" y="114" type="line"/>
      <point x="1143" y="157" type="line" smooth="yes"/>
      <point x="1194" y="162"/>
      <point x="1216" y="212"/>
      <point x="1186" y="253" type="curve" smooth="yes"/>
      <point x="1080" y="395" type="line" smooth="yes"/>
      <point x="1076" y="400"/>
      <point x="1068" y="407"/>
      <point x="1062" y="411" type="curve" smooth="yes"/>
      <point x="954" y="474" type="line"/>
      <point x="986" y="526" type="line" smooth="yes"/>
      <point x="1003" y="554"/>
      <point x="994" y="592"/>
      <point x="967" y="609" type="curve" smooth="yes"/>
      <point x="947" y="621"/>
      <point x="922" y="620"/>
      <point x="903" y="609" type="curve"/>
      <point x="897" y="650" type="line" smooth="yes"/>
      <point x="896" y="653"/>
      <point x="895" y="657"/>
      <point x="895" y="660" type="curve" smooth="yes"/>
      <point x="879" y="707" type="line"/>
      <point x="888" y="718" type="line" smooth="yes"/>
      <point x="927" y="760"/>
      <point x="901" y="818"/>
      <point x="844" y="818" type="curve" smooth="yes"/>
      <point x="460" y="818" type="line" smooth="yes"/>
      <point x="451" y="818"/>
      <point x="437" y="814"/>
      <point x="429" y="809" type="curve" smooth="yes"/>
      <point x="378" y="778" type="line"/>
      <point x="103" y="701" type="line" smooth="yes"/>
      <point x="44" y="685"/>
      <point x="39" y="615"/>
      <point x="93" y="589" type="curve" smooth="yes"/>
      <point x="162" y="557" type="line"/>
      <point x="84" y="513" type="line" smooth="yes"/>
      <point x="38" y="488"/>
      <point x="39" y="431"/>
      <point x="86" y="408" type="curve" smooth="yes"/>
      <point x="214" y="342" type="line"/>
      <point x="176" y="299" type="line"/>
      <point x="85" y="198" type="line" smooth="yes"/>
      <point x="58" y="168"/>
      <point x="65" y="125"/>
      <point x="101" y="105" type="curve" smooth="yes"/>
      <point x="256" y="22" type="line" smooth="yes"/>
      <point x="257" y="21"/>
      <point x="260" y="20"/>
      <point x="261" y="19" type="curve" smooth="yes"/>
      <point x="445" y="-58" type="line"/>
      <point x="487" y="-90" type="line" smooth="yes"/>
      <point x="496" y="-97"/>
      <point x="512" y="-102"/>
    </contour>
    <contour>
      <point x="714" y="404" type="line" smooth="yes"/>
      <point x="702" y="395"/>
      <point x="695" y="381"/>
      <point x="693" y="367" type="curve"/>
      <point x="654" y="377" type="line"/>
      <point x="723" y="412" type="line"/>
    </contour>
    <contour>
      <point x="870" y="292" type="curve" smooth="yes"/>
      <point x="832" y="347" type="line"/>
      <point x="875" y="382" type="line"/>
      <point x="991" y="313" type="line"/>
      <point x="1026" y="267" type="line"/>
      <point x="880" y="253" type="line"/>
      <point x="881" y="266"/>
      <point x="878" y="279"/>
    </contour>
  </outline>
</glyph>
<glyph name="A" format="1">
  <advance width="1183"/>
  <unicode hex="0041"/>
  <outline>
    <contour>
      <point x="466" y="454" type="line" smooth="yes"/>
      <point x="503" y="486"/>
      <point x="494" y="538"/>
      <point x="448" y="555" type="curve" smooth="yes"/>
      <point x="267" y="625" type="line"/>
      <point x="282" y="642" type="line" smooth="yes"/>
      <point x="302" y="665"/>
      <point x="302" y="696"/>
      <point x="285" y="718" type="curve"/>
      <point x="464" y="736" type="line"/>
      <point x="527" y="736" type="line"/>
      <point x="534" y="719"/>
      <point x="550" y="705"/>
      <point x="575" y="701" type="curve" smooth="yes"/>
      <point x="933" y="641" type="line"/>
      <point x="631" y="557" type="line" smooth="yes"/>
      <point x="575" y="542"/>
      <point x="567" y="475"/>
      <point x="618" y="447" type="curve" smooth="yes"/>
      <point x="692" y="406" type="line"/>
      <point x="443" y="406" type="line"/>
      <point x="443" y="361" type="line"/>
      <point x="440" y="360" type="line"/>
      <point x="439" y="361" type="line"/>
      <point x="438" y="359" type="line"/>
      <point x="435" y="359" type="line"/>
      <point x="399" y="395" type="line"/>
    </contour>
    <contour>
      <point x="519" y="43" type="curve" smooth="yes"/>
      <point x="415" y="125" type="line"/>
      <point x="417" y="181" type="line"/>
      <point x="447" y="237" type="line"/>
      <point x="503" y="253" type="line" smooth="yes"/>
      <point x="519" y="257"/>
      <point x="535" y="271"/>
      <point x="542" y="286" type="curve"/>
      <point x="810" y="286" type="line"/>
      <point x="809" y="242" type="line" smooth="yes"/>
      <point x="808" y="223"/>
      <point x="821" y="199"/>
      <point x="837" y="189" type="curve" smooth="yes"/>
      <point x="918" y="138" type="line"/>
      <point x="749" y="88" type="line" smooth="yes"/>
      <point x="688" y="69"/>
      <point x="687" y="-6"/>
      <point x="746" y="-27" type="curve" smooth="yes"/>
      <point x="845" y="-61" type="line" smooth="yes"/>
      <point x="876" y="-71"/>
      <point x="911" y="-54"/>
      <point x="922" y="-24" type="curve" smooth="yes"/>
      <point x="926" y="-11"/>
      <point x="926" y="2"/>
      <point x="922" y="14" type="curve"/>
      <point x="1079" y="61" type="line" smooth="yes"/>
      <point x="1133" y="77"/>
      <point x="1142" y="139"/>
      <point x="1094" y="169" type="curve" smooth="yes"/>
      <point x="930" y="272" type="line"/>
      <point x="930" y="286" type="line"/>
      <point x="948" y="286" type="line" smooth="yes"/>
      <point x="980" y="286"/>
      <point x="1008" y="314"/>
      <point x="1008" y="346" type="curve" smooth="yes"/>
      <point x="1008" y="378"/>
      <point x="980" y="406"/>
      <point x="948" y="406" type="curve" smooth="yes"/>
      <point x="923" y="406" type="line"/>
      <point x="917" y="415"/>
      <point x="910" y="422"/>
      <point x="902" y="426" type="curve" smooth="yes"/>
      <point x="804" y="481" type="line"/>
      <point x="1011" y="538" type="line" smooth="yes"/>
      <point x="1020" y="541"/>
      <point x="1033" y="549"/>
      <point x="1039" y="556" type="curve" smooth="yes"/>
      <point x="1115" y="639" type="line" smooth="yes"/>
      <point x="1150" y="677"/>
      <point x="1132" y="730"/>
      <point x="1081" y="738" type="curve" smooth="yes"/>
      <point x="816" y="782" type="line"/>
      <point x="824" y="816"/>
      <point x="802" y="856"/>
      <point x="756" y="856" type="curve" smooth="yes"/>
      <point x="440" y="856" type="line"/>
      <point x="440" y="854" type="line"/>
      <point x="107" y="820" type="line" smooth="yes"/>
      <point x="46" y="814"/>
      <point x="29" y="743"/>
      <point x="81" y="710" type="curve" smooth="yes"/>
      <point x="145" y="669" type="line"/>
      <point x="119" y="640" type="line" smooth="yes"/>
      <point x="89" y="606"/>
      <point x="101" y="560"/>
      <point x="143" y="544" type="curve" smooth="yes"/>
      <point x="312" y="479" type="line"/>
      <point x="272" y="444" type="line" smooth="yes"/>
      <point x="245" y="421"/>
      <point x="244" y="381"/>
      <point x="268" y="356" type="curve" smooth="yes"/>
      <point x="302" y="323" type="line"/>
      <point x="179" y="289" type="line" smooth="yes"/>
      <point x="171" y="287"/>
      <point x="159" y="281"/>
      <point x="153" y="275" type="curve" smooth="yes"/>
      <point x="68" y="193" type="line" smooth="yes"/>
      <point x="51" y="177"/>
      <point x="46" y="146"/>
      <point x="56" y="124" type="curve" smooth="yes"/>
      <point x="92" y="47" type="line" smooth="yes"/>
      <point x="99" y="33"/>
      <point x="117" y="18"/>
      <point x="133" y="15" type="curve" smooth="yes"/>
      <point x="469" y="-62" type="line" smooth="yes"/>
      <point x="535" y="-78"/>
      <point x="573" y="1"/>
    </contour>
    <contour>
      <point x="294" y="101" type="line"/>
      <point x="188" y="125" type="line"/>
      <point x="183" y="137" type="line"/>
      <point x="225" y="178" type="line"/>
      <point x="298" y="197" type="line"/>
    </contour>
  </outline>
</glyph>
<glyph name="B" format="1">
  <advance width="1231"/>
  <unicode hex="0042"/>
  <outline>
    <contour>
      <point x="278" y="-56" type="curve" smooth="yes"/>
      <point x="670" y="-56" type="line"/>
      <point x="862" y="-49" type="line" smooth="yes"/>
      <point x="877" y="-48"/>
      <point x="897" y="-38"/>
      <point x="907" y="-26" type="curve" smooth="yes"/>
      <point x="947" y="25" type="line" smooth="yes"/>
      <point x="952" y="31"/>
      <point x="957" y="42"/>
      <point x="959" y="50" type="curve" smooth="yes"/>
      <point x="989" y="192" type="line" smooth="yes"/>
      <point x="994" y="215"/>
      <point x="981" y="244"/>
      <point x="961" y="256" type="curve" smooth="yes"/>
      <point x="896" y="294" type="line"/>
      <point x="931" y="320" type="line" smooth="yes"/>
      <point x="971" y="351"/>
      <point x="964" y="405"/>
      <point x="917" y="424" type="curve" smooth="yes"/>
      <point x="904" y="429" type="line"/>
      <point x="904" y="429" type="line"/>
      <point x="1137" y="553" type="line" smooth="yes"/>
      <point x="1152" y="561"/>
      <point x="1166" y="581"/>
      <point x="1168" y="597" type="curve" smooth="yes"/>
      <point x="1181" y="680" type="line" smooth="yes"/>
      <point x="1182" y="687"/>
      <point x="1181" y="698"/>
      <point x="1179" y="705" type="curve" smooth="yes"/>
      <point x="1157" y="785" type="line" smooth="yes"/>
      <point x="1151" y="807"/>
      <point x="1127" y="827"/>
      <point x="1103" y="828" type="curve" smooth="yes"/>
      <point x="744" y="854" type="line"/>
      <point x="744" y="864" type="line"/>
      <point x="283" y="864" type="line" smooth="yes"/>
      <point x="217" y="864"/>
      <point x="196" y="784"/>
      <point x="253" y="752" type="curve" smooth="yes"/>
      <point x="316" y="716" type="line"/>
      <point x="341" y="703" type="line"/>
      <point x="230" y="665" type="line" smooth="yes"/>
      <point x="171" y="645"/>
      <point x="171" y="572"/>
      <point x="229" y="551" type="curve" smooth="yes"/>
      <point x="339" y="513" type="line"/>
      <point x="157" y="463" type="line" smooth="yes"/>
      <point x="144" y="459"/>
      <point x="129" y="447"/>
      <point x="122" y="436" type="curve" smooth="yes"/>
      <point x="60" y="335" type="line" smooth="yes"/>
      <point x="38" y="300"/>
      <point x="54" y="259"/>
      <point x="93" y="246" type="curve" smooth="yes"/>
      <point x="397" y="150" type="line"/>
      <point x="470" y="70" type="line"/>
      <point x="276" y="64" type="line" smooth="yes"/>
      <point x="197" y="62"/>
      <point x="199" y="-56"/>
    </contour>
    <contour>
      <point x="561" y="563" type="curve" smooth="yes"/>
      <point x="433" y="607" type="line"/>
      <point x="509" y="633" type="line" smooth="yes"/>
      <point x="562" y="651"/>
      <point x="568" y="715"/>
      <point x="518" y="743" type="curve" smooth="yes"/>
      <point x="515" y="744" type="line"/>
      <point x="603" y="744" type="line"/>
      <point x="1053" y="712" type="line"/>
      <point x="1060" y="685" type="line"/>
      <point x="1054" y="645" type="line"/>
      <point x="813" y="517" type="line" smooth="yes"/>
      <point x="797" y="508"/>
      <point x="784" y="489"/>
      <point x="782" y="470" type="curve"/>
      <point x="588" y="466" type="line"/>
      <point x="617" y="495"/>
      <point x="608" y="547"/>
    </contour>
    <contour>
      <point x="670" y="64" type="line"/>
      <point x="621" y="64" type="line"/>
      <point x="620" y="78"/>
      <point x="614" y="90"/>
      <point x="604" y="101" type="curve" smooth="yes"/>
      <point x="474" y="243" type="line" smooth="yes"/>
      <point x="468" y="249"/>
      <point x="457" y="257"/>
      <point x="448" y="259" type="curve" smooth="yes"/>
      <point x="202" y="337" type="line"/>
      <point x="206" y="344" type="line"/>
      <point x="764" y="344" type="line"/>
      <point x="753" y="335" type="line" smooth="yes"/>
      <point x="716" y="307"/>
      <point x="719" y="259"/>
      <point x="758" y="236" type="curve" smooth="yes"/>
      <point x="862" y="174" type="line"/>
      <point x="844" y="89" type="line"/>
      <point x="829" y="70" type="line"/>
    </contour>
  </outline>
</glyph>
<glyph name="C" format="1">
  <advance width="1017"/>
  <unicode hex="0043"/>
  <outline>
    <contour>
      <point x="449" y="-62" type="curve" smooth="yes"/>
      <point x="493" y="-62" type="line" smooth="yes"/>
      <point x="500" y="-62"/>
      <point x="507" y="-61"/>
      <point x="513" y="-59" type="curve"/>
      <point x="615" y="-55" type="line" smooth="yes"/>
      <point x="618" y="-55"/>
      <point x="624" y="-54"/>
      <point x="627" y="-53" type="curve" smooth="yes"/>
      <point x="834" y="-2" type="line" smooth="yes"/>
      <point x="850" y="2"/>
      <point x="868" y="17"/>
      <point x="875" y="32" type="curve" smooth="yes"/>
      <point x="939" y="173" type="line" smooth="yes"/>
      <point x="952" y="203"/>
      <point x="938" y="239"/>
      <point x="909" y="253" type="curve" smooth="yes"/>
      <point x="879" y="266"/>
      <point x="843" y="252"/>
      <point x="829" y="223" type="curve" smooth="yes"/>
      <point x="777" y="108" type="line"/>
      <point x="604" y="65" type="line"/>
      <point x="520" y="61" type="line"/>
      <point x="514" y="69" type="line"/>
      <point x="538" y="184" type="line" smooth="yes"/>
      <point x="544" y="212"/>
      <point x="526" y="243"/>
      <point x="499" y="252" type="curve" smooth="yes"/>
      <point x="238" y="347" type="line"/>
      <point x="203" y="402" type="line"/>
      <point x="240" y="473" type="line" smooth="yes"/>
      <point x="250" y="491"/>
      <point x="248" y="520"/>
      <point x="235" y="536" type="curve" smooth="yes"/>
      <point x="213" y="566" type="line"/>
      <point x="442" y="626" type="line" smooth="yes"/>
      <point x="490" y="638"/>
      <point x="504" y="686"/>
      <point x="478" y="719" type="curve"/>
      <point x="712" y="738" type="line"/>
      <point x="725" y="738" type="line"/>
      <point x="796" y="723" type="line"/>
      <point x="638" y="653" type="line" smooth="yes"/>
      <point x="608" y="640"/>
      <point x="594" y="603"/>
      <point x="607" y="574" type="curve" smooth="yes"/>
      <point x="620" y="544"/>
      <point x="657" y="530"/>
      <point x="686" y="543" type="curve" smooth="yes"/>
      <point x="874" y="627" type="line" smooth="yes"/>
      <point x="882" y="630"/>
      <point x="894" y="640"/>
      <point x="899" y="647" type="curve" smooth="yes"/>
      <point x="955" y="728" type="line" smooth="yes"/>
      <point x="981" y="766"/>
      <point x="963" y="811"/>
      <point x="917" y="821" type="curve" smooth="yes"/>
      <point x="743" y="857" type="line" smooth="yes"/>
      <point x="740" y="857"/>
      <point x="734" y="858"/>
      <point x="731" y="858" type="curve" smooth="yes"/>
      <point x="712" y="858" type="line"/>
      <point x="275" y="823" type="line" smooth="yes"/>
      <point x="210" y="817"/>
      <point x="194" y="740"/>
      <point x="251" y="710" type="curve" smooth="yes"/>
      <point x="263" y="703" type="line"/>
      <point x="96" y="660" type="line" smooth="yes"/>
      <point x="52" y="649"/>
      <point x="36" y="603"/>
      <point x="63" y="566" type="curve" smooth="yes"/>
      <point x="116" y="495" type="line"/>
      <point x="81" y="427" type="line" smooth="yes"/>
      <point x="72" y="410"/>
      <point x="73" y="383"/>
      <point x="83" y="367" type="curve" smooth="yes"/>
      <point x="147" y="265" type="line" smooth="yes"/>
      <point x="153" y="256"/>
      <point x="167" y="245"/>
      <point x="178" y="241" type="curve" smooth="yes"/>
      <point x="410" y="157" type="line"/>
      <point x="391" y="67" type="line" smooth="yes"/>
      <point x="388" y="55"/>
      <point x="391" y="40"/>
      <point x="396" y="28" type="curve"/>
      <point x="377" y="-8"/>
      <point x="395" y="-62"/>
    </contour>
  </outline>
</glyph>
<glyph name="D" format="1">
  <advance width="1268"/>
  <unicode hex="0044"/>
  <outline>
    <contour>
      <point x="465" y="155" type="curve" smooth="yes"/>
      <point x="263" y="235" type="line"/>
      <point x="269" y="254" type="line"/>
      <point x="494" y="343" type="line" smooth="yes"/>
      <point x="519" y="353"/>
      <point x="536" y="383"/>
      <point x="531" y="410" type="curve" smooth="yes"/>
      <point x="513" y="510" type="line" smooth="yes"/>
      <point x="510" y="529"/>
      <point x="492" y="550"/>
      <point x="473" y="556" type="curve" smooth="yes"/>
      <point x="344" y="600" type="line"/>
      <point x="467" y="642" type="line" smooth="yes"/>
      <point x="476" y="646"/>
      <point x="489" y="655"/>
      <point x="495" y="663" type="curve" smooth="yes"/>
      <point x="551" y="739" type="line"/>
      <point x="645" y="739" type="line"/>
      <point x="652" y="722"/>
      <point x="668" y="708"/>
      <point x="692" y="704" type="curve" smooth="yes"/>
      <point x="979" y="653" type="line"/>
      <point x="977" y="651" type="line" smooth="yes"/>
      <point x="948" y="635"/>
      <point x="938" y="598"/>
      <point x="954" y="570" type="curve" smooth="yes"/>
      <point x="956" y="565"/>
      <point x="960" y="560"/>
      <point x="964" y="557" type="curve"/>
      <point x="950" y="560"/>
      <point x="935" y="559"/>
      <point x="922" y="553" type="curve" smooth="yes"/>
      <point x="893" y="538"/>
      <point x="881" y="501"/>
      <point x="895" y="472" type="curve" smooth="yes"/>
      <point x="935" y="392" type="line"/>
      <point x="915" y="314" type="line" smooth="yes"/>
      <point x="912" y="301"/>
      <point x="914" y="281"/>
      <point x="921" y="269" type="curve" smooth="yes"/>
      <point x="955" y="209" type="line"/>
      <point x="858" y="114" type="line"/>
      <point x="559" y="65" type="line" smooth="yes"/>
      <point x="551" y="64"/>
      <point x="545" y="62"/>
      <point x="539" y="59" type="curve"/>
      <point x="490" y="59" type="line"/>
      <point x="518" y="88"/>
      <point x="510" y="137"/>
    </contour>
    <contour>
      <point x="683" y="-61" type="line"/>
      <point x="683" y="-36" type="line"/>
      <point x="896" y="-2" type="line" smooth="yes"/>
      <point x="907" y="0"/>
      <point x="922" y="7"/>
      <point x="929" y="15" type="curve" smooth="yes"/>
      <point x="1072" y="156" type="line" smooth="yes"/>
      <point x="1090" y="174"/>
      <point x="1095" y="207"/>
      <point x="1082" y="229" type="curve" smooth="yes"/>
      <point x="1037" y="308" type="line"/>
      <point x="1057" y="384" type="line" smooth="yes"/>
      <point x="1060" y="396"/>
      <point x="1058" y="415"/>
      <point x="1053" y="426" type="curve" smooth="yes"/>
      <point x="1003" y="526" type="line" smooth="yes"/>
      <point x="1000" y="532"/>
      <point x="996" y="537"/>
      <point x="991" y="541" type="curve"/>
      <point x="1006" y="538"/>
      <point x="1022" y="539"/>
      <point x="1035" y="547" type="curve" smooth="yes"/>
      <point x="1184" y="630" type="line" smooth="yes"/>
      <point x="1237" y="660"/>
      <point x="1225" y="731"/>
      <point x="1165" y="741" type="curve" smooth="yes"/>
      <point x="979" y="775" type="line"/>
      <point x="995" y="810"/>
      <point x="974" y="859"/>
      <point x="923" y="859" type="curve" smooth="yes"/>
      <point x="457" y="859" type="line"/>
      <point x="457" y="814" type="line"/>
      <point x="410" y="750" type="line"/>
      <point x="139" y="656" type="line" smooth="yes"/>
      <point x="81" y="635"/>
      <point x="81" y="562"/>
      <point x="140" y="542" type="curve" smooth="yes"/>
      <point x="401" y="454" type="line"/>
      <point x="404" y="437" type="line"/>
      <point x="198" y="355" type="line" smooth="yes"/>
      <point x="183" y="349"/>
      <point x="167" y="332"/>
      <point x="163" y="316" type="curve" smooth="yes"/>
      <point x="133" y="216" type="line" smooth="yes"/>
      <point x="124" y="187"/>
      <point x="140" y="154"/>
      <point x="168" y="143" type="curve" smooth="yes"/>
      <point x="261" y="107" type="line"/>
      <point x="95" y="56" type="line" smooth="yes"/>
      <point x="25" y="36"/>
      <point x="40" y="-61"/>
      <point x="112" y="-61" type="curve" smooth="yes"/>
    </contour>
  </outline>
</glyph>
<glyph name="E" format="1">
  <advance width="1131"/>
  <unicode hex="0045"/>
  <outline>
    <contour>
      <point x="818" y="-60" type="line" smooth="yes"/>
      <point x="839" y="-60"/>
      <point x="859" y="-48"/>
      <point x="869" y="-31" type="curve"/>
      <point x="941" y="-25" type="line" smooth="yes"/>
      <point x="1010" y="-19"/>
      <point x="1020" y="72"/>
      <point x="953" y="93" type="curve" smooth="yes"/>
      <point x="842" y="127" type="line"/>
      <point x="873" y="142" type="line" smooth="yes"/>
      <point x="902" y="156"/>
      <point x="915" y="193"/>
      <point x="901" y="222" type="curve" smooth="yes"/>
      <point x="887" y="251"/>
      <point x="850" y="264"/>
      <point x="821" y="250" type="curve" smooth="yes"/>
      <point x="653" y="168" type="line" smooth="yes"/>
      <point x="609" y="146"/>
      <point x="605" y="97"/>
      <point x="637" y="70" type="curve"/>
      <point x="520" y="60" type="line"/>
      <point x="516" y="60" type="line"/>
      <point x="510" y="63"/>
      <point x="503" y="65"/>
      <point x="496" y="66" type="curve" smooth="yes"/>
      <point x="204" y="105" type="line"/>
      <point x="239" y="172" type="line"/>
      <point x="293" y="282" type="line"/>
      <point x="364" y="323" type="line"/>
      <point x="487" y="337" type="line"/>
      <point x="580" y="342" type="line" smooth="yes"/>
      <point x="636" y="345"/>
      <point x="659" y="403"/>
      <point x="620" y="443" type="curve" smooth="yes"/>
      <point x="554" y="513" type="line" smooth="yes"/>
      <point x="550" y="517"/>
      <point x="543" y="523"/>
      <point x="538" y="525" type="curve" smooth="yes"/>
      <point x="415" y="587" type="line"/>
      <point x="525" y="625" type="line" smooth="yes"/>
      <point x="585" y="645"/>
      <point x="583" y="722"/>
      <point x="521" y="739" type="curve" smooth="yes"/>
      <point x="519" y="740" type="line"/>
      <point x="587" y="740" type="line"/>
      <point x="589" y="718"/>
      <point x="602" y="698"/>
      <point x="629" y="688" type="curve" smooth="yes"/>
      <point x="1000" y="546" type="line" smooth="yes"/>
      <point x="1030" y="534"/>
      <point x="1065" y="550"/>
      <point x="1077" y="581" type="curve" smooth="yes"/>
      <point x="1089" y="611"/>
      <point x="1073" y="646"/>
      <point x="1042" y="658" type="curve" smooth="yes"/>
      <point x="886" y="718" type="line"/>
      <point x="999" y="734" type="line" smooth="yes"/>
      <point x="1073" y="745"/>
      <point x="1068" y="850"/>
      <point x="994" y="854" type="curve" smooth="yes"/>
      <point x="873" y="860" type="line"/>
      <point x="742" y="860" type="line"/>
      <point x="314" y="860" type="line" smooth="yes"/>
      <point x="308" y="860"/>
      <point x="299" y="858"/>
      <point x="293" y="856" type="curve" smooth="yes"/>
      <point x="194" y="819" type="line" smooth="yes"/>
      <point x="135" y="798"/>
      <point x="138" y="722"/>
      <point x="198" y="705" type="curve" smooth="yes"/>
      <point x="303" y="676" type="line"/>
      <point x="242" y="655" type="line" smooth="yes"/>
      <point x="187" y="636"/>
      <point x="182" y="571"/>
      <point x="234" y="544" type="curve" smooth="yes"/>
      <point x="420" y="450" type="line"/>
      <point x="338" y="441" type="line" smooth="yes"/>
      <point x="331" y="440"/>
      <point x="320" y="437"/>
      <point x="314" y="433" type="curve" smooth="yes"/>
      <point x="217" y="376" type="line" smooth="yes"/>
      <point x="208" y="371"/>
      <point x="198" y="360"/>
      <point x="193" y="351" type="curve" smooth="yes"/>
      <point x="131" y="224" type="line"/>
      <point x="58" y="84" type="line" smooth="yes"/>
      <point x="37" y="45"/>
      <point x="59" y="3"/>
      <point x="103" y="-3" type="curve" smooth="yes"/>
      <point x="430" y="-47" type="line"/>
      <point x="441" y="-55"/>
      <point x="454" y="-60"/>
      <point x="471" y="-60" type="curve" smooth="yes"/>
    </contour>
  </outline>
</glyph>
<glyph name="F" format="1">
  <advance width="1003"/>
  <unicode hex="0046"/>
  <outline>
    <contour>
      <point x="307" y="-17" type="curve" smooth="yes"/>
      <point x="327" y="54" type="line"/>
      <point x="556" y="142" type="line" smooth="yes"/>
      <point x="599" y="159"/>
      <point x="609" y="207"/>
      <point x="577" y="240" type="curve" smooth="yes"/>
      <point x="520" y="298" type="line"/>
      <point x="597" y="323" type="line"/>
      <point x="648" y="337" type="line"/>
      <point x="720" y="340" type="line" smooth="yes"/>
      <point x="799" y="343"/>
      <point x="797" y="460"/>
      <point x="718" y="460" type="curve" smooth="yes"/>
      <point x="564" y="461" type="line"/>
      <point x="555" y="469"/>
      <point x="544" y="475"/>
      <point x="529" y="477" type="curve" smooth="yes"/>
      <point x="262" y="513" type="line"/>
      <point x="311" y="551" type="line" smooth="yes"/>
      <point x="314" y="553"/>
      <point x="317" y="556"/>
      <point x="320" y="559" type="curve" smooth="yes"/>
      <point x="380" y="630" type="line"/>
      <point x="603" y="706" type="line" smooth="yes"/>
      <point x="622" y="713"/>
      <point x="635" y="725"/>
      <point x="642" y="740" type="curve"/>
      <point x="661" y="740" type="line"/>
      <point x="750" y="738" type="line"/>
      <point x="706" y="623" type="line" smooth="yes"/>
      <point x="694" y="593"/>
      <point x="710" y="558"/>
      <point x="741" y="546" type="curve" smooth="yes"/>
      <point x="771" y="534"/>
      <point x="806" y="550"/>
      <point x="818" y="581" type="curve" smooth="yes"/>
      <point x="865" y="704" type="line"/>
      <point x="924" y="744" type="line" smooth="yes"/>
      <point x="976" y="779"/>
      <point x="955" y="852"/>
      <point x="892" y="854" type="curve" smooth="yes"/>
      <point x="701" y="859" type="line"/>
      <point x="701" y="860" type="line"/>
      <point x="529" y="860" type="line" smooth="yes"/>
      <point x="483" y="860"/>
      <point x="458" y="822"/>
      <point x="468" y="787" type="curve"/>
      <point x="326" y="738" type="line" smooth="yes"/>
      <point x="317" y="735"/>
      <point x="305" y="727"/>
      <point x="300" y="720" type="curve" smooth="yes"/>
      <point x="232" y="642" type="line"/>
      <point x="76" y="520" type="line" smooth="yes"/>
      <point x="30" y="484"/>
      <point x="48" y="421"/>
      <point x="105" y="413" type="curve" smooth="yes"/>
      <point x="209" y="399" type="line"/>
      <point x="210" y="371"/>
      <point x="230" y="344"/>
      <point x="268" y="343" type="curve" smooth="yes"/>
      <point x="350" y="342" type="line"/>
      <point x="344" y="323"/>
      <point x="349" y="300"/>
      <point x="367" y="282" type="curve" smooth="yes"/>
      <point x="427" y="221" type="line"/>
      <point x="256" y="155" type="line" smooth="yes"/>
      <point x="241" y="149"/>
      <point x="224" y="131"/>
      <point x="220" y="116" type="curve" smooth="yes"/>
      <point x="191" y="17" type="line" smooth="yes"/>
      <point x="182" y="-15"/>
      <point x="201" y="-49"/>
      <point x="232" y="-58" type="curve" smooth="yes"/>
      <point x="264" y="-67"/>
      <point x="298" y="-48"/>
    </contour>
  </outline>
</glyph>
<glyph name="G" format="1">
  <advance width="1287"/>
  <unicode hex="0047"/>
  <outline>
    <contour>
      <point x="692" y="635" type="curve" smooth="yes"/>
      <point x="768" y="592" type="line"/>
      <point x="522" y="662" type="line" smooth="yes"/>
      <point x="505" y="667"/>
      <point x="487" y="663"/>
      <point x="472" y="653" type="curve"/>
      <point x="467" y="657"/>
      <point x="460" y="660"/>
      <point x="453" y="662" type="curve" smooth="yes"/>
      <point x="368" y="685" type="line"/>
      <point x="462" y="710" type="line" smooth="yes"/>
      <point x="484" y="715"/>
      <point x="499" y="728"/>
      <point x="506" y="744" type="curve"/>
      <point x="702" y="744" type="line"/>
      <point x="649" y="727"/>
      <point x="642" y="663"/>
    </contour>
    <contour>
      <point x="403" y="69" type="line" smooth="yes"/>
      <point x="451" y="99"/>
      <point x="443" y="161"/>
      <point x="390" y="178" type="curve" smooth="yes"/>
      <point x="275" y="215" type="line"/>
      <point x="345" y="249" type="line"/>
      <point x="623" y="347" type="line" smooth="yes"/>
      <point x="679" y="367"/>
      <point x="681" y="435"/>
      <point x="627" y="459" type="curve" smooth="yes"/>
      <point x="464" y="531" type="line"/>
      <point x="476" y="552" type="line"/>
      <point x="480" y="550"/>
      <point x="485" y="548"/>
      <point x="490" y="546" type="curve" smooth="yes"/>
      <point x="690" y="489" type="line"/>
      <point x="682" y="480" type="line" smooth="yes"/>
      <point x="651" y="446"/>
      <point x="663" y="399"/>
      <point x="706" y="384" type="curve" smooth="yes"/>
      <point x="804" y="348" type="line" smooth="yes"/>
      <point x="807" y="347"/>
      <point x="811" y="346"/>
      <point x="815" y="345" type="curve"/>
      <point x="808" y="338"/>
      <point x="808" y="338"/>
      <point x="808" y="338" type="curve"/>
      <point x="740" y="238" type="line" smooth="yes"/>
      <point x="719" y="206"/>
      <point x="730" y="166"/>
      <point x="764" y="150" type="curve" smooth="yes"/>
      <point x="824" y="121" type="line"/>
      <point x="766" y="95" type="line" smooth="yes"/>
      <point x="762" y="93"/>
      <point x="756" y="89"/>
      <point x="752" y="86" type="curve" smooth="yes"/>
      <point x="725" y="64" type="line"/>
      <point x="394" y="64" type="line"/>
    </contour>
    <contour>
      <point x="747" y="-56" type="line" smooth="yes"/>
      <point x="759" y="-56"/>
      <point x="776" y="-50"/>
      <point x="785" y="-42" type="curve" smooth="yes"/>
      <point x="823" y="-11" type="line"/>
      <point x="991" y="66" type="line" smooth="yes"/>
      <point x="1041" y="89"/>
      <point x="1042" y="151"/>
      <point x="991" y="175" type="curve" smooth="yes"/>
      <point x="879" y="228" type="line"/>
      <point x="896" y="253" type="line"/>
      <point x="1192" y="347" type="line" smooth="yes"/>
      <point x="1261" y="368"/>
      <point x="1246" y="464"/>
      <point x="1174" y="464" type="curve" smooth="yes"/>
      <point x="836" y="464" type="line"/>
      <point x="830" y="466" type="line"/>
      <point x="844" y="480" type="line" smooth="yes"/>
      <point x="862" y="501"/>
      <point x="865" y="525"/>
      <point x="856" y="545" type="curve"/>
      <point x="881" y="541"/>
      <point x="907" y="552"/>
      <point x="920" y="574" type="curve" smooth="yes"/>
      <point x="936" y="602"/>
      <point x="926" y="640"/>
      <point x="898" y="656" type="curve" smooth="yes"/>
      <point x="879" y="667" type="line"/>
      <point x="1041" y="710" type="line" smooth="yes"/>
      <point x="1108" y="728"/>
      <point x="1102" y="819"/>
      <point x="1032" y="828" type="curve" smooth="yes"/>
      <point x="813" y="853" type="line"/>
      <point x="813" y="864" type="line"/>
      <point x="324" y="864" type="line" smooth="yes"/>
      <point x="274" y="864"/>
      <point x="252" y="818"/>
      <point x="266" y="783" type="curve"/>
      <point x="119" y="745" type="line" smooth="yes"/>
      <point x="55" y="729"/>
      <point x="55" y="647"/>
      <point x="118" y="629" type="curve" smooth="yes"/>
      <point x="345" y="567" type="line"/>
      <point x="326" y="534" type="line" smooth="yes"/>
      <point x="308" y="503"/>
      <point x="320" y="464"/>
      <point x="354" y="449" type="curve" smooth="yes"/>
      <point x="441" y="410" type="line"/>
      <point x="302" y="361" type="line" smooth="yes"/>
      <point x="300" y="360"/>
      <point x="298" y="359"/>
      <point x="296" y="358" type="curve" smooth="yes"/>
      <point x="87" y="258" type="line" smooth="yes"/>
      <point x="34" y="233"/>
      <point x="38" y="165"/>
      <point x="95" y="147" type="curve" smooth="yes"/>
      <point x="229" y="104" type="line"/>
      <point x="209" y="91" type="line" smooth="yes"/>
      <point x="165" y="65"/>
      <point x="167" y="10"/>
      <point x="213" y="-13" type="curve" smooth="yes"/>
      <point x="284" y="-50" type="line" smooth="yes"/>
      <point x="291" y="-53"/>
      <point x="303" y="-56"/>
      <point x="311" y="-56" type="curve" smooth="yes"/>
    </contour>
  </outline>
</glyph>
<glyph name="H" format="1">
  <advance width="1306"/>
  <unicode hex="0048"/>
  <outline>
    <contour>
      <point x="819" y="-18" type="curve" smooth="yes"/>
      <point x="835" y="46" type="line"/>
      <point x="1207" y="138" type="line" smooth="yes"/>
      <point x="1271" y="153"/>
      <point x="1273" y="235"/>
      <point x="1210" y="254" type="curve" smooth="yes"/>
      <point x="900" y="343" type="line"/>
      <point x="991" y="376" type="line" smooth="yes"/>
      <point x="1017" y="385"/>
      <point x="1035" y="415"/>
      <point x="1030" y="443" type="curve" smooth="yes"/>
      <point x="1023" y="480" type="line"/>
      <point x="1146" y="543" type="line" smooth="yes"/>
      <point x="1188" y="565"/>
      <point x="1192" y="616"/>
      <point x="1154" y="644" type="curve" smooth="yes"/>
      <point x="1148" y="648" type="line"/>
      <point x="1157" y="662" type="line" smooth="yes"/>
      <point x="1178" y="692"/>
      <point x="1169" y="730"/>
      <point x="1138" y="748" type="curve" smooth="yes"/>
      <point x="962" y="848" type="line" smooth="yes"/>
      <point x="906" y="880"/>
      <point x="849" y="826"/>
      <point x="879" y="769" type="curve" smooth="yes"/>
      <point x="930" y="669" type="line" smooth="yes"/>
      <point x="934" y="662"/>
      <point x="942" y="652"/>
      <point x="948" y="648" type="curve" smooth="yes"/>
      <point x="964" y="636" type="line"/>
      <point x="690" y="553" type="line" smooth="yes"/>
      <point x="657" y="543"/>
      <point x="639" y="509"/>
      <point x="650" y="476" type="curve" smooth="yes"/>
      <point x="657" y="456" type="line"/>
      <point x="561" y="456" type="line" smooth="yes"/>
      <point x="521" y="456"/>
      <point x="497" y="428"/>
      <point x="498" y="397" type="curve"/>
      <point x="469" y="391" type="line"/>
      <point x="357" y="419" type="line"/>
      <point x="399" y="445" type="line" smooth="yes"/>
      <point x="411" y="452"/>
      <point x="423" y="469"/>
      <point x="426" y="482" type="curve" smooth="yes"/>
      <point x="445" y="561" type="line"/>
      <point x="559" y="648" type="line" smooth="yes"/>
      <point x="603" y="682"/>
      <point x="591" y="741"/>
      <point x="537" y="754" type="curve" smooth="yes"/>
      <point x="124" y="854" type="line" smooth="yes"/>
      <point x="93" y="862"/>
      <point x="59" y="842"/>
      <point x="52" y="810" type="curve" smooth="yes"/>
      <point x="44" y="779"/>
      <point x="64" y="745"/>
      <point x="96" y="738" type="curve" smooth="yes"/>
      <point x="387" y="667" type="line"/>
      <point x="356" y="644" type="line" smooth="yes"/>
      <point x="346" y="637"/>
      <point x="336" y="621"/>
      <point x="334" y="610" type="curve" smooth="yes"/>
      <point x="316" y="534" type="line"/>
      <point x="171" y="447" type="line" smooth="yes"/>
      <point x="121" y="417"/>
      <point x="131" y="352"/>
      <point x="187" y="338" type="curve" smooth="yes"/>
      <point x="214" y="331" type="line"/>
      <point x="203" y="324"/>
      <point x="193" y="314"/>
      <point x="188" y="303" type="curve" smooth="yes"/>
      <point x="152" y="220" type="line" smooth="yes"/>
      <point x="139" y="189"/>
      <point x="151" y="156"/>
      <point x="181" y="142" type="curve"/>
      <point x="180" y="141" type="line" smooth="yes"/>
      <point x="159" y="124"/>
      <point x="153" y="90"/>
      <point x="167" y="66" type="curve" smooth="yes"/>
      <point x="224" y="-34" type="line" smooth="yes"/>
      <point x="238" y="-58"/>
      <point x="270" y="-70"/>
      <point x="296" y="-60" type="curve" smooth="yes"/>
      <point x="575" y="40" type="line" smooth="yes"/>
      <point x="634" y="61"/>
      <point x="632" y="136"/>
      <point x="571" y="154" type="curve" smooth="yes"/>
      <point x="470" y="183" type="line"/>
      <point x="623" y="240" type="line" smooth="yes"/>
      <point x="664" y="255"/>
      <point x="675" y="297"/>
      <point x="657" y="326" type="curve"/>
      <point x="659" y="329"/>
      <point x="661" y="332"/>
      <point x="663" y="336" type="curve"/>
      <point x="718" y="336" type="line"/>
      <point x="806" y="253" type="line" smooth="yes"/>
      <point x="811" y="247"/>
      <point x="823" y="241"/>
      <point x="830" y="238" type="curve" smooth="yes"/>
      <point x="960" y="201" type="line"/>
      <point x="771" y="154" type="line" smooth="yes"/>
      <point x="751" y="149"/>
      <point x="731" y="130"/>
      <point x="727" y="110" type="curve" smooth="yes"/>
      <point x="703" y="10" type="line" smooth="yes"/>
      <point x="695" y="-22"/>
      <point x="715" y="-55"/>
      <point x="747" y="-62" type="curve" smooth="yes"/>
      <point x="779" y="-70"/>
      <point x="812" y="-50"/>
    </contour>
    <contour>
      <point x="859" y="456" type="line"/>
      <point x="785" y="456" type="line"/>
      <point x="784" y="457" type="line"/>
      <point x="899" y="491" type="line"/>
      <point x="903" y="472" type="line"/>
    </contour>
    <contour>
      <point x="303" y="70" type="line"/>
      <point x="296" y="83" type="line"/>
      <point x="318" y="102" type="line"/>
      <point x="359" y="90" type="line"/>
    </contour>
  </outline>
</glyph>
<glyph name="I" format="1">
  <advance width="1119"/>
  <unicode hex="0049"/>
  <outline>
    <contour>
      <point x="110" y="-61" type="curve" smooth="yes"/>
      <point x="909" y="-61" type="line"/>
      <point x="1013" y="-53" type="line" smooth="yes"/>
      <point x="1090" y="-47"/>
      <point x="1086" y="66"/>
      <point x="1009" y="67" type="curve" smooth="yes"/>
      <point x="902" y="69" type="line"/>
      <point x="899" y="90"/>
      <point x="884" y="109"/>
      <point x="858" y="117" type="curve" smooth="yes"/>
      <point x="562" y="207" type="line"/>
      <point x="646" y="243" type="line" smooth="yes"/>
      <point x="649" y="245"/>
      <point x="654" y="248"/>
      <point x="657" y="250" type="curve" smooth="yes"/>
      <point x="798" y="350" type="line" smooth="yes"/>
      <point x="821" y="367"/>
      <point x="829" y="400"/>
      <point x="817" y="426" type="curve" smooth="yes"/>
      <point x="791" y="478" type="line"/>
      <point x="902" y="549" type="line" smooth="yes"/>
      <point x="940" y="574"/>
      <point x="942" y="621"/>
      <point x="906" y="648" type="curve" smooth="yes"/>
      <point x="787" y="738" type="line"/>
      <point x="831" y="770"/>
      <point x="817" y="831"/>
      <point x="767" y="843" type="curve"/>
      <point x="756" y="853"/>
      <point x="742" y="859"/>
      <point x="727" y="859" type="curve" smooth="yes"/>
      <point x="537" y="859" type="line" smooth="yes"/>
      <point x="535" y="859"/>
      <point x="531" y="859"/>
      <point x="528" y="858" type="curve" smooth="yes"/>
      <point x="480" y="851" type="line" smooth="yes"/>
      <point x="406" y="840"/>
      <point x="412" y="734"/>
      <point x="487" y="732" type="curve" smooth="yes"/>
      <point x="626" y="728" type="line"/>
      <point x="629" y="714"/>
      <point x="637" y="701"/>
      <point x="650" y="691" type="curve" smooth="yes"/>
      <point x="765" y="604" type="line"/>
      <point x="681" y="550" type="line" smooth="yes"/>
      <point x="656" y="534"/>
      <point x="646" y="499"/>
      <point x="659" y="473" type="curve" smooth="yes"/>
      <point x="686" y="418" type="line"/>
      <point x="592" y="351" type="line"/>
      <point x="364" y="253" type="line" smooth="yes"/>
      <point x="309" y="229"/>
      <point x="312" y="158"/>
      <point x="370" y="141" type="curve" smooth="yes"/>
      <point x="591" y="73" type="line"/>
      <point x="590" y="73" type="line" smooth="yes"/>
      <point x="578" y="71"/>
      <point x="568" y="66"/>
      <point x="560" y="59" type="curve"/>
      <point x="110" y="59" type="line" smooth="yes"/>
      <point x="78" y="59"/>
      <point x="50" y="31"/>
      <point x="50" y="-1" type="curve" smooth="yes"/>
      <point x="50" y="-33"/>
      <point x="78" y="-61"/>
    </contour>
  </outline>
</glyph>
<glyph name="J" format="1">
  <advance width="942"/>
  <unicode hex="004A"/>
  <outline>
    <contour>
      <point x="279" y="-36" type="curve" smooth="yes"/>
      <point x="285" y="-27"/>
      <point x="289" y="-16"/>
      <point x="290" y="-4" type="curve"/>
      <point x="578" y="56" type="line" smooth="yes"/>
      <point x="640" y="69"/>
      <point x="648" y="144"/>
      <point x="590" y="170" type="curve" smooth="yes"/>
      <point x="409" y="250" type="line"/>
      <point x="366" y="285" type="line"/>
      <point x="492" y="345" type="line" smooth="yes"/>
      <point x="544" y="370"/>
      <point x="541" y="435"/>
      <point x="487" y="455" type="curve" smooth="yes"/>
      <point x="299" y="525" type="line"/>
      <point x="330" y="560" type="line" smooth="yes"/>
      <point x="331" y="562"/>
      <point x="333" y="564"/>
      <point x="334" y="566" type="curve" smooth="yes"/>
      <point x="423" y="695" type="line"/>
      <point x="487" y="736" type="line" smooth="yes"/>
      <point x="489" y="737"/>
      <point x="490" y="738"/>
      <point x="492" y="739" type="curve"/>
      <point x="832" y="739" type="line" smooth="yes"/>
      <point x="864" y="739"/>
      <point x="892" y="767"/>
      <point x="892" y="799" type="curve" smooth="yes"/>
      <point x="892" y="831"/>
      <point x="864" y="859"/>
      <point x="832" y="859" type="curve" smooth="yes"/>
      <point x="50" y="859" type="line"/>
      <point x="50" y="739" type="line"/>
      <point x="64" y="739" type="line"/>
      <point x="261" y="733" type="line"/>
      <point x="303" y="732" type="line"/>
      <point x="238" y="637" type="line"/>
      <point x="151" y="539" type="line" smooth="yes"/>
      <point x="121" y="505"/>
      <point x="133" y="459"/>
      <point x="175" y="443" type="curve" smooth="yes"/>
      <point x="313" y="392" type="line"/>
      <point x="230" y="353" type="line" smooth="yes"/>
      <point x="188" y="332"/>
      <point x="181" y="282"/>
      <point x="218" y="252" type="curve" smooth="yes"/>
      <point x="339" y="152" type="line" smooth="yes"/>
      <point x="342" y="149"/>
      <point x="349" y="145"/>
      <point x="353" y="143" type="curve" smooth="yes"/>
      <point x="370" y="135" type="line"/>
      <point x="168" y="94" type="line" smooth="yes"/>
      <point x="113" y="82"/>
      <point x="99" y="20"/>
      <point x="145" y="-14" type="curve" smooth="yes"/>
      <point x="195" y="-50" type="line" smooth="yes"/>
      <point x="221" y="-69"/>
      <point x="260" y="-62"/>
    </contour>
  </outline>
</glyph>
<glyph name="K" format="1">
  <advance width="1126"/>
  <unicode hex="004B"/>
  <outline>
    <contour>
      <point x="943" y="-25" type="curve" smooth="yes"/>
      <point x="998" y="76" type="line" smooth="yes"/>
      <point x="1013" y="104"/>
      <point x="1003" y="140"/>
      <point x="976" y="156" type="curve" smooth="yes"/>
      <point x="893" y="206" type="line"/>
      <point x="1044" y="296" type="line" smooth="yes"/>
      <point x="1097" y="328"/>
      <point x="1081" y="400"/>
      <point x="1020" y="407" type="curve" smooth="yes"/>
      <point x="936" y="417" type="line"/>
      <point x="931" y="439"/>
      <point x="913" y="458"/>
      <point x="890" y="463" type="curve" smooth="yes"/>
      <point x="794" y="482" type="line"/>
      <point x="931" y="550" type="line" smooth="yes"/>
      <point x="981" y="575"/>
      <point x="979" y="637"/>
      <point x="928" y="659" type="curve" smooth="yes"/>
      <point x="845" y="695" type="line"/>
      <point x="1016" y="747" type="line" smooth="yes"/>
      <point x="1047" y="756"/>
      <point x="1065" y="791"/>
      <point x="1055" y="822" type="curve" smooth="yes"/>
      <point x="1046" y="853"/>
      <point x="1011" y="871"/>
      <point x="980" y="861" type="curve" smooth="yes"/>
      <point x="654" y="761" type="line" smooth="yes"/>
      <point x="596" y="744"/>
      <point x="592" y="673"/>
      <point x="648" y="649" type="curve" smooth="yes"/>
      <point x="761" y="600" type="line"/>
      <point x="710" y="574" type="line" smooth="yes"/>
      <point x="699" y="569"/>
      <point x="687" y="557"/>
      <point x="682" y="546" type="curve" smooth="yes"/>
      <point x="644" y="466" type="line" smooth="yes"/>
      <point x="643" y="464" type="line"/>
      <point x="361" y="464" type="line"/>
      <point x="358" y="508" type="line" smooth="yes"/>
      <point x="357" y="526"/>
      <point x="343" y="548"/>
      <point x="327" y="556" type="curve" smooth="yes"/>
      <point x="183" y="636" type="line"/>
      <point x="186" y="655" type="line"/>
      <point x="553" y="746" type="line" smooth="yes"/>
      <point x="585" y="753"/>
      <point x="605" y="787"/>
      <point x="597" y="818" type="curve" smooth="yes"/>
      <point x="590" y="850"/>
      <point x="556" y="870"/>
      <point x="525" y="862" type="curve" smooth="yes"/>
      <point x="118" y="762" type="line" smooth="yes"/>
      <point x="96" y="757"/>
      <point x="76" y="735"/>
      <point x="73" y="712" type="curve" smooth="yes"/>
      <point x="59" y="612" type="line" smooth="yes"/>
      <point x="55" y="590"/>
      <point x="69" y="563"/>
      <point x="89" y="552" type="curve" smooth="yes"/>
      <point x="240" y="467" type="line"/>
      <point x="242" y="441" type="line"/>
      <point x="222" y="414"/>
      <point x="226" y="372"/>
      <point x="259" y="353" type="curve"/>
      <point x="281" y="288" type="line"/>
      <point x="292" y="241" type="line"/>
      <point x="91" y="160" type="line" smooth="yes"/>
      <point x="36" y="138"/>
      <point x="36" y="70"/>
      <point x="91" y="48" type="curve" smooth="yes"/>
      <point x="340" y="-52" type="line" smooth="yes"/>
      <point x="361" y="-60"/>
      <point x="390" y="-54"/>
      <point x="406" y="-37" type="curve" smooth="yes"/>
      <point x="498" y="60" type="line"/>
      <point x="603" y="160" type="line" smooth="yes"/>
      <point x="620" y="176"/>
      <point x="626" y="207"/>
      <point x="617" y="228" type="curve" smooth="yes"/>
      <point x="581" y="311" type="line" smooth="yes"/>
      <point x="579" y="316"/>
      <point x="574" y="323"/>
      <point x="571" y="327" type="curve" smooth="yes"/>
      <point x="558" y="341" type="line"/>
      <point x="567" y="339" type="line" smooth="yes"/>
      <point x="568" y="339"/>
      <point x="571" y="338"/>
      <point x="572" y="338" type="curve" smooth="yes"/>
      <point x="831" y="308" type="line"/>
      <point x="746" y="257" type="line" smooth="yes"/>
      <point x="704" y="232"/>
      <point x="704" y="180"/>
      <point x="746" y="155" type="curve" smooth="yes"/>
      <point x="865" y="83" type="line"/>
      <point x="837" y="33" type="line" smooth="yes"/>
      <point x="822" y="4"/>
      <point x="833" y="-33"/>
      <point x="861" y="-49" type="curve" smooth="yes"/>
      <point x="890" y="-64"/>
      <point x="927" y="-53"/>
    </contour>
    <contour>
      <point x="384" y="148" type="line" smooth="yes"/>
      <point x="411" y="159"/>
      <point x="427" y="190"/>
      <point x="420" y="217" type="curve" smooth="yes"/>
      <point x="397" y="317" type="line" smooth="yes"/>
      <point x="397" y="318"/>
      <point x="397" y="318"/>
      <point x="397" y="319" type="curve"/>
      <point x="422" y="313" type="line"/>
      <point x="475" y="254" type="line"/>
      <point x="490" y="219" type="line"/>
      <point x="415" y="148" type="line"/>
      <point x="346" y="75" type="line"/>
      <point x="274" y="104" type="line"/>
    </contour>
  </outline>
</glyph>
<glyph name="L" format="1">
  <advance width="898"/>
  <unicode hex="004C"/>
  <outline>
    <contour>
      <point x="421" y="-60" type="curve" smooth="yes"/>
      <point x="788" y="-60" type="line" smooth="yes"/>
      <point x="820" y="-60"/>
      <point x="848" y="-32"/>
      <point x="848" y="0" type="curve" smooth="yes"/>
      <point x="848" y="32"/>
      <point x="820" y="60"/>
      <point x="788" y="60" type="curve" smooth="yes"/>
      <point x="422" y="60" type="line"/>
      <point x="325" y="64" type="line"/>
      <point x="353" y="161" type="line"/>
      <point x="501" y="248" type="line" smooth="yes"/>
      <point x="546" y="275"/>
      <point x="543" y="332"/>
      <point x="496" y="354" type="curve" smooth="yes"/>
      <point x="289" y="452" type="line"/>
      <point x="212" y="505" type="line"/>
      <point x="262" y="547" type="line"/>
      <point x="556" y="643" type="line" smooth="yes"/>
      <point x="613" y="662"/>
      <point x="616" y="731"/>
      <point x="561" y="755" type="curve" smooth="yes"/>
      <point x="334" y="855" type="line" smooth="yes"/>
      <point x="305" y="868"/>
      <point x="268" y="854"/>
      <point x="255" y="824" type="curve" smooth="yes"/>
      <point x="242" y="795"/>
      <point x="256" y="758"/>
      <point x="286" y="745" type="curve" smooth="yes"/>
      <point x="369" y="708" type="line"/>
      <point x="213" y="657" type="line" smooth="yes"/>
      <point x="207" y="655"/>
      <point x="198" y="650"/>
      <point x="194" y="646" type="curve" smooth="yes"/>
      <point x="74" y="546" type="line" smooth="yes"/>
      <point x="41" y="519"/>
      <point x="43" y="474"/>
      <point x="78" y="450" type="curve" smooth="yes"/>
      <point x="225" y="350" type="line" smooth="yes"/>
      <point x="227" y="349"/>
      <point x="231" y="347"/>
      <point x="233" y="346" type="curve" smooth="yes"/>
      <point x="343" y="294" type="line"/>
      <point x="271" y="252" type="line" smooth="yes"/>
      <point x="260" y="245"/>
      <point x="248" y="229"/>
      <point x="244" y="217" type="curve" smooth="yes"/>
      <point x="205" y="79" type="line"/>
      <point x="183" y="32" type="line" smooth="yes"/>
      <point x="164" y="-10"/>
      <point x="189" y="-51"/>
      <point x="235" y="-53" type="curve" smooth="yes"/>
      <point x="419" y="-60" type="line" smooth="yes"/>
      <point x="419" y="-60"/>
      <point x="420" y="-60"/>
    </contour>
  </outline>
</glyph>
<glyph name="M" format="1">
  <advance width="1033"/>
  <unicode hex="004D"/>
  <outline>
    <contour>
      <point x="258" y="649" type="line" smooth="yes"/>
      <point x="227" y="629"/>
      <point x="221" y="588"/>
      <point x="245" y="560" type="curve" smooth="yes"/>
      <point x="265" y="538" type="line"/>
      <point x="253" y="524"/>
      <point x="248" y="501"/>
      <point x="252" y="484" type="curve" smooth="yes"/>
      <point x="260" y="453" type="line"/>
      <point x="180" y="519" type="line"/>
      <point x="199" y="575" type="line"/>
      <point x="244" y="657" type="line"/>
      <point x="362" y="736" type="line"/>
      <point x="390" y="735" type="line"/>
    </contour>
    <contour>
      <point x="351" y="-31" type="curve" smooth="yes"/>
      <point x="367" y="-2"/>
      <point x="357" y="35"/>
      <point x="329" y="51" type="curve" smooth="yes"/>
      <point x="186" y="132" type="line"/>
      <point x="194" y="197" type="line"/>
      <point x="197" y="274" type="line"/>
      <point x="275" y="358" type="line" smooth="yes"/>
      <point x="278" y="362"/>
      <point x="281" y="366"/>
      <point x="284" y="370" type="curve"/>
      <point x="294" y="352"/>
      <point x="315" y="339"/>
      <point x="336" y="339" type="curve" smooth="yes"/>
      <point x="344" y="339" type="line" smooth="yes"/>
      <point x="368" y="339"/>
      <point x="394" y="358"/>
      <point x="401" y="381" type="curve" smooth="yes"/>
      <point x="434" y="481" type="line" smooth="yes"/>
      <point x="439" y="496"/>
      <point x="436" y="517"/>
      <point x="427" y="531" type="curve"/>
      <point x="449" y="553" type="line"/>
      <point x="484" y="578" type="line"/>
      <point x="485" y="574"/>
      <point x="487" y="571"/>
      <point x="489" y="568" type="curve" smooth="yes"/>
      <point x="549" y="468" type="line" smooth="yes"/>
      <point x="551" y="464"/>
      <point x="557" y="457"/>
      <point x="561" y="454" type="curve" smooth="yes"/>
      <point x="645" y="381" type="line"/>
      <point x="624" y="330" type="line"/>
      <point x="549" y="237" type="line" smooth="yes"/>
      <point x="522" y="204"/>
      <point x="534" y="160"/>
      <point x="573" y="143" type="curve" smooth="yes"/>
      <point x="804" y="49" type="line"/>
      <point x="878" y="-39" type="line" smooth="yes"/>
      <point x="899" y="-64"/>
      <point x="937" y="-68"/>
      <point x="962" y="-47" type="curve" smooth="yes"/>
      <point x="987" y="-26"/>
      <point x="991" y="12"/>
      <point x="970" y="37" type="curve" smooth="yes"/>
      <point x="887" y="137" type="line" smooth="yes"/>
      <point x="882" y="144"/>
      <point x="871" y="151"/>
      <point x="864" y="155" type="curve" smooth="yes"/>
      <point x="693" y="224" type="line"/>
      <point x="724" y="261" type="line" smooth="yes"/>
      <point x="727" y="265"/>
      <point x="731" y="272"/>
      <point x="733" y="277" type="curve" smooth="yes"/>
      <point x="772" y="377" type="line" smooth="yes"/>
      <point x="780" y="399"/>
      <point x="773" y="429"/>
      <point x="755" y="444" type="curve" smooth="yes"/>
      <point x="646" y="538" type="line"/>
      <point x="602" y="612" type="line"/>
      <point x="609" y="668" type="line"/>
      <point x="642" y="692" type="line" smooth="yes"/>
      <point x="659" y="704"/>
      <point x="670" y="731"/>
      <point x="666" y="751" type="curve" smooth="yes"/>
      <point x="657" y="803" type="line" smooth="yes"/>
      <point x="652" y="830"/>
      <point x="626" y="852"/>
      <point x="599" y="852" type="curve" smooth="yes"/>
      <point x="552" y="853" type="line"/>
      <point x="544" y="857"/>
      <point x="536" y="859"/>
      <point x="527" y="859" type="curve" smooth="yes"/>
      <point x="478" y="859" type="line" smooth="yes"/>
      <point x="469" y="859"/>
      <point x="460" y="857"/>
      <point x="452" y="854" type="curve"/>
      <point x="372" y="856" type="line"/>
      <point x="365" y="858"/>
      <point x="357" y="859"/>
      <point x="349" y="859" type="curve" smooth="yes"/>
      <point x="144" y="859" type="line" smooth="yes"/>
      <point x="65" y="859"/>
      <point x="64" y="740"/>
      <point x="143" y="739" type="curve" smooth="yes"/>
      <point x="154" y="739" type="line"/>
      <point x="150" y="735"/>
      <point x="147" y="731"/>
      <point x="145" y="728" type="curve" smooth="yes"/>
      <point x="91" y="628" type="line" smooth="yes"/>
      <point x="90" y="625"/>
      <point x="88" y="621"/>
      <point x="87" y="618" type="curve" smooth="yes"/>
      <point x="53" y="518" type="line" smooth="yes"/>
      <point x="46" y="497"/>
      <point x="54" y="467"/>
      <point x="72" y="453" type="curve" smooth="yes"/>
      <point x="144" y="393" type="line"/>
      <point x="94" y="340" type="line" smooth="yes"/>
      <point x="86" y="331"/>
      <point x="79" y="314"/>
      <point x="78" y="301" type="curve" smooth="yes"/>
      <point x="74" y="201" type="line"/>
      <point x="62" y="106" type="line" smooth="yes"/>
      <point x="60" y="84"/>
      <point x="73" y="58"/>
      <point x="92" y="47" type="curve" smooth="yes"/>
      <point x="269" y="-53" type="line" smooth="yes"/>
      <point x="298" y="-69"/>
      <point x="335" y="-59"/>
    </contour>
  </outline>
</glyph>
<glyph name="N" format="1">
  <advance width="1253"/>
  <unicode hex="004E"/>
  <outline>
    <contour>
      <point x="805" y="-61" type="curve" smooth="yes"/>
      <point x="1033" y="-61" type="line" smooth="yes"/>
      <point x="1112" y="-61"/>
      <point x="1113" y="58"/>
      <point x="1034" y="59" type="curve" smooth="yes"/>
      <point x="856" y="62" type="line"/>
      <point x="855" y="69" type="line"/>
      <point x="985" y="148" type="line" smooth="yes"/>
      <point x="989" y="150"/>
      <point x="994" y="154"/>
      <point x="997" y="157" type="curve" smooth="yes"/>
      <point x="1096" y="257" type="line" smooth="yes"/>
      <point x="1128" y="289"/>
      <point x="1118" y="337"/>
      <point x="1076" y="354" type="curve" smooth="yes"/>
      <point x="903" y="426" type="line"/>
      <point x="919" y="450" type="line"/>
      <point x="1161" y="543" type="line" smooth="yes"/>
      <point x="1218" y="565"/>
      <point x="1216" y="638"/>
      <point x="1157" y="656" type="curve" smooth="yes"/>
      <point x="901" y="738" type="line"/>
      <point x="916" y="780" type="line" smooth="yes"/>
      <point x="926" y="810"/>
      <point x="909" y="845"/>
      <point x="878" y="856" type="curve" smooth="yes"/>
      <point x="848" y="866"/>
      <point x="813" y="849"/>
      <point x="802" y="818" type="curve" smooth="yes"/>
      <point x="768" y="718" type="line" smooth="yes"/>
      <point x="764" y="705"/>
      <point x="764" y="692"/>
      <point x="768" y="680" type="curve"/>
      <point x="602" y="791" type="line" smooth="yes"/>
      <point x="600" y="792"/>
      <point x="596" y="794"/>
      <point x="594" y="795" type="curve" smooth="yes"/>
      <point x="481" y="847" type="line" smooth="yes"/>
      <point x="475" y="849"/>
      <point x="464" y="852"/>
      <point x="458" y="852" type="curve" smooth="yes"/>
      <point x="354" y="855" type="line"/>
      <point x="348" y="857"/>
      <point x="340" y="859"/>
      <point x="334" y="859" type="curve" smooth="yes"/>
      <point x="190" y="859" type="line" smooth="yes"/>
      <point x="111" y="859"/>
      <point x="110" y="741"/>
      <point x="188" y="739" type="curve" smooth="yes"/>
      <point x="302" y="736" type="line"/>
      <point x="307" y="728" type="line"/>
      <point x="123" y="655" type="line" smooth="yes"/>
      <point x="92" y="643"/>
      <point x="77" y="608"/>
      <point x="89" y="577" type="curve" smooth="yes"/>
      <point x="128" y="477" type="line" smooth="yes"/>
      <point x="131" y="471"/>
      <point x="137" y="461"/>
      <point x="142" y="456" type="curve" smooth="yes"/>
      <point x="188" y="411" type="line"/>
      <point x="83" y="351" type="line" smooth="yes"/>
      <point x="34" y="323"/>
      <point x="40" y="260"/>
      <point x="94" y="242" type="curve" smooth="yes"/>
      <point x="377" y="146" type="line"/>
      <point x="407" y="122" type="line"/>
      <point x="201" y="56" type="line" smooth="yes"/>
      <point x="170" y="46"/>
      <point x="152" y="12"/>
      <point x="162" y="-19" type="curve" smooth="yes"/>
      <point x="172" y="-50"/>
      <point x="206" y="-68"/>
      <point x="237" y="-58" type="curve" smooth="yes"/>
      <point x="519" y="32" type="line"/>
      <point x="523" y="23"/>
      <point x="529" y="15"/>
      <point x="537" y="9" type="curve" smooth="yes"/>
      <point x="606" y="-42" type="line" smooth="yes"/>
      <point x="614" y="-48"/>
      <point x="630" y="-54"/>
      <point x="641" y="-54" type="curve" smooth="yes"/>
      <point x="783" y="-57" type="line"/>
      <point x="790" y="-59"/>
      <point x="798" y="-61"/>
    </contour>
    <contour>
      <point x="443" y="246" type="line" smooth="yes"/>
      <point x="439" y="250"/>
      <point x="431" y="254"/>
      <point x="425" y="256" type="curve" smooth="yes"/>
      <point x="257" y="313" type="line"/>
      <point x="316" y="347" type="line" smooth="yes"/>
      <point x="352" y="368"/>
      <point x="358" y="412"/>
      <point x="328" y="442" type="curve" smooth="yes"/>
      <point x="235" y="533" type="line"/>
      <point x="223" y="565" type="line"/>
      <point x="417" y="643" type="line" smooth="yes"/>
      <point x="453" y="658"/>
      <point x="466" y="697"/>
      <point x="446" y="730" type="curve" smooth="yes"/>
      <point x="446" y="731" type="line"/>
      <point x="539" y="688" type="line"/>
      <point x="724" y="566" type="line"/>
      <point x="725" y="542" type="line"/>
      <point x="455" y="456" type="line" smooth="yes"/>
      <point x="397" y="438"/>
      <point x="394" y="366"/>
      <point x="450" y="343" type="curve" smooth="yes"/>
      <point x="638" y="267" type="line"/>
      <point x="620" y="229" type="line"/>
      <point x="565" y="150" type="line"/>
    </contour>
    <contour>
      <point x="842" y="602" type="line" smooth="yes"/>
      <point x="841" y="613"/>
      <point x="836" y="625"/>
      <point x="829" y="635" type="curve"/>
      <point x="958" y="594" type="line"/>
      <point x="858" y="555" type="line" smooth="yes"/>
      <point x="854" y="553"/>
      <point x="849" y="550"/>
      <point x="845" y="547" type="curve"/>
    </contour>
    <contour>
      <point x="721" y="165" type="line" smooth="yes"/>
      <point x="723" y="167"/>
      <point x="725" y="171"/>
      <point x="726" y="173" type="curve" smooth="yes"/>
      <point x="774" y="273" type="line" smooth="yes"/>
      <point x="789" y="305"/>
      <point x="775" y="341"/>
      <point x="743" y="355" type="curve" smooth="yes"/>
      <point x="650" y="392" type="line"/>
      <point x="758" y="427" type="line"/>
      <point x="740" y="395"/>
      <point x="753" y="358"/>
      <point x="788" y="344" type="curve" smooth="yes"/>
      <point x="947" y="278" type="line"/>
      <point x="917" y="246" type="line"/>
      <point x="758" y="150" type="line" smooth="yes"/>
      <point x="739" y="139"/>
      <point x="726" y="112"/>
      <point x="730" y="90" type="curve" smooth="yes"/>
      <point x="734" y="64" type="line"/>
      <point x="662" y="66" type="line"/>
      <point x="655" y="71" type="line"/>
    </contour>
  </outline>
</glyph>
<glyph name="O" format="1">
  <advance width="1263"/>
  <unicode hex="004F"/>
  <outline>
    <contour>
      <point x="528" y="-61" type="line" smooth="yes"/>
      <point x="560" y="-61"/>
      <point x="588" y="-33"/>
      <point x="588" y="-1" type="curve" smooth="yes"/>
      <point x="588" y="31"/>
      <point x="560" y="59"/>
      <point x="528" y="59" type="curve" smooth="yes"/>
      <point x="480" y="59" type="line"/>
      <point x="489" y="74" type="line"/>
      <point x="598" y="150" type="line" smooth="yes"/>
      <point x="645" y="182"/>
      <point x="633" y="245"/>
      <point x="577" y="258" type="curve" smooth="yes"/>
      <point x="349" y="308" type="line"/>
      <point x="458" y="342" type="line" smooth="yes"/>
      <point x="513" y="359"/>
      <point x="520" y="423"/>
      <point x="469" y="451" type="curve" smooth="yes"/>
      <point x="404" y="487" type="line"/>
      <point x="556" y="543" type="line" smooth="yes"/>
      <point x="579" y="551"/>
      <point x="596" y="577"/>
      <point x="596" y="600" type="curve" smooth="yes"/>
      <point x="594" y="683" type="line" smooth="yes"/>
      <point x="594" y="699"/>
      <point x="586" y="715"/>
      <point x="574" y="726" type="curve"/>
      <point x="672" y="733" type="line"/>
      <point x="631" y="709"/>
      <point x="631" y="652"/>
      <point x="679" y="629" type="curve" smooth="yes"/>
      <point x="841" y="548" type="line"/>
      <point x="908" y="498" type="line"/>
      <point x="843" y="446" type="line" smooth="yes"/>
      <point x="808" y="417"/>
      <point x="812" y="370"/>
      <point x="851" y="347" type="curve" smooth="yes"/>
      <point x="1015" y="251" type="line"/>
      <point x="1030" y="235" type="line"/>
      <point x="733" y="174" type="line" smooth="yes"/>
      <point x="699" y="168"/>
      <point x="679" y="135"/>
      <point x="686" y="102" type="curve" smooth="yes"/>
      <point x="697" y="56" type="line"/>
      <point x="684" y="43" type="line" smooth="yes"/>
      <point x="660" y="22"/>
      <point x="658" y="-17"/>
      <point x="680" y="-41" type="curve" smooth="yes"/>
      <point x="701" y="-65"/>
      <point x="740" y="-67"/>
      <point x="764" y="-45" type="curve" smooth="yes"/>
      <point x="804" y="-9" type="line" smooth="yes"/>
      <point x="819" y="4"/>
      <point x="827" y="30"/>
      <point x="822" y="49" type="curve" smooth="yes"/>
      <point x="817" y="69" type="line"/>
      <point x="1163" y="140" type="line" smooth="yes"/>
      <point x="1214" y="151"/>
      <point x="1230" y="204"/>
      <point x="1194" y="241" type="curve" smooth="yes"/>
      <point x="1095" y="341" type="line" smooth="yes"/>
      <point x="1092" y="344"/>
      <point x="1086" y="349"/>
      <point x="1082" y="351" type="curve" smooth="yes"/>
      <point x="986" y="407" type="line"/>
      <point x="1043" y="452" type="line" smooth="yes"/>
      <point x="1075" y="478"/>
      <point x="1074" y="522"/>
      <point x="1041" y="547" type="curve" smooth="yes"/>
      <point x="909" y="647" type="line" smooth="yes"/>
      <point x="907" y="649"/>
      <point x="903" y="651"/>
      <point x="900" y="653" type="curve" smooth="yes"/>
      <point x="869" y="668" type="line"/>
      <point x="995" y="705" type="line" smooth="yes"/>
      <point x="1061" y="725"/>
      <point x="1054" y="814"/>
      <point x="985" y="822" type="curve" smooth="yes"/>
      <point x="799" y="845" type="line"/>
      <point x="789" y="854"/>
      <point x="776" y="859"/>
      <point x="759" y="859" type="curve" smooth="yes"/>
      <point x="682" y="859" type="line" smooth="yes"/>
      <point x="670" y="859"/>
      <point x="660" y="856"/>
      <point x="651" y="852" type="curve"/>
      <point x="224" y="823" type="line" smooth="yes"/>
      <point x="153" y="818"/>
      <point x="144" y="723"/>
      <point x="213" y="705" type="curve" smooth="yes"/>
      <point x="467" y="638" type="line"/>
      <point x="240" y="555" type="line" smooth="yes"/>
      <point x="187" y="536"/>
      <point x="182" y="474"/>
      <point x="231" y="447" type="curve" smooth="yes"/>
      <point x="288" y="415" type="line"/>
      <point x="96" y="356" type="line" smooth="yes"/>
      <point x="33" y="337"/>
      <point x="36" y="255"/>
      <point x="101" y="240" type="curve" smooth="yes"/>
      <point x="418" y="170" type="line"/>
      <point x="410" y="165" type="line" smooth="yes"/>
      <point x="404" y="161"/>
      <point x="397" y="153"/>
      <point x="393" y="147" type="curve" smooth="yes"/>
      <point x="344" y="66" type="line" smooth="yes"/>
      <point x="327" y="37"/>
      <point x="337" y="0"/>
      <point x="366" y="-17" type="curve" smooth="yes"/>
      <point x="428" y="-53" type="line" smooth="yes"/>
      <point x="436" y="-57"/>
      <point x="449" y="-61"/>
      <point x="458" y="-61" type="curve" smooth="yes"/>
    </contour>
  </outline>
</glyph>
<glyph name="P" format="1">
  <advance width="1216"/>
  <unicode hex="0050"/>
  <outline>
    <contour>
      <point x="550" y="366" type="curve" smooth="yes"/>
      <point x="378" y="331" type="line"/>
      <point x="373" y="341"/>
      <point x="366" y="349"/>
      <point x="356" y="355" type="curve" smooth="yes"/>
      <point x="296" y="390" type="line"/>
      <point x="455" y="446" type="line" smooth="yes"/>
      <point x="512" y="467"/>
      <point x="513" y="537"/>
      <point x="457" y="559" type="curve" smooth="yes"/>
      <point x="269" y="632" type="line"/>
      <point x="274" y="640" type="line"/>
      <point x="413" y="714" type="line" smooth="yes"/>
      <point x="427" y="721"/>
      <point x="437" y="731"/>
      <point x="443" y="743" type="curve"/>
      <point x="666" y="743" type="line"/>
      <point x="718" y="714" type="line" smooth="yes"/>
      <point x="722" y="712"/>
      <point x="729" y="709"/>
      <point x="734" y="708" type="curve" smooth="yes"/>
      <point x="1037" y="640" type="line"/>
      <point x="1036" y="635" type="line"/>
      <point x="939" y="553" type="line" smooth="yes"/>
      <point x="930" y="546"/>
      <point x="920" y="530"/>
      <point x="918" y="519" type="curve" smooth="yes"/>
      <point x="909" y="471" type="line"/>
      <point x="668" y="400" type="line"/>
      <point x="563" y="367" type="line"/>
      <point x="562" y="367" type="line" smooth="yes"/>
      <point x="559" y="367"/>
      <point x="553" y="366"/>
    </contour>
    <contour>
      <point x="323" y="-29" type="curve" smooth="yes"/>
      <point x="340" y="-1"/>
      <point x="331" y="37"/>
      <point x="304" y="54" type="curve" smooth="yes"/>
      <point x="228" y="101" type="line"/>
      <point x="274" y="128" type="line"/>
      <point x="464" y="44" type="line" smooth="yes"/>
      <point x="493" y="31"/>
      <point x="530" y="45"/>
      <point x="543" y="75" type="curve" smooth="yes"/>
      <point x="556" y="104"/>
      <point x="542" y="141"/>
      <point x="512" y="154" type="curve" smooth="yes"/>
      <point x="396" y="205" type="line"/>
      <point x="404" y="214" type="line"/>
      <point x="568" y="247" type="line"/>
      <point x="572" y="247" type="line" smooth="yes"/>
      <point x="577" y="247"/>
      <point x="585" y="248"/>
      <point x="590" y="250" type="curve" smooth="yes"/>
      <point x="704" y="286" type="line"/>
      <point x="977" y="366" type="line" smooth="yes"/>
      <point x="996" y="372"/>
      <point x="1015" y="392"/>
      <point x="1019" y="412" type="curve" smooth="yes"/>
      <point x="1032" y="474" type="line"/>
      <point x="1130" y="557" type="line" smooth="yes"/>
      <point x="1140" y="565"/>
      <point x="1149" y="581"/>
      <point x="1151" y="593" type="curve" smooth="yes"/>
      <point x="1165" y="677" type="line" smooth="yes"/>
      <point x="1170" y="708"/>
      <point x="1149" y="738"/>
      <point x="1119" y="745" type="curve" smooth="yes"/>
      <point x="853" y="805" type="line"/>
      <point x="853" y="863" type="line"/>
      <point x="314" y="863" type="line" smooth="yes"/>
      <point x="258" y="863"/>
      <point x="235" y="807"/>
      <point x="262" y="770" type="curve"/>
      <point x="204" y="739" type="line" smooth="yes"/>
      <point x="197" y="735"/>
      <point x="186" y="726"/>
      <point x="182" y="718" type="curve" smooth="yes"/>
      <point x="128" y="635" type="line" smooth="yes"/>
      <point x="107" y="602"/>
      <point x="120" y="562"/>
      <point x="157" y="547" type="curve" smooth="yes"/>
      <point x="263" y="506" type="line"/>
      <point x="133" y="460" type="line" smooth="yes"/>
      <point x="80" y="441"/>
      <point x="75" y="379"/>
      <point x="123" y="351" type="curve" smooth="yes"/>
      <point x="250" y="278" type="line"/>
      <point x="236" y="245" type="line"/>
      <point x="82" y="155" type="line" smooth="yes"/>
      <point x="40" y="130"/>
      <point x="39" y="78"/>
      <point x="80" y="52" type="curve" smooth="yes"/>
      <point x="240" y="-48" type="line" smooth="yes"/>
      <point x="268" y="-65"/>
      <point x="306" y="-56"/>
    </contour>
  </outline>
</glyph>
<glyph name="Q" format="1">
  <advance width="1217"/>
  <unicode hex="0051"/>
  <outline>
    <contour>
      <point x="532" y="-61" type="curve" smooth="yes"/>
      <point x="744" y="-61" type="line" smooth="yes"/>
      <point x="767" y="-61"/>
      <point x="789" y="-46"/>
      <point x="798" y="-25" type="curve"/>
      <point x="959" y="92" type="line" smooth="yes"/>
      <point x="961" y="93"/>
      <point x="964" y="96"/>
      <point x="966" y="98" type="curve" smooth="yes"/>
      <point x="1026" y="156" type="line" smooth="yes"/>
      <point x="1054" y="184"/>
      <point x="1051" y="226"/>
      <point x="1018" y="248" type="curve" smooth="yes"/>
      <point x="913" y="322" type="line"/>
      <point x="927" y="359" type="line"/>
      <point x="1068" y="448" type="line" smooth="yes"/>
      <point x="1114" y="477"/>
      <point x="1108" y="536"/>
      <point x="1058" y="555" type="curve" smooth="yes"/>
      <point x="974" y="587" type="line"/>
      <point x="1120" y="624" type="line" smooth="yes"/>
      <point x="1162" y="635"/>
      <point x="1179" y="678"/>
      <point x="1156" y="714" type="curve" smooth="yes"/>
      <point x="1106" y="795" type="line" smooth="yes"/>
      <point x="1098" y="808"/>
      <point x="1078" y="820"/>
      <point x="1063" y="822" type="curve" smooth="yes"/>
      <point x="775" y="859" type="line" smooth="yes"/>
      <point x="773" y="859"/>
      <point x="770" y="859"/>
      <point x="768" y="859" type="curve" smooth="yes"/>
      <point x="382" y="859" type="line" smooth="yes"/>
      <point x="363" y="859"/>
      <point x="339" y="845"/>
      <point x="330" y="829" type="curve" smooth="yes"/>
      <point x="318" y="808" type="line"/>
      <point x="170" y="736" type="line" smooth="yes"/>
      <point x="120" y="712"/>
      <point x="121" y="651"/>
      <point x="171" y="628" type="curve" smooth="yes"/>
      <point x="221" y="604" type="line"/>
      <point x="92" y="555" type="line" smooth="yes"/>
      <point x="38" y="535"/>
      <point x="35" y="470"/>
      <point x="87" y="445" type="curve" smooth="yes"/>
      <point x="218" y="382" type="line"/>
      <point x="176" y="342" type="line" smooth="yes"/>
      <point x="144" y="313"/>
      <point x="150" y="267"/>
      <point x="188" y="246" type="curve" smooth="yes"/>
      <point x="342" y="162" type="line"/>
      <point x="352" y="60" type="line"/>
      <point x="344" y="16" type="line" smooth="yes"/>
      <point x="338" y="-21"/>
      <point x="364" y="-52"/>
      <point x="400" y="-54" type="curve" smooth="yes"/>
      <point x="529" y="-61" type="line" smooth="yes"/>
      <point x="530" y="-61"/>
      <point x="531" y="-61"/>
    </contour>
    <contour>
      <point x="472" y="63" type="line" smooth="yes"/>
      <point x="459" y="205" type="line" smooth="yes"/>
      <point x="457" y="222"/>
      <point x="443" y="243"/>
      <point x="428" y="252" type="curve" smooth="yes"/>
      <point x="318" y="312" type="line"/>
      <point x="363" y="356" type="line" smooth="yes"/>
      <point x="396" y="387"/>
      <point x="388" y="434"/>
      <point x="348" y="453" type="curve" smooth="yes"/>
      <point x="265" y="493" type="line"/>
      <point x="396" y="543" type="line" smooth="yes"/>
      <point x="450" y="564"/>
      <point x="453" y="629"/>
      <point x="400" y="653" type="curve" smooth="yes"/>
      <point x="336" y="683" type="line"/>
      <point x="388" y="709" type="line" smooth="yes"/>
      <point x="397" y="713"/>
      <point x="409" y="724"/>
      <point x="414" y="733" type="curve" smooth="yes"/>
      <point x="417" y="739" type="line"/>
      <point x="764" y="739" type="line"/>
      <point x="978" y="712" type="line"/>
      <point x="761" y="657" type="line" smooth="yes"/>
      <point x="700" y="642"/>
      <point x="695" y="566"/>
      <point x="754" y="543" type="curve" smooth="yes"/>
      <point x="903" y="486" type="line"/>
      <point x="846" y="450" type="line" smooth="yes"/>
      <point x="837" y="444"/>
      <point x="826" y="431"/>
      <point x="822" y="420" type="curve" smooth="yes"/>
      <point x="784" y="320" type="line" smooth="yes"/>
      <point x="775" y="296"/>
      <point x="785" y="264"/>
      <point x="806" y="250" type="curve" smooth="yes"/>
      <point x="890" y="191" type="line"/>
      <point x="885" y="187" type="line"/>
      <point x="710" y="59" type="line"/>
      <point x="534" y="59" type="line"/>
      <point x="472" y="62" type="line"/>
    </contour>
  </outline>
</glyph>
<glyph name="R" format="1">
  <advance width="1181"/>
  <unicode hex="0052"/>
  <outline>
    <contour>
      <point x="560" y="385" type="line" smooth="yes"/>
      <point x="563" y="403"/>
      <point x="555" y="428"/>
      <point x="541" y="441" type="curve" smooth="yes"/>
      <point x="469" y="505" type="line"/>
      <point x="509" y="561" type="line" smooth="yes"/>
      <point x="525" y="583"/>
      <point x="524" y="616"/>
      <point x="505" y="636" type="curve" smooth="yes"/>
      <point x="449" y="699" type="line"/>
      <point x="454" y="736" type="line"/>
      <point x="527" y="736" type="line"/>
      <point x="592" y="714" type="line"/>
      <point x="603" y="665" type="line" smooth="yes"/>
      <point x="608" y="645"/>
      <point x="629" y="625"/>
      <point x="650" y="621" type="curve" smooth="yes"/>
      <point x="1005" y="548" type="line"/>
      <point x="1004" y="545" type="line"/>
      <point x="680" y="471" type="line" smooth="yes"/>
      <point x="621" y="458"/>
      <point x="612" y="387"/>
      <point x="666" y="359" type="curve"/>
      <point x="648" y="356" type="line"/>
      <point x="554" y="356" type="line"/>
    </contour>
    <contour>
      <point x="128" y="-61" type="curve" smooth="yes"/>
      <point x="454" y="39" type="line" smooth="yes"/>
      <point x="503" y="54"/>
      <point x="514" y="108"/>
      <point x="475" y="141" type="curve" smooth="yes"/>
      <point x="421" y="188" type="line"/>
      <point x="499" y="236" type="line"/>
      <point x="603" y="236" type="line"/>
      <point x="667" y="230" type="line"/>
      <point x="865" y="186" type="line"/>
      <point x="942" y="87" type="line"/>
      <point x="918" y="15" type="line" smooth="yes"/>
      <point x="908" y="-16"/>
      <point x="925" y="-51"/>
      <point x="956" y="-61" type="curve" smooth="yes"/>
      <point x="987" y="-71"/>
      <point x="1022" y="-54"/>
      <point x="1032" y="-23" type="curve" smooth="yes"/>
      <point x="1066" y="79" type="line" smooth="yes"/>
      <point x="1072" y="96"/>
      <point x="1067" y="121"/>
      <point x="1056" y="135" type="curve" smooth="yes"/>
      <point x="946" y="276" type="line" smooth="yes"/>
      <point x="939" y="286"/>
      <point x="924" y="295"/>
      <point x="912" y="298" type="curve" smooth="yes"/>
      <point x="906" y="300" type="line"/>
      <point x="924" y="327"/>
      <point x="917" y="366"/>
      <point x="879" y="386" type="curve" smooth="yes"/>
      <point x="869" y="391" type="line"/>
      <point x="1072" y="438" type="line" smooth="yes"/>
      <point x="1095" y="443"/>
      <point x="1116" y="466"/>
      <point x="1119" y="489" type="curve" smooth="yes"/>
      <point x="1131" y="589" type="line" smooth="yes"/>
      <point x="1134" y="619"/>
      <point x="1113" y="649"/>
      <point x="1083" y="655" type="curve" smooth="yes"/>
      <point x="711" y="731" type="line"/>
      <point x="700" y="774" type="line" smooth="yes"/>
      <point x="696" y="792"/>
      <point x="679" y="811"/>
      <point x="662" y="817" type="curve" smooth="yes"/>
      <point x="556" y="853" type="line" smooth="yes"/>
      <point x="551" y="855"/>
      <point x="543" y="856"/>
      <point x="537" y="856" type="curve" smooth="yes"/>
      <point x="368" y="856" type="line" smooth="yes"/>
      <point x="313" y="856"/>
      <point x="287" y="802"/>
      <point x="321" y="759" type="curve" smooth="yes"/>
      <point x="334" y="743" type="line"/>
      <point x="326" y="687" type="line" smooth="yes"/>
      <point x="324" y="672"/>
      <point x="330" y="650"/>
      <point x="341" y="638" type="curve" smooth="yes"/>
      <point x="384" y="592" type="line"/>
      <point x="340" y="531" type="line" smooth="yes"/>
      <point x="322" y="507"/>
      <point x="326" y="471"/>
      <point x="348" y="451" type="curve" smooth="yes"/>
      <point x="436" y="374" type="line"/>
      <point x="432" y="356" type="line"/>
      <point x="244" y="356" type="line"/>
      <point x="244" y="236" type="line"/>
      <point x="275" y="236" type="line"/>
      <point x="251" y="212"/>
      <point x="253" y="175"/>
      <point x="281" y="151" type="curve" smooth="yes"/>
      <point x="315" y="121" type="line"/>
      <point x="92" y="53" type="line" smooth="yes"/>
      <point x="61" y="44"/>
      <point x="43" y="9"/>
      <point x="53" y="-22" type="curve" smooth="yes"/>
      <point x="62" y="-53"/>
      <point x="97" y="-71"/>
    </contour>
  </outline>
</glyph>
<glyph name="S" format="1">
  <advance width="1283"/>
  <unicode hex="0053"/>
  <outline>
    <contour>
      <point x="532" y="-56" type="curve" smooth="yes"/>
      <point x="769" y="-56" type="line" smooth="yes"/>
      <point x="796" y="-56"/>
      <point x="815" y="-42"/>
      <point x="823" y="-23" type="curve"/>
      <point x="859" y="-19" type="line" smooth="yes"/>
      <point x="861" y="-19"/>
      <point x="865" y="-18"/>
      <point x="867" y="-17" type="curve" smooth="yes"/>
      <point x="1180" y="64" type="line" smooth="yes"/>
      <point x="1203" y="70"/>
      <point x="1223" y="94"/>
      <point x="1225" y="118" type="curve" smooth="yes"/>
      <point x="1232" y="201" type="line" smooth="yes"/>
      <point x="1234" y="228"/>
      <point x="1215" y="256"/>
      <point x="1189" y="264" type="curve" smooth="yes"/>
      <point x="711" y="402" type="line"/>
      <point x="659" y="444" type="line" smooth="yes"/>
      <point x="651" y="451"/>
      <point x="636" y="457"/>
      <point x="626" y="458" type="curve" smooth="yes"/>
      <point x="577" y="461" type="line"/>
      <point x="561" y="492" type="line" smooth="yes"/>
      <point x="556" y="499"/>
      <point x="546" y="509"/>
      <point x="539" y="514" type="curve" smooth="yes"/>
      <point x="300" y="655" type="line"/>
      <point x="300" y="655" type="line"/>
      <point x="601" y="709" type="line" smooth="yes"/>
      <point x="611" y="710"/>
      <point x="625" y="718"/>
      <point x="633" y="725" type="curve" smooth="yes"/>
      <point x="646" y="739" type="line"/>
      <point x="773" y="713" type="line"/>
      <point x="843" y="645" type="line" smooth="yes"/>
      <point x="846" y="641"/>
      <point x="851" y="637"/>
      <point x="855" y="635" type="curve" smooth="yes"/>
      <point x="1005" y="552" type="line" smooth="yes"/>
      <point x="1033" y="536"/>
      <point x="1071" y="546"/>
      <point x="1086" y="575" type="curve" smooth="yes"/>
      <point x="1102" y="603"/>
      <point x="1092" y="641"/>
      <point x="1063" y="656" type="curve" smooth="yes"/>
      <point x="921" y="736" type="line"/>
      <point x="844" y="811" type="line" smooth="yes"/>
      <point x="837" y="818"/>
      <point x="824" y="825"/>
      <point x="814" y="827" type="curve" smooth="yes"/>
      <point x="639" y="863" type="line" smooth="yes"/>
      <point x="622" y="866"/>
      <point x="597" y="859"/>
      <point x="585" y="847" type="curve" smooth="yes"/>
      <point x="561" y="823" type="line"/>
      <point x="128" y="746" type="line" smooth="yes"/>
      <point x="69" y="736"/>
      <point x="56" y="668"/>
      <point x="106" y="636" type="curve" smooth="yes"/>
      <point x="236" y="553" type="line"/>
      <point x="464" y="419" type="line"/>
      <point x="488" y="375" type="line" smooth="yes"/>
      <point x="497" y="359"/>
      <point x="518" y="346"/>
      <point x="536" y="344" type="curve" smooth="yes"/>
      <point x="598" y="339" type="line"/>
      <point x="645" y="301" type="line" smooth="yes"/>
      <point x="650" y="297"/>
      <point x="660" y="292"/>
      <point x="666" y="290" type="curve" smooth="yes"/>
      <point x="1094" y="166" type="line"/>
      <point x="841" y="100" type="line"/>
      <point x="566" y="68" type="line"/>
      <point x="452" y="71" type="line"/>
      <point x="269" y="116" type="line"/>
      <point x="154" y="244" type="line" smooth="yes"/>
      <point x="132" y="268"/>
      <point x="93" y="270"/>
      <point x="69" y="249" type="curve" smooth="yes"/>
      <point x="45" y="227"/>
      <point x="43" y="188"/>
      <point x="64" y="164" type="curve" smooth="yes"/>
      <point x="193" y="22" type="line" smooth="yes"/>
      <point x="199" y="15"/>
      <point x="213" y="7"/>
      <point x="223" y="4" type="curve" smooth="yes"/>
      <point x="429" y="-47" type="line" smooth="yes"/>
      <point x="433" y="-48"/>
      <point x="439" y="-49"/>
      <point x="442" y="-49" type="curve" smooth="yes"/>
      <point x="505" y="-50" type="line"/>
      <point x="512" y="-54"/>
      <point x="522" y="-56"/>
    </contour>
  </outline>
</glyph>
<glyph name="T" format="1">
  <advance width="872"/>
  <unicode hex="0054"/>
  <outline>
    <contour>
      <point x="338" y="-41" type="curve" smooth="yes"/>
      <point x="431" y="59" type="line" smooth="yes"/>
      <point x="452" y="82"/>
      <point x="452" y="119"/>
      <point x="430" y="142" type="curve" smooth="yes"/>
      <point x="370" y="204" type="line"/>
      <point x="417" y="263" type="line"/>
      <point x="497" y="355" type="line"/>
      <point x="634" y="451" type="line" smooth="yes"/>
      <point x="679" y="483"/>
      <point x="668" y="544"/>
      <point x="614" y="558" type="curve" smooth="yes"/>
      <point x="456" y="599" type="line"/>
      <point x="548" y="623" type="line" smooth="yes"/>
      <point x="597" y="635"/>
      <point x="610" y="686"/>
      <point x="583" y="718" type="curve"/>
      <point x="753" y="733" type="line" smooth="yes"/>
      <point x="761" y="734"/>
      <point x="773" y="738"/>
      <point x="780" y="742" type="curve" smooth="yes"/>
      <point x="791" y="749" type="line" smooth="yes"/>
      <point x="846" y="784"/>
      <point x="824" y="860"/>
      <point x="759" y="860" type="curve" smooth="yes"/>
      <point x="110" y="860" type="line" smooth="yes"/>
      <point x="78" y="860"/>
      <point x="50" y="832"/>
      <point x="50" y="800" type="curve" smooth="yes"/>
      <point x="50" y="768"/>
      <point x="78" y="740"/>
      <point x="110" y="740" type="curve" smooth="yes"/>
      <point x="312" y="740" type="line"/>
      <point x="317" y="726"/>
      <point x="328" y="713"/>
      <point x="346" y="704" type="curve" smooth="yes"/>
      <point x="359" y="698" type="line"/>
      <point x="202" y="658" type="line" smooth="yes"/>
      <point x="138" y="642"/>
      <point x="138" y="559"/>
      <point x="202" y="542" type="curve" smooth="yes"/>
      <point x="459" y="475" type="line"/>
      <point x="422" y="449" type="line" smooth="yes"/>
      <point x="419" y="447"/>
      <point x="414" y="442"/>
      <point x="412" y="439" type="curve" smooth="yes"/>
      <point x="323" y="337" type="line"/>
      <point x="244" y="237" type="line" smooth="yes"/>
      <point x="226" y="215"/>
      <point x="228" y="179"/>
      <point x="248" y="158" type="curve" smooth="yes"/>
      <point x="304" y="99" type="line"/>
      <point x="250" y="41" type="line" smooth="yes"/>
      <point x="228" y="17"/>
      <point x="229" y="-22"/>
      <point x="253" y="-44" type="curve" smooth="yes"/>
      <point x="277" y="-66"/>
      <point x="316" y="-65"/>
    </contour>
  </outline>
</glyph>
<glyph name="U" format="1">
  <advance width="1246"/>
  <unicode hex="0055"/>
  <outline>
    <contour>
      <point x="272" y="-61" type="curve" smooth="yes"/>
      <point x="737" y="-61" type="line" smooth="yes"/>
      <point x="746" y="-61"/>
      <point x="760" y="-57"/>
      <point x="767" y="-52" type="curve" smooth="yes"/>
      <point x="822" y="-20" type="line"/>
      <point x="1048" y="59" type="line" smooth="yes"/>
      <point x="1109" y="80"/>
      <point x="1106" y="157"/>
      <point x="1045" y="173" type="curve" smooth="yes"/>
      <point x="954" y="198" type="line"/>
      <point x="1112" y="241" type="line" smooth="yes"/>
      <point x="1175" y="258"/>
      <point x="1175" y="340"/>
      <point x="1112" y="357" type="curve" smooth="yes"/>
      <point x="930" y="406" type="line"/>
      <point x="1032" y="442" type="line" smooth="yes"/>
      <point x="1088" y="462"/>
      <point x="1090" y="531"/>
      <point x="1036" y="554" type="curve" smooth="yes"/>
      <point x="958" y="587" type="line"/>
      <point x="1148" y="641" type="line" smooth="yes"/>
      <point x="1212" y="659"/>
      <point x="1211" y="741"/>
      <point x="1147" y="757" type="curve" smooth="yes"/>
      <point x="757" y="857" type="line" smooth="yes"/>
      <point x="726" y="865"/>
      <point x="692" y="845"/>
      <point x="684" y="814" type="curve" smooth="yes"/>
      <point x="676" y="783"/>
      <point x="696" y="749"/>
      <point x="727" y="741" type="curve" smooth="yes"/>
      <point x="902" y="696" type="line"/>
      <point x="763" y="657" type="line" smooth="yes"/>
      <point x="704" y="640"/>
      <point x="699" y="568"/>
      <point x="755" y="544" type="curve" smooth="yes"/>
      <point x="847" y="505" type="line"/>
      <point x="708" y="456" type="line" smooth="yes"/>
      <point x="648" y="434"/>
      <point x="651" y="358"/>
      <point x="712" y="341" type="curve" smooth="yes"/>
      <point x="867" y="299" type="line"/>
      <point x="710" y="257" type="line" smooth="yes"/>
      <point x="647" y="240"/>
      <point x="647" y="159"/>
      <point x="710" y="141" type="curve" smooth="yes"/>
      <point x="827" y="109" type="line"/>
      <point x="777" y="92" type="line" smooth="yes"/>
      <point x="774" y="91"/>
      <point x="769" y="88"/>
      <point x="766" y="87" type="curve" smooth="yes"/>
      <point x="720" y="59" type="line"/>
      <point x="589" y="59" type="line"/>
      <point x="604" y="90" type="line" smooth="yes"/>
      <point x="615" y="114"/>
      <point x="607" y="148"/>
      <point x="585" y="164" type="curve" smooth="yes"/>
      <point x="472" y="247" type="line" smooth="yes"/>
      <point x="467" y="251"/>
      <point x="459" y="255"/>
      <point x="454" y="256" type="curve" smooth="yes"/>
      <point x="300" y="304" type="line"/>
      <point x="405" y="343" type="line" smooth="yes"/>
      <point x="442" y="356"/>
      <point x="456" y="396"/>
      <point x="435" y="430" type="curve" smooth="yes"/>
      <point x="375" y="530" type="line" smooth="yes"/>
      <point x="371" y="537"/>
      <point x="362" y="546"/>
      <point x="355" y="551" type="curve" smooth="yes"/>
      <point x="242" y="618" type="line"/>
      <point x="274" y="665" type="line" smooth="yes"/>
      <point x="290" y="688"/>
      <point x="287" y="722"/>
      <point x="267" y="742" type="curve" smooth="yes"/>
      <point x="165" y="842" type="line" smooth="yes"/>
      <point x="142" y="865"/>
      <point x="103" y="864"/>
      <point x="80" y="841" type="curve" smooth="yes"/>
      <point x="57" y="818"/>
      <point x="58" y="779"/>
      <point x="81" y="756" type="curve" smooth="yes"/>
      <point x="147" y="692" type="line"/>
      <point x="107" y="633" type="line" smooth="yes"/>
      <point x="87" y="604"/>
      <point x="95" y="566"/>
      <point x="125" y="547" type="curve" smooth="yes"/>
      <point x="280" y="455" type="line"/>
      <point x="295" y="430" type="line"/>
      <point x="92" y="355" type="line" smooth="yes"/>
      <point x="34" y="334"/>
      <point x="36" y="260"/>
      <point x="95" y="242" type="curve" smooth="yes"/>
      <point x="409" y="145" type="line"/>
      <point x="474" y="97" type="line"/>
      <point x="470" y="90" type="line"/>
      <point x="263" y="58" type="line" smooth="yes"/>
      <point x="188" y="47"/>
      <point x="196" y="-61"/>
    </contour>
  </outline>
</glyph>
<glyph name="V" format="1">
  <advance width="1303"/>
  <unicode hex="0056"/>
  <outline>
    <contour>
      <point x="766" y="-60" type="line" smooth="yes"/>
      <point x="779" y="-60"/>
      <point x="798" y="-52"/>
      <point x="808" y="-43" type="curve" smooth="yes"/>
      <point x="833" y="-18" type="line"/>
      <point x="1158" y="58" type="line" smooth="yes"/>
      <point x="1225" y="74"/>
      <point x="1223" y="163"/>
      <point x="1155" y="176" type="curve" smooth="yes"/>
      <point x="898" y="223" type="line"/>
      <point x="947" y="245" type="line" smooth="yes"/>
      <point x="997" y="267"/>
      <point x="999" y="327"/>
      <point x="952" y="353" type="curve" smooth="yes"/>
      <point x="909" y="376" type="line"/>
      <point x="1204" y="441" type="line" smooth="yes"/>
      <point x="1257" y="453"/>
      <point x="1271" y="512"/>
      <point x="1229" y="546" type="curve" smooth="yes"/>
      <point x="1108" y="646" type="line" smooth="yes"/>
      <point x="1104" y="649"/>
      <point x="1098" y="653"/>
      <point x="1093" y="655" type="curve" smooth="yes"/>
      <point x="898" y="737" type="line"/>
      <point x="906" y="791" type="line" smooth="yes"/>
      <point x="911" y="823"/>
      <point x="888" y="855"/>
      <point x="856" y="859" type="curve" smooth="yes"/>
      <point x="824" y="864"/>
      <point x="792" y="841"/>
      <point x="788" y="809" type="curve" smooth="yes"/>
      <point x="773" y="709" type="line" smooth="yes"/>
      <point x="769" y="683"/>
      <point x="785" y="655"/>
      <point x="809" y="645" type="curve" smooth="yes"/>
      <point x="1039" y="548" type="line"/>
      <point x="1058" y="532" type="line"/>
      <point x="726" y="459" type="line" smooth="yes"/>
      <point x="667" y="446"/>
      <point x="657" y="376"/>
      <point x="710" y="347" type="curve" smooth="yes"/>
      <point x="787" y="306" type="line"/>
      <point x="670" y="255" type="line" smooth="yes"/>
      <point x="611" y="229"/>
      <point x="620" y="153"/>
      <point x="683" y="141" type="curve" smooth="yes"/>
      <point x="852" y="110" type="line"/>
      <point x="790" y="95" type="line" smooth="yes"/>
      <point x="781" y="93"/>
      <point x="768" y="86"/>
      <point x="762" y="80" type="curve" smooth="yes"/>
      <point x="742" y="60" type="line"/>
      <point x="607" y="60" type="line"/>
      <point x="634" y="113" type="line" smooth="yes"/>
      <point x="654" y="152"/>
      <point x="633" y="194"/>
      <point x="590" y="200" type="curve" smooth="yes"/>
      <point x="518" y="211" type="line"/>
      <point x="515" y="224"/>
      <point x="508" y="236"/>
      <point x="494" y="247" type="curve" smooth="yes"/>
      <point x="441" y="290" type="line"/>
      <point x="550" y="347" type="line" smooth="yes"/>
      <point x="603" y="375"/>
      <point x="595" y="444"/>
      <point x="536" y="458" type="curve" smooth="yes"/>
      <point x="324" y="510" type="line"/>
      <point x="419" y="543" type="line" smooth="yes"/>
      <point x="427" y="546"/>
      <point x="439" y="554"/>
      <point x="445" y="561" type="curve" smooth="yes"/>
      <point x="529" y="661" type="line" smooth="yes"/>
      <point x="534" y="667"/>
      <point x="539" y="677"/>
      <point x="541" y="684" type="curve" smooth="yes"/>
      <point x="568" y="784" type="line" smooth="yes"/>
      <point x="576" y="816"/>
      <point x="557" y="849"/>
      <point x="526" y="858" type="curve" smooth="yes"/>
      <point x="494" y="866"/>
      <point x="461" y="847"/>
      <point x="452" y="816" type="curve" smooth="yes"/>
      <point x="429" y="728" type="line"/>
      <point x="364" y="651" type="line"/>
      <point x="94" y="557" type="line" smooth="yes"/>
      <point x="33" y="535"/>
      <point x="37" y="457"/>
      <point x="100" y="442" type="curve" smooth="yes"/>
      <point x="354" y="379" type="line"/>
      <point x="304" y="353" type="line" smooth="yes"/>
      <point x="264" y="332"/>
      <point x="258" y="284"/>
      <point x="293" y="255" type="curve"/>
      <point x="226" y="253" type="line" smooth="yes"/>
      <point x="151" y="250"/>
      <point x="145" y="144"/>
      <point x="220" y="133" type="curve" smooth="yes"/>
      <point x="489" y="94" type="line"/>
      <point x="456" y="27" type="line"/>
      <point x="506" y="58" type="line"/>
      <point x="506" y="-60" type="line"/>
    </contour>
  </outline>
</glyph>
<glyph name="W" format="1">
  <advance width="1180"/>
  <unicode hex="0057"/>
  <outline>
    <contour>
      <point x="351" y="113" type="line" smooth="yes"/>
      <point x="346" y="110"/>
      <point x="342" y="108"/>
      <point x="339" y="105" type="curve"/>
      <point x="293" y="117" type="line"/>
      <point x="348" y="142" type="line"/>
      <point x="377" y="125" type="line"/>
    </contour>
    <contour>
      <point x="637" y="110" type="curve" smooth="yes"/>
      <point x="632" y="113" type="line"/>
      <point x="664" y="128" type="line"/>
      <point x="759" y="60" type="line"/>
      <point x="752" y="60" type="line"/>
      <point x="669" y="65" type="line"/>
      <point x="666" y="83"/>
      <point x="656" y="99"/>
    </contour>
    <contour>
      <point x="513" y="-60" type="line" smooth="yes"/>
      <point x="535" y="-60"/>
      <point x="551" y="-51"/>
      <point x="562" y="-38" type="curve"/>
      <point x="633" y="-52" type="line" smooth="yes"/>
      <point x="635" y="-52"/>
      <point x="638" y="-53"/>
      <point x="640" y="-53" type="curve" smooth="yes"/>
      <point x="746" y="-60" type="line" smooth="yes"/>
      <point x="747" y="-60"/>
      <point x="749" y="-60"/>
      <point x="750" y="-60" type="curve" smooth="yes"/>
      <point x="924" y="-60" type="line" smooth="yes"/>
      <point x="985" y="-60"/>
      <point x="1009" y="7"/>
      <point x="963" y="46" type="curve" smooth="yes"/>
      <point x="845" y="146" type="line" smooth="yes"/>
      <point x="844" y="147"/>
      <point x="842" y="148"/>
      <point x="841" y="149" type="curve" smooth="yes"/>
      <point x="777" y="195" type="line"/>
      <point x="869" y="248" type="line" smooth="yes"/>
      <point x="871" y="249"/>
      <point x="874" y="251"/>
      <point x="876" y="252" type="curve" smooth="yes"/>
      <point x="1006" y="352" type="line" smooth="yes"/>
      <point x="1020" y="363"/>
      <point x="1030" y="386"/>
      <point x="1029" y="404" type="curve" smooth="yes"/>
      <point x="1025" y="476" type="line"/>
      <point x="1109" y="557" type="line" smooth="yes"/>
      <point x="1144" y="590"/>
      <point x="1132" y="641"/>
      <point x="1086" y="657" type="curve" smooth="yes"/>
      <point x="959" y="700" type="line"/>
      <point x="1088" y="743" type="line" smooth="yes"/>
      <point x="1119" y="753"/>
      <point x="1136" y="788"/>
      <point x="1126" y="819" type="curve" smooth="yes"/>
      <point x="1116" y="850"/>
      <point x="1081" y="867"/>
      <point x="1050" y="857" type="curve" smooth="yes"/>
      <point x="753" y="757" type="line" smooth="yes"/>
      <point x="694" y="737"/>
      <point x="694" y="663"/>
      <point x="753" y="643" type="curve" smooth="yes"/>
      <point x="954" y="575" type="line"/>
      <point x="921" y="543" type="line" smooth="yes"/>
      <point x="910" y="533"/>
      <point x="902" y="512"/>
      <point x="903" y="496" type="curve" smooth="yes"/>
      <point x="907" y="428" type="line"/>
      <point x="805" y="350" type="line"/>
      <point x="765" y="326" type="line"/>
      <point x="759" y="337"/>
      <point x="750" y="346"/>
      <point x="738" y="353" type="curve" smooth="yes"/>
      <point x="647" y="402" type="line"/>
      <point x="646" y="409" type="line" smooth="yes"/>
      <point x="642" y="437"/>
      <point x="615" y="460"/>
      <point x="586" y="460" type="curve" smooth="yes"/>
      <point x="524" y="460" type="line" smooth="yes"/>
      <point x="457" y="460"/>
      <point x="437" y="379"/>
      <point x="495" y="347" type="curve" smooth="yes"/>
      <point x="536" y="325" type="line"/>
      <point x="538" y="312" type="line"/>
      <point x="381" y="266" type="line"/>
      <point x="374" y="309" type="line" smooth="yes"/>
      <point x="372" y="325"/>
      <point x="359" y="344"/>
      <point x="346" y="352" type="curve" smooth="yes"/>
      <point x="283" y="388" type="line"/>
      <point x="428" y="444" type="line" smooth="yes"/>
      <point x="465" y="458"/>
      <point x="479" y="498"/>
      <point x="458" y="531" type="curve" smooth="yes"/>
      <point x="413" y="606" type="line"/>
      <point x="442" y="678" type="line" smooth="yes"/>
      <point x="445" y="687"/>
      <point x="447" y="703"/>
      <point x="445" y="713" type="curve" smooth="yes"/>
      <point x="423" y="813" type="line" smooth="yes"/>
      <point x="416" y="845"/>
      <point x="383" y="866"/>
      <point x="351" y="859" type="curve" smooth="yes"/>
      <point x="319" y="852"/>
      <point x="298" y="819"/>
      <point x="305" y="787" type="curve" smooth="yes"/>
      <point x="323" y="705" type="line"/>
      <point x="290" y="622" type="line" smooth="yes"/>
      <point x="284" y="607"/>
      <point x="286" y="583"/>
      <point x="295" y="569" type="curve" smooth="yes"/>
      <point x="318" y="530" type="line"/>
      <point x="125" y="456" type="line" smooth="yes"/>
      <point x="73" y="436"/>
      <point x="68" y="376"/>
      <point x="115" y="348" type="curve" smooth="yes"/>
      <point x="260" y="263" type="line"/>
      <point x="265" y="236" type="line"/>
      <point x="88" y="155" type="line" smooth="yes"/>
      <point x="32" y="129"/>
      <point x="39" y="57"/>
      <point x="98" y="42" type="curve" smooth="yes"/>
      <point x="189" y="19" type="line"/>
      <point x="178" y="-15"/>
      <point x="197" y="-60"/>
      <point x="246" y="-60" type="curve" smooth="yes"/>
    </contour>
  </outline>
</glyph>
<glyph name="X" format="1">
  <advance width="1253"/>
  <unicode hex="0058"/>
  <outline>
    <contour>
      <point x="1010" y="-60" type="curve" smooth="yes"/>
      <point x="1043" y="-60"/>
      <point x="1071" y="-33"/>
      <point x="1071" y="-1" type="curve" smooth="yes"/>
      <point x="1072" y="76" type="line"/>
      <point x="1150" y="159" type="line" smooth="yes"/>
      <point x="1155" y="163"/>
      <point x="1160" y="171"/>
      <point x="1162" y="176" type="curve" smooth="yes"/>
      <point x="1198" y="259" type="line" smooth="yes"/>
      <point x="1208" y="281"/>
      <point x="1202" y="311"/>
      <point x="1185" y="327" type="curve" smooth="yes"/>
      <point x="1128" y="381" type="line"/>
      <point x="1143" y="388"/>
      <point x="1156" y="400"/>
      <point x="1161" y="414" type="curve" smooth="yes"/>
      <point x="1193" y="495" type="line" smooth="yes"/>
      <point x="1207" y="531"/>
      <point x="1186" y="568"/>
      <point x="1148" y="575" type="curve" smooth="yes"/>
      <point x="858" y="632" type="line"/>
      <point x="885" y="651" type="line" smooth="yes"/>
      <point x="888" y="652"/>
      <point x="892" y="656"/>
      <point x="894" y="658" type="curve" smooth="yes"/>
      <point x="991" y="758" type="line" smooth="yes"/>
      <point x="1014" y="781"/>
      <point x="1013" y="821"/>
      <point x="990" y="843" type="curve" smooth="yes"/>
      <point x="967" y="866"/>
      <point x="927" y="865"/>
      <point x="905" y="842" type="curve" smooth="yes"/>
      <point x="812" y="746" type="line"/>
      <point x="672" y="649" type="line" smooth="yes"/>
      <point x="624" y="616"/>
      <point x="638" y="552"/>
      <point x="695" y="541" type="curve" smooth="yes"/>
      <point x="979" y="486" type="line"/>
      <point x="683" y="462" type="line"/>
      <point x="227" y="494" type="line"/>
      <point x="179" y="536" type="line"/>
      <point x="191" y="569" type="line"/>
      <point x="261" y="647" type="line"/>
      <point x="601" y="742" type="line" smooth="yes"/>
      <point x="632" y="751"/>
      <point x="652" y="785"/>
      <point x="643" y="816" type="curve" smooth="yes"/>
      <point x="634" y="847"/>
      <point x="600" y="867"/>
      <point x="569" y="858" type="curve" smooth="yes"/>
      <point x="212" y="758" type="line" smooth="yes"/>
      <point x="203" y="755"/>
      <point x="190" y="747"/>
      <point x="183" y="740" type="curve" smooth="yes"/>
      <point x="93" y="640" type="line" smooth="yes"/>
      <point x="89" y="635"/>
      <point x="83" y="626"/>
      <point x="81" y="619" type="curve" smooth="yes"/>
      <point x="53" y="536" type="line" smooth="yes"/>
      <point x="45" y="515"/>
      <point x="53" y="486"/>
      <point x="70" y="471" type="curve" smooth="yes"/>
      <point x="164" y="391" type="line" smooth="yes"/>
      <point x="172" y="383"/>
      <point x="188" y="377"/>
      <point x="199" y="376" type="curve" smooth="yes"/>
      <point x="255" y="372" type="line"/>
      <point x="154" y="340" type="line" smooth="yes"/>
      <point x="91" y="320"/>
      <point x="95" y="237"/>
      <point x="160" y="224" type="curve" smooth="yes"/>
      <point x="361" y="183" type="line"/>
      <point x="287" y="156" type="line" smooth="yes"/>
      <point x="285" y="155"/>
      <point x="281" y="154"/>
      <point x="279" y="152" type="curve" smooth="yes"/>
      <point x="101" y="52" type="line" smooth="yes"/>
      <point x="72" y="36"/>
      <point x="62" y="-1"/>
      <point x="78" y="-29" type="curve" smooth="yes"/>
      <point x="94" y="-58"/>
      <point x="131" y="-68"/>
      <point x="159" y="-52" type="curve" smooth="yes"/>
      <point x="333" y="45" type="line"/>
      <point x="600" y="144" type="line" smooth="yes"/>
      <point x="661" y="166"/>
      <point x="655" y="246"/>
      <point x="591" y="259" type="curve" smooth="yes"/>
      <point x="411" y="296" type="line"/>
      <point x="446" y="306" type="line" smooth="yes"/>
      <point x="465" y="313"/>
      <point x="479" y="325"/>
      <point x="486" y="340" type="curve"/>
      <point x="604" y="340" type="line"/>
      <point x="654" y="340" type="line"/>
      <point x="1032" y="306" type="line"/>
      <point x="1072" y="269" type="line"/>
      <point x="1056" y="234" type="line"/>
      <point x="969" y="141" type="line" smooth="yes"/>
      <point x="960" y="132"/>
      <point x="952" y="114"/>
      <point x="952" y="101" type="curve" smooth="yes"/>
      <point x="951" y="1" type="line" smooth="yes"/>
      <point x="951" y="-32"/>
      <point x="978" y="-60"/>
    </contour>
  </outline>
</glyph>
